<svg id="Layer_1_copy" data-name="Layer 1 copy" xmlns="http://www.w3.org/2000/svg" viewBox="0 0 1000 1000"><defs><style>.cls-1,.cls-2,.cls-3{stroke:#000;stroke-miterlimit:10;}.cls-1,.cls-2{stroke-width:2px;}.cls-2,.cls-3{fill:none;}.cls-3{stroke-width:43px;}.cls-4{font-size:117.61px;font-family:News-of-the-World, News of the World;letter-spacing:-0.05em;}.cls-5{letter-spacing:-0.02em;}.cls-6{letter-spacing:0.01em;}.cls-7{fill:#f47500;letter-spacing:0.01em;}</style></defs><title>Waves Records Logo</title><path class="cls-1" d="M294.41,553.39a376.49,376.49,0,0,0,83.94-17.89c6.53-2.21,13.21-1.46,19.79-1.24,9.62.31,19.23,1.16,28.8,2.17,16.19,1.72,32.36,3.72,48.12,8,18.59,5,37.35,9.57,55.7,15.39,20.76,6.6,41.2,14.23,61.69,21.7,27.4,10,54.53,20.74,82.11,30.21,23.09,7.93,46.53,14.92,70,21.54q21.82,6.13,43.79,11.78c0-2.77.08-5.54.15-8.3-3.06-.77-6.13-1.48-9.17-2.31-21.27-5.87-42.4-12.23-63.59-18.38-37.31-10.84-73.51-24.89-110-38.14-18.33-6.67-36.41-14.07-54.87-20.35q-26.14-8.9-52.87-16c-15.48-4.15-31.2-7.61-47-10.49-11.13-2-22.52-2.59-33.8-3.79-4-.43-8.07-.78-13.73-1.33,4.61-2.63,8-4.76,11.59-6.58,10.22-5.2,19.21-12.13,27.67-19.75a9.83,9.83,0,0,1,7.42-2.9,215,215,0,0,1,51.31,8,328.33,328.33,0,0,1,32.34,10.58c10.73,4.27,21.11,9.5,31.42,14.74,12.61,6.4,25,13.3,37.49,19.91,17.25,9.11,34.44,18.34,51.84,27.16,15.3,7.77,30.58,15.7,46.37,22.37,22.71,9.59,45.72,18.49,68.88,26.95,6.17,2.26,12.45,4.22,18.73,6.19.11-3,.3-6,.48-8.91-15.29-5-30.56-10-45.51-15.87-21-8.18-41.5-17.45-61.86-27-17.66-8.29-34.85-17.56-52.16-26.57C610,544,590.64,533.33,570.91,523.42c-23.77-11.93-48.22-22.45-74.18-28.66-13.28-3.18-27-4.78-40.42-7.1,6.06-8.85,13-17.92,18.74-27.7,5.84-9.94,10.5-20.58,16.13-31.83,5.85.89,12.27,1.29,18.35,3A104.48,104.48,0,0,1,530,438.74a189.2,189.2,0,0,1,22.69,14.13c17.14,12.2,32.77,26.28,48.64,40.05,13.25,11.51,26.41,23.13,40.05,34.14,15.52,12.51,31.38,24.61,47.37,36.53,16.72,12.45,34.87,22.59,53.17,32.57,15.44,8.41,31.35,15.73,47.49,22.54.22-2.94.52-5.86.81-8.78-.28-.12-.57-.21-.85-.33A474.6,474.6,0,0,1,701.22,562c-18-12.38-35-26.26-52.2-39.72-9.11-7.12-17.91-14.65-26.67-22.21-11.32-9.78-22.22-20-33.72-29.61-16-13.28-31.9-26.6-50.46-36.49a128,128,0,0,0-34.12-12.7c-3.11-.65-6.33-.83-10.45-1.34,13.89-43.95,22-88.67,25.68-135a28.68,28.68,0,0,1,15.41,7.56c16,14.45,26.74,32.85,37.14,51.36,15.14,26.91,29.87,54.05,44.87,81,12.6,22.7,27,44.25,42.21,65.27a440,440,0,0,0,32.34,39c20,21.84,42.85,40.21,67.13,56.78a348.77,348.77,0,0,0,32.27,19.37q1.41-12.09,3.78-23.79a298.79,298.79,0,0,1-43-37c-17.76-18.38-31.91-39.28-45.38-60.68-6.38-10.14-11.42-21.16-16.48-32.05s-10.08-22.13-14.06-33.57c-6.77-19.43-13.24-39-18.9-58.78a851.06,851.06,0,0,1-22.63-101.64q-6.06-38.41-11.47-76.93-4.53.67-9.11,1.21,1.74,11.76,3.57,23.5c5,32.14,9.72,64.35,16.66,96.16C643.72,348.2,656,394.12,674.2,438.28c.73,1.76,1.31,3.58,2,5.37l-1.19.41c-3.64-7.95-7.77-15.72-10.84-23.89-7.49-19.86-15.22-39.69-21.49-59.95-7.47-24.13-14.14-48.56-20-73.13-6.5-27.1-12.17-54.41-17.37-81.79-1.39-7.33-2.59-14.7-3.87-22.05-3,.26-5.92.48-8.89.69,1,5.41,2,10.82,3.11,16.2,6.5,31.71,12.33,63.59,20.13,95s15.83,62.8,27.37,93.14c5.1,13.43,9.44,27.19,15.26,40.29,7,15.85,15.18,31.21,23.06,46.67,3,5.84,6.57,11.37,9.88,17l-1.6.88c-3.26-5-6.74-9.81-9.74-14.94-7.91-13.52-16.22-26.85-23.24-40.82a662.83,662.83,0,0,1-31-70.62c-7.33-20.15-15-40.2-21.7-60.57-11.52-35-22-70.38-33.69-105.37q-2.64-7.9-5.46-15.77c-3.05,0-6.09.08-9.14.09,7.95,21,14.42,42.57,21.18,64,6.31,20,12.53,40.09,19.22,60,11.63,34.56,24.06,68.84,38.8,102.21,12.06,27.3,25.76,53.81,42.28,78.69,12.34,18.59,26.56,35.77,41.61,52.25l3,3.23-1.07,1c-8.11-8.24-16.14-16.55-24.35-24.69-11.32-11.21-21.1-23.76-30.27-36.65-12.55-17.64-24.14-36-35.72-54.28-6.65-10.49-12.61-21.43-18.64-32.29-12.08-21.75-23.69-43.77-36.1-65.32-6.51-11.31-14-22.07-21.6-32.74-8.32-11.73-19-20.71-32.7-24.64q3-45.69,5.94-91.17l-8.17-.23c-.38,8-.78,15.91-1.31,23.81-1.47,22.41-3.73,44.77-5.66,67.37C493.74,280,481.94,293,470.36,306.4c-4.2,4.84-8.77,9.4-12.61,14.51-5.65,7.52-10.56,15.59-16.19,23.13-14.49,19.39-28.27,39.35-44.56,57.36-7,7.78-14,15.68-21,23.48-1.23,1.36-2.72,2.5-4.08,3.74l-.59-.53c3.35-4.56,6.54-9.25,10.08-13.66,14.19-17.61,26-36.75,36.56-56.68,8.22-15.52,15.87-31.35,23.58-47.14,3.65-7.47,7.11-15.05,10.21-22.76C462.58,261,473.05,234,483.92,207.19q4.81-11.87,10-23.59l-9-.37c-8.58,19.74-16.29,39.86-24,60-6,15.62-12.73,30.93-19.28,46.32-4.12,9.65-8.6,19.15-12.77,28.78-8,18.57-18.47,35.83-28.43,53.36a9,9,0,0,1-4.15,4c2.62-5.29,5.44-10.49,7.83-15.88,7.91-17.83,16.46-35.43,23.32-53.66,15.15-40.25,26.61-81.64,35.7-123.66q-4.35-.13-8.61-.22a1030.5,1030.5,0,0,1-32.15,113.6c-2.08,6.08-4.47,12.06-6.72,18.08a6,6,0,0,1,0-4.56c5-16.75,11.79-33,15.25-50.22,2.15-10.72,5.07-21.28,7.57-31.93,3.51-15,6.64-30,9.5-45.1q-4.23-.06-8.33-.06c-.26,0-.48,0-.73,0-1.37,7.3-2.63,14.61-4.1,21.88-6.4,31.72-13.9,63.21-24.11,94-8.46,25.51-18,50.59-30.25,74.46-12.91,25.24-28.48,48.78-47.76,70-15.88,17.46-33.72,32.28-53,45.5-6.21,4.26-13.14,7.46-19.46,11.72-5.64,3.81-12.19,6.27-18.32,9.35A290.21,290.21,0,0,1,198.56,526c-1.55,11.53-3.48,23-5.43,34.49,19.06-.72,38.11-1.89,57.14-3.19C265,556.31,279.71,554.84,294.41,553.39Zm391.67-86.75-8.62-17.21,1-.5,8.64,17.2ZM293.5,499.49c11.29-7,22.68-13.84,33.69-21.26,23.07-15.54,43.28-34.49,62.14-54.78,17.23-18.52,32.8-38.46,47.76-58.91,13.91-19,28.38-37.65,42.88-56.24,6.24-8,14.1-14.41,22.52-20,2.22-1.48,5-2.14,8.25-3.49-3.72,46.52-11.8,91.18-26,134.79a11.59,11.59,0,0,1-2.58.65c-11.54,0-22.47,2.78-33.2,6.75-23,8.51-44.61,19.85-66.15,31.43-30.74,16.52-61.58,32.89-94.22,45.51-1.37.53-2.77,1-4.15,1.45l-.58-.93C287.05,502.79,290.43,501.39,293.5,499.49ZM335.94,492c22.09-10.94,43.72-22.72,65.52-34.19,17.61-9.26,35.44-18.35,54.5-24.52a89.12,89.12,0,0,1,25.41-4.65c-3.58,7.44-6.72,14.19-10.05,20.84a132.71,132.71,0,0,1-26.55,36.12c-1.42,1.38-3.57,2.82-5.39,2.83-14.61.09-29,2.45-43.45,4-16.87,1.85-33,6.73-49.4,10.59-19.6,4.62-39,10-58.57,14.89-8.43,2.11-16.95,3.86-25.43,5.77C287.5,513.71,312.09,503.83,335.94,492Zm-70.23,39.84c32.85-8.13,65.64-16.52,98.56-24.34,12.86-3.06,26-5,39.07-7.16,9.2-1.5,18.5-2.42,29.34-3.8-6.87,6.21-12.93,10.84-19.75,14.36-7,3.63-14.35,6.72-21.29,10.5s-14,4.54-21.64,4.71c-15.6.35-31.2,1.38-46.78,2.5-14.7,1.07-29.37,2.56-44.05,4-5.74.55-11.45,1.45-17.18,2.12a21.24,21.24,0,0,1-8.34-.31C257.67,533.57,261.72,532.84,265.71,531.86ZM249.83,544.6c15.68-2.09,31.45-3.54,47.2-5.09s31.51-2.88,47.26-4.3l-.06,1.31c-46.29,10.1-93.33,13.33-140.61,14.55C218.86,547.85,234.41,546.66,249.83,544.6Z"/><path class="cls-1" d="M794.59,726.31c-3.31,0-6.61-.07-9.92-.09-21.26-.18-42.52-.24-63.78-.45q-61.17-.59-122.34-1.31c-18.23-.24-36.45-.85-54.68-1.24-4.87-.1-9.75.06-14.63,0q-35.07-.6-70.14-1.29c-16.94-.36-33.88-.72-50.81-1.31-15.19-.53-30.37-1.4-45.56-2.07-4.93-.22-9.87-.25-14.8-.42-12-.43-24-.7-36-1.38-16.45-.94-32.89-2.16-49.33-3.32-14.1-1-28.21-1.85-42.28-3.15q-14.37-1.34-28.66-3.4c.48,2.84.94,5.69,1.43,8.54,5.26.76,10.51,1.48,15.78,2.09,11.27,1.29,22.57,2.24,33.88,3.12,13.66,1,27.33,2,41,2.76,19.68,1.07,39.37,1.95,59.05,2.84,19.91.89,39.81,1.7,59.72,2.54l1.93,0c23.81.43,47.62.76,71.42,1.34,11.94.29,23.87,1,35.8,1.86H196.07c.53,2.94,1.05,5.87,1.58,8.81H267c.12,2.47.27,4.56.3,6.65.07,3.66-.27,7.36.26,10.93a5.64,5.64,0,0,0,3.58,3.65c2.41.59,4-1.2,4.24-3.69a42.14,42.14,0,0,0,.09-4.5c0-4.24,0-8.48,0-12.55,7.37-1.37,119.91-1.16,124.83.15.07,1.41.23,2.9.21,4.38,0,3,1.13,5.09,4.17,5.58,2.21.35,4.07-2,4.4-5.29.17-1.68.23-3.37.36-5.37H533c.12,2.37.28,4.45.31,6.54.06,3.22-.1,6.45.06,9.67.18,3.43,1.9,5.46,4.36,5.24,2.84-.26,4-2.15,4.14-4.83.06-1.51,0-3,0-4.51V740.78H666.65c.15,2.46.18,4.57.43,6.66.29,2.45,1.88,4.29,4.23,3.77,1.44-.31,3-2.22,3.6-3.77.69-1.9.38-4.16.52-6.6h121.4Q795.65,733.66,794.59,726.31Z"/><path class="cls-1" d="M290.35,686.14c25.15,4,50.35,7.8,75.6,11.13,14.63,1.92,29.41,2.73,44.12,4.07,13.85,1.25,27.7,2.69,41.57,3.77,15.15,1.18,30.34,2,45.51,3.06,9.39.64,18.77,1.47,28.17,2q17.29,1,34.62,1.8c20.76.92,41.53,1.74,62.3,2.62,9.63.41,19.26.88,28.89,1.26,21.84.87,43.68,1.75,65.52,2.52q23.15.81,46.3,1.34c10.27.25,20.55.45,30.83.67-.37-2.68-.73-5.35-1.06-8q-14.72-.37-29.43-.78-21.21-.58-42.42-1.28-19-.62-37.92-1.29c-12.2-.42-24.41-.8-36.62-1.3q-29.54-1.22-59.07-2.58c-16.9-.78-33.8-1.55-50.69-2.53-20.51-1.19-41-2.47-61.5-4-12.38-.89-24.72-2.27-37.08-3.33-11.09-1-22.19-1.74-33.28-2.67-4.06-.35-8.09-.92-12.14-1.36-15.95-1.73-32-3-47.86-5.28-20.55-2.91-41-6.36-61.48-10-15-2.64-30-5.35-44.7-9-18.07-4.5-36.14-9.13-53.45-16.2.15,3,.29,6.09.53,9.13,13.32,4.81,26.86,9,40.65,12.56C247.46,677.93,268.77,682.7,290.35,686.14Z"/><path class="cls-1" d="M214.38,586.08c9.4,1.93,18.86,3.59,28.26,5.55,19.29,4,38.57,8.17,57.85,12.28q33,7.05,66,14.15c11.53,2.48,23,5.28,34.54,7.56,29,5.72,58,11.24,87.07,16.79,13.25,2.53,26.5,5.08,39.8,7.35,13.48,2.31,27,4.4,40.53,6.38q37.49,5.5,75,10.75,36.25,5,72.56,9.65c9.76,1.24,19.6,1.84,29.39,2.88,9.37,1,18.71,2.3,28.08,3.26,5.48.55,11,1,16.46,1.5-.23-3-.46-6-.64-9l-5.23-.52c-30.46-3.12-60.93-6-91.34-9.58-24.87-2.88-49.69-6.33-74.48-9.87-23.52-3.36-47-7.12-70.45-10.84-2.89-.45-5.65-1.73-8.47-2.61a5.15,5.15,0,0,0-1.83-.51c-11.53,1.12-22.41-2.68-33.51-4.58-22.59-3.85-45.1-8.15-67.61-12.47-13.67-2.63-27.27-5.65-40.9-8.5-19.93-4.16-39.86-8.26-59.76-12.53-12.57-2.7-25.06-5.76-37.63-8.48-20.52-4.44-41.17-8.34-61.6-13.17-15-3.55-30.14-6.3-45.3-8.93-.46,2.77-.94,5.54-1.38,8.31,2.16.36,4.33.69,6.49,1.06C202.34,583,208.31,584.83,214.38,586.08Z"/><path class="cls-2" d="M695.24,500.19l.76-.77c-.42-.67-.83-1.34-1.25-2-.35.35-.71.7-1.06,1.06Z"/><path class="cls-2" d="M789.88,684.18c-5.49-.49-11-.95-16.46-1.5-9.37-1-18.71-2.26-28.08-3.26-9.79-1-19.63-1.64-29.39-2.88q-36.32-4.6-72.56-9.65-37.53-5.21-75-10.75c-13.53-2-27-4.07-40.53-6.38-13.3-2.27-26.55-4.82-39.8-7.35C459,636.86,430,631.34,401,625.62c-11.56-2.28-23-5.08-34.54-7.56q-33-7.12-66-14.15c-19.28-4.11-38.56-8.25-57.85-12.28-9.4-2-18.86-3.62-28.26-5.55-6.07-1.25-12-3-18.14-4.1-2.16-.37-4.33-.7-6.49-1.06-3,19-5.31,37.93-5.17,57.13,0,4.26.28,8.53.5,12.79,17.31,7.07,35.38,11.7,53.45,16.2,14.73,3.67,29.73,6.38,44.7,9,20.45,3.6,40.93,7.05,61.48,10,15.89,2.25,31.91,3.55,47.86,5.28,4.05.44,8.08,1,12.14,1.36,11.09.93,22.19,1.72,33.28,2.67,12.36,1.06,24.7,2.44,37.08,3.33,20.49,1.48,41,2.76,61.5,4,16.89,1,33.79,1.75,50.69,2.53q29.54,1.36,59.07,2.58c12.21.5,24.42.88,36.62,1.3q19,.66,37.92,1.29,21.21.68,42.42,1.28,14.72.42,29.43.78C791.56,703.07,790.6,693.65,789.88,684.18Z"/><path class="cls-2" d="M788.38,645.06q-22-5.64-43.79-11.78c-23.5-6.62-46.94-13.61-70-21.54-27.58-9.47-54.71-20.23-82.11-30.21-20.49-7.47-40.93-15.1-61.69-21.7-18.35-5.82-37.11-10.34-55.7-15.39-15.76-4.29-31.93-6.29-48.12-8-9.57-1-19.18-1.86-28.8-2.17-6.58-.22-13.26-1-19.79,1.24a376.49,376.49,0,0,1-83.94,17.89c-14.7,1.45-29.4,2.92-44.14,3.93-19,1.3-38.08,2.47-57.14,3.19-.69,4-1.34,8.07-2,12.1,15.16,2.63,30.3,5.38,45.3,8.93,20.43,4.83,41.08,8.73,61.6,13.17,12.57,2.72,25.06,5.78,37.63,8.48,19.9,4.27,39.83,8.37,59.76,12.53,13.63,2.85,27.23,5.87,40.9,8.5,22.51,4.32,45,8.62,67.61,12.47,11.1,1.9,22,5.7,33.51,4.58a5.15,5.15,0,0,1,1.83.51c2.82.88,5.58,2.16,8.47,2.61,23.47,3.72,46.93,7.48,70.45,10.84,24.79,3.54,49.61,7,74.48,9.87,30.41,3.53,60.88,6.46,91.34,9.58l5.23.52C788.64,665.15,788.34,655.08,788.38,645.06Z"/><path class="cls-2" d="M793.78,720.42c-10.28-.22-20.56-.42-30.83-.67q-23.15-.56-46.3-1.34c-21.84-.77-43.68-1.65-65.52-2.52-9.63-.38-19.26-.85-28.89-1.26-20.77-.88-41.54-1.7-62.3-2.62q-17.33-.76-34.62-1.8c-9.4-.57-18.78-1.4-28.17-2-15.17-1-30.36-1.88-45.51-3.06-13.87-1.08-27.72-2.52-41.57-3.77-14.71-1.34-29.49-2.15-44.12-4.07-25.25-3.33-50.45-7.11-75.6-11.13-21.58-3.44-42.89-8.21-64.09-13.61-13.79-3.52-27.33-7.75-40.65-12.56,1.22,15.63,3.44,31.26,6.06,46.88q14.28,2,28.66,3.4c14.07,1.3,28.18,2.16,42.28,3.15,16.44,1.16,32.88,2.38,49.33,3.32,12,.68,24,.95,36,1.38,4.93.17,9.87.2,14.8.42,15.19.67,30.37,1.54,45.56,2.07,16.93.59,33.87.95,50.81,1.31q35.07.74,70.14,1.29c4.88.09,9.76-.07,14.63,0,18.23.39,36.45,1,54.68,1.24q61.17.81,122.34,1.31c21.26.21,42.52.27,63.78.45,3.31,0,6.61.06,9.92.09C794.3,724.35,794,722.38,793.78,720.42Z"/><path class="cls-2" d="M790.19,609.92c.16-1.57.28-3.14.46-4.7a348.77,348.77,0,0,1-32.27-19.37c-24.28-16.57-47.16-34.94-67.13-56.78a440,440,0,0,1-32.34-39c-15.18-21-29.61-42.57-42.21-65.27-15-27-29.73-54.13-44.87-81-10.4-18.51-21.1-36.91-37.14-51.36a28.68,28.68,0,0,0-15.41-7.56c-3.65,46.34-11.79,91.06-25.68,135,4.12.51,7.34.69,10.45,1.34a128,128,0,0,1,34.12,12.7c18.56,9.89,34.48,23.21,50.46,36.49C600.13,480,611,490.25,622.35,500c8.76,7.56,17.56,15.09,26.67,22.21,17.23,13.46,34.2,27.34,52.2,39.72a474.6,474.6,0,0,0,88.12,47.63C789.62,609.71,789.91,609.8,790.19,609.92Z"/><path class="cls-2" d="M658.35,428.55c-5.82-13.1-10.16-26.86-15.26-40.29-11.54-30.34-19.57-61.75-27.37-93.14s-13.63-63.27-20.13-95c-1.11-5.38-2.12-10.79-3.11-16.2-9.16.61-18.39,1-27.63,1.11q2.82,7.86,5.46,15.77c11.64,35,22.17,70.34,33.69,105.37,6.7,20.37,14.37,40.42,21.7,60.57a662.83,662.83,0,0,0,31,70.62c7,14,15.33,27.3,23.24,40.82,3,5.13,6.48,10,9.74,14.94l1.6-.88c-3.31-5.67-6.9-11.2-9.88-17C673.53,459.76,665.39,444.4,658.35,428.55Z"/><path class="cls-2" d="M196.07,732H511.69c-11.93-.83-23.86-1.57-35.8-1.86-23.8-.58-47.61-.91-71.42-1.34l-1.93,0c-19.91-.84-39.81-1.65-59.72-2.54-19.68-.89-39.37-1.77-59.05-2.84-13.68-.75-27.35-1.71-41-2.76-11.31-.88-22.61-1.83-33.88-3.12-5.27-.61-10.52-1.33-15.78-2.09Q194.56,723.69,196.07,732Z"/><path class="cls-2" d="M789.38,618.7c-16.14-6.81-32-14.13-47.49-22.54-18.3-10-36.45-20.12-53.17-32.57-16-11.92-31.85-24-47.37-36.53-13.64-11-26.8-22.63-40.05-34.14-15.87-13.77-31.5-27.85-48.64-40.05A189.2,189.2,0,0,0,530,438.74a104.48,104.48,0,0,0-20.44-7.65c-6.08-1.67-12.5-2.07-18.35-3C485.55,439.38,480.89,450,475.05,460c-5.74,9.78-12.68,18.85-18.74,27.7,13.47,2.32,27.14,3.92,40.42,7.1,26,6.21,50.41,16.73,74.18,28.66,19.73,9.91,39.06,20.61,58.65,30.8,17.31,9,34.5,18.28,52.16,26.57,20.36,9.56,40.91,18.83,61.86,27,14.95,5.84,30.22,10.88,45.51,15.87C789.19,622,789.26,620.35,789.38,618.7Z"/><path class="cls-2" d="M463.13,182.45c-9.09,42-20.55,83.41-35.7,123.66-6.86,18.23-15.41,35.83-23.32,53.66-2.39,5.39-5.21,10.59-7.83,15.88a9,9,0,0,0,4.15-4c10-17.53,20.41-34.79,28.43-53.36,4.17-9.63,8.65-19.13,12.77-28.78,6.55-15.39,13.31-30.7,19.28-46.32,7.68-20.12,15.39-40.24,24-60C477.46,182.94,470.2,182.66,463.13,182.45Z"/><path class="cls-2" d="M677.19,490.05c-16.52-24.88-30.22-51.39-42.28-78.69-14.74-33.37-27.17-67.65-38.8-102.21-6.69-19.9-12.91-40-19.22-60-6.76-21.45-13.23-43-21.18-64-9.53,0-19.05-.12-28.47-.37q-3,45.55-5.94,91.17c13.72,3.93,24.38,12.91,32.7,24.64,7.56,10.67,15.09,21.43,21.6,32.74,12.41,21.55,24,43.57,36.1,65.32,6,10.86,12,21.8,18.64,32.29,11.58,18.3,23.17,36.64,35.72,54.28,9.17,12.89,19,25.44,30.27,36.65,8.21,8.14,16.24,16.45,24.35,24.69l1.07-1-3-3.23C703.75,525.82,689.53,508.64,677.19,490.05Z"/><path class="cls-2" d="M283.82,504.42c3.23-1.63,6.61-3,9.68-4.93,11.29-7,22.68-13.84,33.69-21.26,23.07-15.54,43.28-34.49,62.14-54.78,17.23-18.52,32.8-38.46,47.76-58.91,13.91-19,28.38-37.65,42.88-56.24,6.24-8,14.1-14.41,22.52-20,2.22-1.48,5-2.14,8.25-3.49-3.72,46.52-11.8,91.18-26,134.79a11.59,11.59,0,0,1-2.58.65c-11.54,0-22.47,2.78-33.2,6.75-23,8.51-44.61,19.85-66.15,31.43-30.74,16.52-61.58,32.89-94.22,45.51-1.36.53-2.77,1-4.15,1.45Z"/><path class="cls-2" d="M788.61,632.58c-6.28-2-12.56-3.93-18.73-6.19C746.72,617.93,723.71,609,701,599.44c-15.79-6.67-31.07-14.6-46.37-22.37-17.4-8.82-34.59-18.05-51.84-27.16C590.28,543.3,577.91,536.4,565.3,530c-10.31-5.24-20.69-10.47-31.42-14.74a328.33,328.33,0,0,0-32.34-10.58,215,215,0,0,0-51.31-8,9.83,9.83,0,0,0-7.42,2.9c-8.46,7.62-17.45,14.55-27.67,19.75-3.57,1.82-7,3.95-11.59,6.58,5.66.55,9.69.9,13.73,1.33,11.28,1.2,22.67,1.76,33.8,3.79,15.77,2.88,31.49,6.34,47,10.49q26.67,7.16,52.87,16c18.46,6.28,36.54,13.68,54.87,20.35,36.47,13.25,72.67,27.3,110,38.14,21.19,6.15,42.32,12.51,63.59,18.38,3,.83,6.11,1.54,9.17,2.31C788.56,635.37,788.56,634,788.61,632.58Z"/><path class="cls-2" d="M493.88,183.6q-5.14,11.72-10,23.59C473.05,234,462.58,261,451.77,287.85c-3.1,7.71-6.56,15.29-10.21,22.76-7.71,15.79-15.36,31.62-23.58,47.14-10.54,19.93-22.37,39.07-36.56,56.68-3.54,4.41-6.73,9.1-10.08,13.66l.59.53c1.36-1.24,2.85-2.38,4.08-3.74,7-7.8,13.95-15.7,21-23.48,16.29-18,30.07-38,44.56-57.36,5.63-7.54,10.54-15.61,16.19-23.13,3.84-5.11,8.41-9.67,12.61-14.51C481.94,293,493.74,280,512.1,275.72c1.93-22.6,4.19-45,5.66-67.37.53-7.9.93-15.84,1.31-23.81C510.56,184.26,502.14,183.93,493.88,183.6Z"/><path class="cls-2" d="M262.53,523.72c25-10,49.56-19.89,73.41-31.7,22.09-10.94,43.72-22.72,65.52-34.19,17.61-9.26,35.44-18.35,54.5-24.52a89.12,89.12,0,0,1,25.41-4.65c-3.58,7.44-6.72,14.19-10.05,20.84a132.71,132.71,0,0,1-26.55,36.12c-1.42,1.38-3.57,2.82-5.39,2.83-14.61.09-29,2.45-43.45,4-16.87,1.84-33,6.73-49.4,10.59-19.6,4.62-39,10-58.57,14.89C279.53,520.06,271,521.81,262.53,523.72Z"/><path class="cls-2" d="M432.68,496.56c-6.87,6.21-12.93,10.84-19.75,14.36-7,3.63-14.35,6.72-21.29,10.5s-14,4.54-21.64,4.71c-15.6.35-31.2,1.38-46.78,2.5-14.7,1.07-29.37,2.56-44.05,4-5.74.55-11.45,1.45-17.18,2.12a21.24,21.24,0,0,1-8.34-.31c4-.85,8.08-1.58,12.06-2.56,32.85-8.13,65.64-16.52,98.56-24.34,12.86-3.06,26-5,39.07-7.16C412.54,498.86,421.84,497.94,432.68,496.56Z"/><path class="cls-2" d="M344.23,536.52c-46.29,10.1-93.33,13.33-140.61,14.55,15.24-3.22,30.79-4.41,46.21-6.47,15.68-2.09,31.45-3.54,47.2-5.09s31.51-2.88,47.26-4.3Z"/><path class="cls-2" d="M686.08,466.64l-8.62-17.21,1-.5,8.64,17.2Z"/><path class="cls-2" d="M695.24,500.19l-1.55-1.71c.35-.36.71-.71,1.06-1.06.42.66.83,1.33,1.25,2Z"/><rect class="cls-3" x="184.12" y="197.35" width="622.99" height="562.11"/><text class="cls-4" transform="translate(162.02 861.58)">W<tspan class="cls-5" x="76.03" y="0">A</tspan><tspan class="cls-6" x="127.36" y="0">VES RECORDS</tspan><tspan class="cls-7" x="665.02" y="0">.</tspan></text></svg>