<svg id="Layer_4" data-name="Layer 4" xmlns="http://www.w3.org/2000/svg" viewBox="0 0 856.6 420.72"><defs><style>.cls-1{fill:#fff;}</style></defs><title>ps-logo-waves</title><path d="M461.41,442.62c-1.19.62-2.32,1.58-3.58,1.78-2.52.4-4.9-.48-7.14-1.65-.17-.1-.18-.51-.26-.78l-.48-.73-2.57-3.05-.54.22a35.53,35.53,0,0,0,.2-5.54,20.53,20.53,0,0,0-1.42-4.83c-.57-1.51-1.22-2.87-.59-4.62.36-1-.07-2.22-.08-3.34,0-2.06-.07-4.11,0-6.17.08-2.52.37-5,.36-7.56,0-4-.26-7.9-.27-11.85,0-3.16-2.1-5-4.11-6.85-2.27-2.13-5.12-1.43-7.2-.31-1.66.9-2.79,3.21-3.62,5.13-1.39,3.21-1.32,6.79-1.37,10.21-.11,6.75.16,13.5.29,20.26a19.89,19.89,0,0,1-.42,5.4c-.39,1.58-.05,3.46-.81,5.12-.31.65-.65,1.3-.94,2a9.44,9.44,0,0,0-.92,3,23.49,23.49,0,0,0-1.83,1.77s.64.7,1.11,1.22c-2.55,1-4.64,2.93-7.62,3s-5.18-1.71-7.61-3.19l1.56-1c-2.19-1-1.34-3.61-3.16-4.84-.43-.29-.12-1.57-.28-2.37a66.45,66.45,0,0,1-1.61-9.76c-.21-4-.94-8-1.42-12a28,28,0,0,1-.24-3.65c0-1.26.1-2.44-1-3.37a1.46,1.46,0,0,1-.46-1.24c.89-2.37-.61-4.4-1-6.56a4.63,4.63,0,0,0-3.3-3.18c-1.32-.43-2.62-.92-4.21-1.48-1.5,1.27-3.18,2.73-4.9,4.14-1.47,1.2-2.28,2.4-1.62,4.54.56,1.83.38,3.88.51,5.84,0,.47-.18,1.08,0,1.38,1.44,1.94.82,4.11.89,6.22,0,1.08.59,2.13.67,3.22a24.58,24.58,0,0,1-.29,3.52c.34.38.85.89,1.28,1.47.72.95.88,2.06-.25,2.69-1.43.79-1.31,2.21-1.55,3.37a12,12,0,0,1-2.3,5.74,4.58,4.58,0,0,0-.33,1.58,3.29,3.29,0,0,1-.33,1.25c-1.18,1.6-2.42,3.16-3.83,5h2.34l.14.35c-1.89.87-3.71,2.14-5.69,2.47a6.7,6.7,0,0,1-5-1.15,10.12,10.12,0,0,0-3.19-1.88,6.76,6.76,0,0,1-1.19-.91l1.56.2c.68-1.36-.91-1.66-1.25-2.75.59-.94,1.38-1.95.12-3.26-.91-1,.13-2.53-1-3.78-2.88-3.16-2.61-7.45-3.56-11.31a71.65,71.65,0,0,0-2.54-8.27c-1.44-3.82-4.23-6.27-7.33-8.71a10.66,10.66,0,0,0-1.25.93,5.5,5.5,0,0,1-2.92,1.92c-1.19.27-2.16,1.8-3.09,2.89a33.31,33.31,0,0,0-2.15,3.25c.09.58.28,1.68.44,2.78a4.9,4.9,0,0,0,1.78,3.36c2.17,1.77,1.92,4.53,2.52,6.93.7,2.79.09,5.48-.71,8.13a3.86,3.86,0,0,1-1.62,2.31c-1.12.77-1.64,2.41-2.38,3.69-.42.73-.73,1.52-1.16,2.24a6,6,0,0,1-7.59,2.54c-2.92-1.27-5.81-.47-8.74-.23-1.1.09-2.76.61-3.17-.72-.57-1.81-2.14-2.71-2.91-4.19a5.32,5.32,0,0,1,0-3.26c.5-2.19,1.06-4.19.21-6.56-.4-1.13.78-3,1.52-4.33s1.95-2.3,2.64-3.59a52.21,52.21,0,0,1,5-8c.86-1.09,1.63-2.28.88-3.9-.28-.58.07-1.46.13-2.24-.66-1.2-3.14-1.2-2.27-3.24a14.64,14.64,0,0,1-2.66-1.6c-3-2.82-4.88-2.72-7.68.35-1.76,1.92-3.8,3.59-5.54,5.53a20.75,20.75,0,0,0-5,8.6,3.34,3.34,0,0,1-.38,1.31,8.2,8.2,0,0,0-1.88,5.18c0,.68.07,1.81-1.34,1.69-.19,0-.55.9-.7,1.43-.25.85-.38,1.74-.63,2.94l-1.37-1.27a12.86,12.86,0,0,0,0,1.9c.09.56.66,1.27.46,1.6-1.16,2-2.45,3.94-3.76,5.86a10.18,10.18,0,0,1-1.91,2.26,21.13,21.13,0,0,1-3.07,1.72c0,.5-.09,1.24-.14,2l-3.06,1.05c-1.21-1.55-4.3.51-5.41-2.2-3.1-1.39-3.1-1.39-4.61-3.22,1.55-.18,1.55-.18,2.84,1.14-1.33-2.77.24-5.86-1.22-8.71-.5-1,0-2.53.25-3.79.57-3.18,1.23-6.35,1.82-9.53a11.2,11.2,0,0,0,0-1.85l2.62-1.92c-1.07-3.4.88-6.2,2.22-9.14.54-1.17,1.13-2.31,1.78-3.42s1.42-2.15,2.11-3.23a4.66,4.66,0,0,0,.59-1.18,16.48,16.48,0,0,1,2.41-5.28c1-1.34,1.07-3.32,1.57-5a4.29,4.29,0,0,1,.7-1.78c2.43-2.42,2.14-5.66,2.68-8.64.08-.47-.54-1.5-.89-1.53-1.51-.11-2-1.27-2.73-2.22a6.66,6.66,0,0,0-8.17-1.77,3.36,3.36,0,0,0-1.37,1.27c-1.6,2.93-3.09,5.92-4.67,8.86a1.81,1.81,0,0,1-1,.91c-1.86.41-2.26,2-2.72,3.42a2.26,2.26,0,0,1-1.6,1.68A1.87,1.87,0,0,0,279,388c-.82,3.94-3,7.32-4.36,11a39.27,39.27,0,0,0-2.56,11.59c0,.55,0,1.34-.29,1.61-2.61,2.14-1.51,5.22-1.73,7.8-.14,1.65-.41,2.56-1.35,3-.5,1.49-.87,2.68-1.29,3.84a22.05,22.05,0,0,0-1.31,3.4c-.35,1.84-.42,3.74-2.38,4.74-.93,3.43-3.9,4.8-6.53,6.52a4.57,4.57,0,0,0-.6.63l.76,1.23a3.92,3.92,0,0,1-1.28.53c-1.85,0-3.67-.52-5.58,0-1.21.31-5.19-3-5.57-4.3-.08-.26-.14-.69,0-.82,1.6-1.56.89-3.5,1-5.32s.23-3.57.42-5.34c.17-1.56.63-3,.21-4.7a4.05,4.05,0,0,1,.7-4,1.91,1.91,0,0,0,.29-1.35c-.4-3,.66-5.76,1.29-8.6a5.78,5.78,0,0,1,.59-1.58,6.13,6.13,0,0,0,.87-3.45c-.05-1.3.74-2.64,1.18-4,.18-.53.45-1,.65-1.56,2-5.15,4-10.32,6.11-15.44,1.11-2.69,2.39-5.31,3.63-7.94,1.37-2.89,2.84-5.73,4.18-8.63.95-2,2.14-4,2.55-6.18.45-2.42.71-5.06-1-7.29-.4-.52-.68-1.13-1.11-1.62-.85-1-1.61-2-3.3-1.29-.76.31-1.87-.22-3.16-.42-.1.2-.39.75-.65,1.31-.14.3-.24.87-.39.88-1.9.18-2.64,1.7-3.47,3s-1.32,2.56-2.07,4c-.5.58-1.19,1.36-1.86,2.16-1.14,1.34-1.87,3.11-4,3.7.3,3.48-2.56,5.56-3.88,8.41-1.6,3.45-3.28,6.86-4.9,10.31-.39.84-.7,1.73-1,2.61-.81,2.32-2.26,4.36-1.74,7.15s-1.7,4.94-2.66,7.39a4.54,4.54,0,0,0-.44,2.89c.22,1.1.76,2.6-1,3.4-.45.2-.73,1.72-.46,2.36.83,1.87-.1,3.46-.3,5.31l-1.71-.74A22.44,22.44,0,0,0,229,419a22.84,22.84,0,0,1-.32,4.7c-.1,1.46-.47,2.53-2,2.85.29,1.09.54,2,.83,3-3.38,1.08-1.79,3.76-1.87,6.15-.67.42-.69,2-2.41,1.53-.4-.12-1.23,1.28-1.89,2-.83.87-1.55,1.88-3,2-.33,0-.76.52-.9.89-.61,1.57-2.19,2.95-3.63,2.63-2.77-.61-5.57-1.32-7-4.17a2.17,2.17,0,0,1,0-2.73c.72-1,.46-2.85.43-4.31a70.86,70.86,0,0,1,1.49-14.8c.72-3.62.65-7.4.93-11.11,0-.56-.1-1.3.2-1.66,1.63-2,1.4-4.45,2-6.69.8-2.89,1.6-5.78,2.45-8.66s1.56-5.6,2.57-8.31c2-5.45,4.29-10.81,6.3-16.26a59.24,59.24,0,0,1,5.34-10.5,21.4,21.4,0,0,0,1.14-2.59c1.64-3.67,3.25-7.35,5-11,.51-1.08,1.39-2,1.9-3.06,1.77-3.74,2-6.33-.69-8.87-.39-.35-1-.84-1.41-.75-3,.65-6.18,1-8.13,3.7-.81,1.13-2.51,1.78-2.22,3.67.05.37-.56,1.11-1,1.25-2.59.83-3,3.68-4.88,5.16a5.64,5.64,0,0,0-1.11,1.9c-.17.33-.2.92-.42,1-2.61.83-2.65,3.36-3.62,5.29a21.45,21.45,0,0,1-2.75,4.72c-.82.93-1.81,1.52-1.41,3,0,.06-.06.18-.13.24-3.41,2.87-3.3,7.7-6.09,10.92-.21,2.32-1.76,4.17-1.87,6.65a49.58,49.58,0,0,1-2.27,11.3c-.49,1.71-.44,3.57-1.76,5a1.19,1.19,0,0,0-.15,1.08c1,1.94,0,3.58-.52,5.39a41.27,41.27,0,0,0-1.15,7.09c-.17,1.77-1.32,3.46-.34,5.41a2.27,2.27,0,0,1-1.26,2.66c-.72.31-.77,2.23-1.06,3.44a29.78,29.78,0,0,0-.53,3,14.92,14.92,0,0,0-.18,2.67c.15,2.31.39,4.62.6,7l-1.46-.18c-.21,1.55-.41,3.11-.62,4.66-1-.21-1.18-2.37-2.82-1.24.29,1.88,1.84.92,2.82,1.24-1.35,1.94-2.24,4.3-5.05,5l.91,1.21c-.15.07-.3.21-.46.22a36.76,36.76,0,0,0-6.54,2c-1.45.58-3.17,1.41-4.49,1.07a20.33,20.33,0,0,1-3.19-.58,5.94,5.94,0,0,1-3.39-6.38c.32-2.57.23-5.18.37-7.78.17-3.2.17-6.42.63-9.58,1-6.7,2-13.4,3.36-20,1.07-5.33,2.55-10.59,3.92-15.86,1.26-4.82,2.49-9.65,4-14.41,1-3.22,2.42-6.3,3.58-9.46.75-2,1.39-4.1,2.05-6.15.12-.36,0-.81.21-1.11,3.44-5.49,5.66-11.6,8.87-17.22,2.18-3.84,3.7-8,5.79-11.93a43.87,43.87,0,0,1,3.88-6.76c.74-.93.54-2.93.22-4.31-.41-1.75-1-3.74-3.54-3.62-.33,0-.68-.3-1-.46-2.55-1.17-2.52-1.14-4.33,1a11.53,11.53,0,0,1-2.21,1.51c-.15.73-.3,1.75-.57,2.74-.17.61-.37,1.5-.82,1.7-2.48,1.12-3,3.81-4.73,5.57-1.09,1.11-1.84,2.42-3.33,3.26a5.29,5.29,0,0,0-2.57,3.38c-.29,2.64-2.7,3.66-3.58,5.74-.11.25-.42.48-.43.72-.06,2.08-1.32,3.68-2.17,5.44-.56,1.16-.28,3-2.25,3.16-.13,0-.27.26-.33.42-1.53,4.09-3.16,8.14-4.52,12.29a31.74,31.74,0,0,0-.79,5.48c-.17,1.14-.19,1.14-1.7,1.37-.93,2.38-1.89,4.7-2.75,7.05-.69,1.85-1.67,3.66-.18,5.7a1.63,1.63,0,0,1-.61,2.46c-2,.8-1.46,2.58-1.74,4a9.59,9.59,0,0,0,.12,1.67c0,2.19-.44,4.26-2.5,5.77.52.6.92,1.07,1.32,1.55a14.36,14.36,0,0,0-.53,2.64c-.09,3.24-.1,6.48-.1,9.72a13.26,13.26,0,0,1-.51,4.68,11.44,11.44,0,0,0-.28,6.22c.6,2.44-.15,4.67-.13,7a22.14,22.14,0,0,1-.19,4.39c-.56,2.93-.9,6-3.21,8.28.19,1.51-1.17,2.15-1.83,3.17s-.88,1-2.53.85l-1.37,3.19c-1.31-.89-2.39-.73-3.56.47-.61.61-1.56,1.83-2.95.83-.23-.17-1,.31-1.44.53A30.84,30.84,0,0,1,136,445c-2.29.58-6-2.12-6.61-4.49-.28-1.08-.28-1.08-1.21-1.52h0c.3-.81,1.33-1.5.33-2.69l-1.89,1.37c-.33-.73-1-1.64-.82-1.94,1.24-1.83,0-2-1.29-2.21-.46-.09-.91-.25-1.45-.4a25.5,25.5,0,0,0,.56-5c-.24-3.08,1-5.79,1.68-8.65a18.54,18.54,0,0,0,.29-2.24c.27-2.48.51-5,.8-7.44a1,1,0,0,1,.46-.63,1.92,1.92,0,0,0,.75-2.71c-.75-1.3.51-1.76.91-2.67a7.13,7.13,0,0,1,.24,2.63,6.6,6.6,0,0,0,.41,4.55c.2.52-.12,1.22-.1,1.84,0,1.81-.74,3.77,1,5.47.26-.34.59-.59.64-.88,1.22-7.29,2.37-14.6,3.63-21.88.56-3.24,1.61-6.41,1.26-9.77a1,1,0,0,1,0-.56c1.77-3,1.94-6.42,2.69-9.7a36.25,36.25,0,0,1,1.29-5.2,42.81,42.81,0,0,0,2.41-9.83,9,9,0,0,1,1-2.33,19.28,19.28,0,0,0,1.44-3.32c1-4.47,3.2-8.43,4.87-12.62,1.35-3.39,2.88-6.73,4.47-10s3.4-6.51,5.06-9.79c2.92-5.78,5.83-11.57,8.68-17.39.9-1.85,2-3.76,2.23-5.74a24.55,24.55,0,0,0,.66-4c-.06-1.18.23-2.46-1.41-3-.34-.11-.44-1-.62-1.41a4.56,4.56,0,0,0-5.42,1.59c-2.41,2.8-4.84,5.55-6.16,9.09-.15.42-.25,1-.55,1.19-1.69.84-3.54,1.47-3.38,3.89-2.5.47-2.82,3-4.26,4.4a5.4,5.4,0,0,0-1.64,2.36c-.83,3.17-1.56,6.36-2.32,9.55a5,5,0,0,1-1.42,2.9,5.3,5.3,0,0,0-1.51,3.66,9.24,9.24,0,0,1-2.56,6.34c-.26.26-.66.58-.66.86,0,2.35-1.69,4-2.31,6.1-.31,1-.26,2.29-1.9,2.35-.27,0-.75.91-.73,1.38.06,1.94-1.05,3.39-1.85,5a23.76,23.76,0,0,0-1,2.69H129.2a16.82,16.82,0,0,1-.46,3.18,14.32,14.32,0,0,1-2.31,4.62,16.29,16.29,0,0,0-1.73,3.67l-1.53-.25c-.18.23-.36.36-.37.51-.22,2.31-.46,4.61-.6,6.92a4.28,4.28,0,0,0,.3,2.17c1,2,1.47,3.8-.27,5.64a2,2,0,0,0-.35,1.54,13.19,13.19,0,0,1-1.16,8.4,24,24,0,0,0-1.9,7.54c-.17,1.69,0,3.26-.78,5s-.37,3.66-.28,5.51c0,1,.12,1.76-.84,2.44a2.71,2.71,0,0,0-.69,1.77c-.25,2.09-1,4.37-.43,6.26.69,2.34-.33,4.41-.1,6.62.1.91-.64,1.91-1.08,3.1,1.66,2.32.75,4.41-1.37,6.24L111.46,434c.56,3.1-.77,4.29-3.36,4.52a11.13,11.13,0,0,0-2.78,1l1.92,1.26c-4.7.95-9.1,1.81-13.49,2.74a6.43,6.43,0,0,1-7.93-4.74l-2.51-.32,2.07-.52a5.05,5.05,0,0,1-.08-4.94,7.31,7.31,0,0,0,.15-3.08c-.2-5.36.94-10.51,2.2-15.68.84-3.45,1.07-7.05,1.59-10.58q.26-1.8.57-3.6c.58-3.22,1-6.48,1.78-9.67,1-4,2.22-7.95,3.29-11.95.31-1.17.28-2.44.65-3.59.55-1.68,1.4-3.26,2-4.93,1.14-3.28,2.08-6.62,3.29-9.87,1-2.71,2.38-5.29,3.45-8,.87-2.17,1.49-4.44,2.3-6.63.38-1,1-2,1.42-3,1-2.32,1.73-4.75,2.86-7,2.2-4.42,4.53-8.79,6.94-13.1,1.68-3,3.71-5.82,5.36-8.85a126.21,126.21,0,0,1,9.58-14.32c2.85-3.85,5.25-8,8.12-11.86,2.13-2.84,4.73-5.32,7-8s4.29-5.24,6.45-7.84c.77-.93,1.62-1.81,2.44-2.7.57-.62,1.18-1.2,1.74-1.83q4.37-4.89,8.69-9.81a8.15,8.15,0,0,0,.64-1.25c1.08-1.8,1.67-1.62,3.26-.11,1.37,1.31,1.34,2.64.31,3.62-1.23,1.17-1,2.48-1.28,3.72,1.27,1.21,2.06.15,2.7-.53,2.19-2.33,4.32-4.74,6.41-7.17,6.49-7.56,12.55-15.51,20.15-22.07,3.57-3.08,6.91-6.42,10.26-9.74,2.13-2.12,4.13-4.37,6.11-6.64,1.16-1.32,2.14-2.74,2-4.71-.09-1.1-.92-4.13-1.72-5a4.19,4.19,0,0,1-.62-.93c-1.46-3-1.55-2.6-4.91-2.35-2.55.19-4.23,1.48-6.13,2.68a2.5,2.5,0,0,0-.86.7c-2.37,4.27-6.28,7.08-9.75,10.3-.4.38-1,.7-1.18,1.17-1.87,4-6.17,5.79-8.34,9.52-.48.83-1.86,1.26-2.91,1.58a4.63,4.63,0,0,0-2.88,2.22c-1.16,1.83-3.16,3.2-5,4.48a16.24,16.24,0,0,0-4.9,5.24,12,12,0,0,1-2.78,2.51c-.43.36-1.17.54-1.35,1-.8,1.91-2.39,2.76-4.57,3.41l1.73,1.19c-1,.61-1.87,1.68-2.72,1.63-2.62-.14-3.88,1.77-5.36,3.21-1.69,1.65-3.57,3.2-4.3,5.69-.22.77-1.25,1.39-2,1.88a8.23,8.23,0,0,0-3.27,3.73,28.6,28.6,0,0,1-2.17,3.24c-.39.61-.68,1.29-1,1.94-.7,1.31-.95,2.66-2.67,3.58s-2.57,3.21-3.91,4.82c-1.15,1.39-2.22,3.34-3.72,3.84-2.87,1-3.67,4.43-6.7,4.91a.61.61,0,0,0-.38.37c-.94,2.54-3.35,3.66-5.16,5.35a6.21,6.21,0,0,0-.82,1.12c-.51.75-1,1.54-1.51,2.27-.94,1.31-1.94,2.58-2.88,3.9s-1.8,2.56-2.64,3.89c-1,1.56-1,3.63-2.71,4.72l.77,1.59c-.83.49-2.19-.81-2.35.84-.18,1.82,1.64,1,2.33,1.51.29,2.46-2.09,1.77-3.25,2.85l1.41,1.29c0,.08,0,.35-.12.4-.78.37-1.66.47-1.57,1.8a8.29,8.29,0,0,1-.79,2.75l-1.51-.25c-.19.32-.58.67-.64,1.08-.54,3.23-2.94,5.65-3.77,8.74a1.61,1.61,0,0,1-.86,1.06c-2.47.7-3,2.91-4,4.8a35.18,35.18,0,0,1-2,3c-.25,1.1-.64,2.48-.87,3.9a30,30,0,0,0-.49,5c0,.63.76,1.26,1.31,2.09a34.64,34.64,0,0,0-2.37,3.68,34.43,34.43,0,0,0-1.5,4.36l1.32.75-3.15,3.58a2.06,2.06,0,0,1,.13,1.2,16.07,16.07,0,0,0-1.16,7.12c-1.88,1.66-.67,3.77-.75,5.66,0,1.14.26,2-1.2,2.73-.69.34-1,2-1.06,3,0,2.54-1.62,4.71-1.5,7.25,0,.81.13,1.61.21,2.42,0,.34.25.82.09,1-.81,1-.28,1.93-.18,2.94a12.42,12.42,0,0,1-.42,2.84c1.5,1.17.8,2.75.11,4.33-1,2.25-1.27,4.48.34,6.71-1.7,2.39-1.51,5-.93,7.77.39,1.87,1,3.76.09,5.74-.34.75,0,1.8,0,2.84A6,6,0,0,0,77.73,430a1.8,1.8,0,0,0,.26,2.22c.54.66-.18,2.26-.12,3.43a2.64,2.64,0,0,1-1.68,2.59l.09-.06-2.55.12a2,2,0,0,1-2.18,2.28,53,53,0,0,0-13.44,2.58c-.63.21-1.28.34-1.89.59-2.73,1.12-4.87-.65-7.15-1.54-.57-.22-.91-1.15-1.25-1.81-.75-1.45-.72-1.47-2.34-1.8,2.13-1.75,2.13-1.75,1-3.48,1.09-.7,1.9-1.34,1.29-3.08-.52-1.48,0-3.34.16-5q.72-6.27,1.57-12.52c.57-4.19,1.15-8.37,1.8-12.55.53-3.34,1.17-6.65,1.8-10,.21-1.11.58-2.18.82-3.29.8-3.77,1.5-7.57,2.37-11.32.6-2.63,1.65-5.16,2-7.81a29.74,29.74,0,0,1,1.26-5.7c.6-1.68,1.08-3.41,1.63-5.11.86-2.68,1.62-5.39,2.61-8,1.22-3.21,2.66-6.34,4-9.52,1.24-3,2.35-6.11,3.66-9.1,1.67-3.78,3.5-7.48,5.23-11.23,1.1-2.38,2.08-4.82,3.27-7.16,1.69-3.34,3.49-6.64,5.31-9.91,2-3.52,3.87-7.07,6-10.46a109.4,109.4,0,0,1,6.13-9.08c3.2-4,5.81-8.51,8.86-12.66,2.26-3.1,4.83-6,7.26-8.94,1.47-1.8,2.9-3.65,4.44-5.38s3-3.07,4.5-4.62c6.67-6.9,13.23-13.9,20-20.66,3.17-3.14,6.91-5.71,10.24-8.71,4.14-3.72,8.92-6.5,13.47-9.63,3.34-2.31,6.37-5.06,9.59-7.54,1.1-.84,2.38-1.44,3.56-2.2.68-.44,1.31-1,2-1.46.44-.34.8-.92,1.29-1.06,3.3-.94,5.62-3.54,8.62-5,2.36-1.15,4.6-2.56,6.85-3.94s4.26-2.74,6.38-4.12c.24-.15.44-.4.7-.47,3.43-.91,6.2-3,9.09-4.93a9.66,9.66,0,0,0,1.85-1.59c1.45-1.63,2.43-1.53,3.28.43.18.43.31.87.42,1.17-2.57,3.09-4.14,6.84-7.38,9.33,1.48,0,2.69.4,4-1.1,1.56-1.75,4-2.72,6-4,1.08-.68,2.17-1.34,3.24-2q11.43-7.5,22.86-15c4-2.59,8-5.11,12-7.67,2.42-1.54,5.14-2.66,7-5,.41-.51,1.11-.86,1.34-1.42a46.41,46.41,0,0,0,2-5.7c.34-1.31.22-2.53-1.5-3.16a2.63,2.63,0,0,1-1.74-2.73c-1.91-1.06-3.63-.31-5.44.36-4.2,1.55-8.43,3-12.26,5.37-.69.43-1.25,1.07-1.93,1.5a6.41,6.41,0,0,1-2.47,1.19,4.54,4.54,0,0,0-3.06,1.72,29.76,29.76,0,0,1-8.2,6.41c-.41.2-.59.83-.94,1.2a2.71,2.71,0,0,1-1,.66c-.47.2-1.3.15-1.43.44-.64,1.47-2.37.39-2.85,1.12-.82,1.27-1.88.9-2.92,1.09a17.26,17.26,0,0,0-2.56.89c-.69.25-1.7.93-2,.69-2.26-1.7-4.43.39-6.72.07-1.54-.22-3.71,1-4.94,2.25-1.63,1.63-3.11,1.16-5,.7-2,2.76-5.26,3.94-8.09,5.7-1.74,1.09-3.56,2-4.69,3.88-.36.58-1.22.83-1.76,1.34-1.06,1-2.06,2-3.46,3.44a2.29,2.29,0,0,0-2.27,1c-.44.7-1.89.69-2.72,1.25s-1.57,1.61-2.46,2.26c-.54.39-1.39.34-2,.69a11.49,11.49,0,0,0-1.81,1.56l-.91-1.26c-.16.12-.37.19-.41.32a6.17,6.17,0,0,1-5.4,4.36c-.82.06-2,.1-2.36.62-1.2,1.72-3.32,1.33-4.77,2.44a2.35,2.35,0,0,1-3.39-.39,16.79,16.79,0,0,1-6.29,6.81,9,9,0,0,0-3.93,3.88c-.13.27-.5.63-.74.61-2.07-.11-2.3,1.73-2.72,2.91-.67,1.87-1.29,3.53-3.13,4.65-.88.53-1.31,1.75-2.06,2.56-2.08,2.25-4.22,4.45-6.42,6.75l-2.15-.85a6.51,6.51,0,0,0-.47.69c-.2.4-.26,1-.57,1.23-2.22,1.94-4.53,3.79-6.74,5.74-1.09,1-2.06,2.06-3.15,3.18l-.79-.88c-.12.11-.37.22-.36.32a4.24,4.24,0,0,1-1.39,3.14c-1.64,1.85-3.61,3.41-5.22,5.28a18.82,18.82,0,0,0-2,3.87l-1.89.18c-.34,1-.63,1.93-1,2.85-.25.54-.76,1.41-1.08,1.38-1.82-.16-2,1.25-2.19,2.33a8.18,8.18,0,0,1-2.21,4.74c-.26.25-.6.64-.57.93.14,1.67-.94,2.27-2.32,2.65.21,1.21.38,2.19-1.19,2.66-1.86.57-2.39,2.21-1.91,4.15l-2.27.33a2.29,2.29,0,0,0-.25.75,6,6,0,0,1-1.77,4.56A2.52,2.52,0,0,0,90,275.9c-.31,1.84-1,3.21-3.13,3.41-.23,0-.26,1-.58,1.37-1.47,1.72-3,3.38-4.54,5.06-.31.34-.91.61-1,1-.43,3.29-3.12,5.87-2.94,9.34,0,.27,0,.73-.2.79-2.18.83-1.72,2.92-2.06,4.54-.24,1.16-.28,2.21-1.61,2.66-.3.1-.72.53-.7.78.11,1.29-1,1.59-1.65,2.27A15.78,15.78,0,0,0,68,311.52a4.16,4.16,0,0,1-3.2,2.75c-.69.11-1.19,1.31-1.82,2-.88.92-1.8,1.81-2.84,2.86a4.74,4.74,0,0,1,.53,1.69c0,.55-.47,1.09-.91,2-.15-.77-.24-1.21-.32-1.65-.73,2.2-.73,2.2.38,4.21l-2.18.62.47.71c.43.67.86,1.35,1.38,2.15a7.36,7.36,0,0,0-5.72,5.08l.07-.07c-.29.65-.86,1.32-.8,1.94.13,1.24,1,2.38.52,3.76-.07.22.62.62.83,1s.8,1.26.62,1.6c-.65,1.23-.22,2.28,0,3.49a22.62,22.62,0,0,1-.08,4.79c0,.36-.16.89-.4,1-2.09,1-1.7,3.09-2.17,4.83a9.48,9.48,0,0,1-1.49,3.24,8.53,8.53,0,0,0-1.66,4.59,5.58,5.58,0,0,1-1,2.58,9,9,0,0,0-1,4.86c.18,2.95-.61,5.7-1,8.54a24.26,24.26,0,0,0,0,3.73c-1.3,3.14-3,6.27-2.29,10.2.36,2-.19,4.2-.53,6.28-.28,1.72.3,3.65-1.12,5.14a.77.77,0,0,0,0,.72,2,2,0,0,1-.17,2.61,2.28,2.28,0,0,0,0,2.63,3.31,3.31,0,0,1,.4,2.37c-.87,2-.17,4.1-.34,6.13-.07.78.08,1.52-1.08,1.57-.14,0-.53,1.31-.31,1.54,1.76,1.83.65,3.68.18,5.51-.13.51-1.08,4.51-1.3,4.9-.63,1.1.22,1.65.79,2.35l-3.78,2.59c2.22,1.19,4.17-.26,6.42,0-1.68,1.1-3.3.76-4.81.95-2.08.26-4.2.39-6.25.84-4.45,1-8.86,2.18-13.31,3.21a9.41,9.41,0,0,1-2.54,0c-4.37-.21-5.27-1.42-4.3-5.74a8.11,8.11,0,0,0,.23-1.38c.21-5.76.33-11.52.64-17.27.18-3.37.66-6.73,1-10.1a5,5,0,0,0,.06-.56c-.12-6.83,1.79-13.43,2.36-20.19a57.21,57.21,0,0,1,1.65-8c2.18-9.23,4.41-18.45,6.57-27.68.56-2.38.84-4.82,1.42-7.19.66-2.72,1.52-5.39,2.29-8.09s1.67-5.12-.37-7.55c-.36.2-.86.66-1.08.55-1.23-.57-.86-1.67-.84-3L27,328l.11-2.25c1.22,1.41,2,2.35,2.92,3.4,1.73-.86,1.05-2.73,1.77-4.29,1.89-.28,2.73-2,3.17-3.7,1-3.78,2.85-7.11,4.56-10.55,2.43-4.85,4.65-9.8,7.15-14.61,1.38-2.65,2.46-5.51,4.57-7.73.2-.21.48-.39.55-.64,1.46-5,5.11-8.73,7.7-13.06A153.16,153.16,0,0,1,73.13,255c2.92-3.5,5.3-7.45,7.91-11.2.11-.15.1-.43.23-.51,3.27-1.89,4.34-5.59,6.76-8.17,2.25-2.4,4.61-4.68,6.86-7.07,2.43-2.59,4.76-5.28,7.18-7.88,1-1.1,2.14-2.1,3.2-3.16,3.47-3.45,6.85-7,10.43-10.34,2.94-2.72,6.14-5.17,9.21-7.76,2.52-2.12,5-4.31,7.55-6.4,2.18-1.79,4.46-3.46,6.66-5.23,1.09-.87,2-1.92,3.16-2.75,3.69-2.72,7.57-5.21,11.1-8.13,1.94-1.6,4.76-2.05,6-4.57a1.17,1.17,0,0,1,.66-.51c4.84-1.52,8.56-5,12.94-7.34,2-1.08,4.08-2.13,6.1-3.24,4.25-2.35,8.46-4.76,12.73-7.08,3.52-1.92,6.91-4.05,10.8-5.3,3.5-1.12,6.81-2.85,10.22-4.25,2.15-.87,4.53-1.33,6.47-2.53,3.2-2,7-2,10.22-3.75a25.36,25.36,0,0,1,2.52-1.21c1.67-.65,3.36-1.27,5.06-1.84,4-1.33,8-2.59,12-3.94,1.85-.63,3.61-1.86,5.48-2a21.51,21.51,0,0,0,5.29-1.2c3.55-1.2,7.22-2.06,10.82-3.12,1-.31,2-.92,3-1.24a33.69,33.69,0,0,1,3.6-.66c-.87,1.42-1.43,2.25-1.89,3.13-.86,1.63-.25,2.77,1.47,3.39a9.83,9.83,0,0,0,6.82-.34c6.43-2.35,12.71-5.09,19.08-7.58,5.06-2,10.14-3.93,15.28-5.67,3.69-1.24,5.59-4.19,7.93-7.14-1.6-2.28-3.39-4.09-6.25-4.46-2.12-.28-4.22-.64-6.35-.79a6.43,6.43,0,0,0-2.43.54c-1.13.39-2.19,1.23-3.32,1.3-4.38.28-8.08,2.71-12.23,3.64a3.83,3.83,0,0,0-2,.93c-1.4,1.66-3.38,1.55-5.17,1.88a130.06,130.06,0,0,1-13,2c-2.48.2-4.91.06-7.15,1.4-.23.13-.7-.2-1.05-.19-1.86,0-3.67,0-5.39,1.14s-4.07.69-6.26.41c-1.32.84-2.16,3.05-4.47,1.9-.21-.1-.68.23-1,.41a4.2,4.2,0,0,1-3.45.47c-1-.26-2.56-.76-3.35.81a.55.55,0,0,1-.5.19c-1.9-1.09-3.84.52-5.74-.08-2.22-.71-4.25.09-6.3.78-.93.32-2,.92-2.85.73-3.72-.79-6.56.87-9.42,3.08-1.24-2.38-2.93-.44-4.66-.57l.46,1.31c-1.42,2.12-3.66,1-5.67,1.28l1.29,1.16c-1.76,1-3.83.72-5.07,2.29-.13.16-.73-.14-1.07-.08a8.32,8.32,0,0,0-2.89.76c-2,1.3-3.64,3.05-5.76,4.25-1.31.74-2.22,2.18-3.29,3.32-.18.19-.26.64-.41.65-2.39.18-3.92,2-5.91,3-.17.08-.37.26-.5.22-2.65-.8-4.39.83-6.23,2.28-2.07,1.63-4.63,2-7.12,2.38a10.3,10.3,0,0,0-5.67,2.21,12.59,12.59,0,0,1-2.47,1.3c-.4.2-.91.37-1.12.72-.72,1.21-1.31,2.48-2.91,2.84-.18,0-.2.82-.33,1.41l-2.4-.66c-.16.06-.4.08-.49.21-1.74,2.45-2.83,5.56-6.27,6.33a.27.27,0,0,0-.2.17c-.5,3.32-4.45,3.88-5.46,6.83-.13.37-.94.51-1.41.79s-1.06.48-1.07.74c0,1.42-1.2,1.37-2,1.94-1.36,1-2.48,2.2-4.39,2-.37,0-.85.37-1.21.65-1.81,1.41-3.59,2.86-5.4,4.27a2.87,2.87,0,0,1-1.22.68,14.06,14.06,0,0,0-8.06,4.51,10.84,10.84,0,0,1-3.72,2.22c-1.43.56-2.09,2-3.58,2.59-1.32.54-2.17,2.23-3.27,3.38-.43.43-1,.71-1.47,1.13-.75.69-2,1.36-2.06,2.16-.41,2.94-2.47,4.77-4.07,6.92-.21.28-.58.61-.54.87.31,2.16-2.22,2.27-2.75,3.81a15.36,15.36,0,0,1-1.91-.38l1.6,1.81c-.93,1.43-3.26,1.46-3.66,3.41s-2.24,2.56-3.3,3.88-2,2.58-3.22,4.1c-1.34-.66-1.83.73-2.56,1.7s-1.34,1.88-2.34,3.29c-2.44.24-3.27,3.45-5.59,4.87a17.73,17.73,0,0,0-2.3,1.76c-.41.35-1.08.95-1,1.21.57,1.65-.65,2.09-1.6,2.83a4.25,4.25,0,0,0-1.38,1.64c-.75,1.91-1.35,3.89-2,5.83-.15.44-.22,1-.54,1.26-1.82,1.37-2.61,3.36-3.28,5.71l-1.14-1.25-2.59,4.37c-.14.24-.18.64-.39.74-2.19,1.1-2.32,3.34-3,5.28-.18.53-.33,1.26-.72,1.48-2,1.13-2.39,3.65-4.24,4.9-.14.1-.34.29-.32.41.3,1.75-.47,2.9-1.65,4.2-1,1.07-1,2.88-1.69,4.29a27.12,27.12,0,0,1-1.95,3.27c-.46.7-1.23,1.31-1.41,2.07-.82,3.31-3.67,4.92-5.71,7.22-.39.44-1,1.27-.81,1.55.93,1.67-.42,3-.55,4.45a23.58,23.58,0,0,1-.73,3.18c0,.09,0,.26,0,.28-2.29,1-1.9,3.51-3,5.4l-1.78-1.68c-1.37,2.08-2.24,4.64-4.95,5.07-.78,2.36.4,4.79-.95,6.89,1,1.18-.54,2.36.08,3.65s.63,2.67,1.1,3.95c.35,1,1,1.78-.19,2.71-.34.26-.19,1.21-.22,1.84-.05,1.1-.54,1.78-2,2l-.67-1.93c-.49-1.45-.35-3.15-2-4.1-.53-.29-.74-1.29-.92-2-.75-3-1.39-6-2.16-9-.26-1-.22-2.27-1.51-2.88-.37-.18-.5-.95-.65-1.47-1.22-4.16-2.43-8.32-3.6-12.49a6.92,6.92,0,0,1-.34-2.2c.12-2.06.35-4.11.57-6.16a5.28,5.28,0,0,1,.39-1.34,11.51,11.51,0,0,0,1.12-2.82c.37-3.84,2.12-7.13,3.69-10.55,1.73-3.77,4.22-7.08,6.13-10.73a18.84,18.84,0,0,0,2-5.21,10,10,0,0,1,2.15-4.56c.75-1,1-2.08,2.53-2.61,1.11-.38,1.68-2.37,2.46-3.65.24-.39.28-1,.6-1.21,3.2-2.07,4.6-5.54,6.69-8.47.27-.38.62-.71.89-1.1,1.5-2.16,4.35-3.33,4.59-6.45,0-.53.76-1,1.21-1.5,2.26-2.38,4.7-4.53,6.54-7.37,1.65-2.54,4.16-4.52,6.24-6.79,2.84-3.13,5.59-6.33,8.46-9.43,2.22-2.39,4.57-4.66,6.85-7,3.59-3.68,7.12-7.42,10.79-11,3.34-3.25,6.82-6.37,10.29-9.49,3.12-2.81,6.26-5.6,9.49-8.27,3.84-3.16,7.78-6.19,11.68-9.27,1.24-1,2.45-2,3.74-2.9,4.54-3.17,9.08-6.33,13.67-9.41,2.8-1.87,5.72-3.57,8.55-5.38,1.33-.84,2.54-1.85,3.88-2.66,2.38-1.43,4.79-2.82,7.23-4.13,3.61-1.92,7.3-3.69,10.88-5.66,3.24-1.78,6.39-3.75,9.59-5.61a12.49,12.49,0,0,1,1.81-.74c3.33-1.29,6.88-2.19,9.93-4,4.11-2.38,8.6-3.72,12.94-5.43,3.81-1.51,7.67-3,11.45-4.53,3.33-1.35,6.94-1.79,10.1-3.47,4.73-2.51,10-3.21,15-5,2.75-1,5.79-1.22,8.68-1.89,1.81-.41,3.58-1,5.38-1.5,1.16-.31,2.33-.55,3.5-.81,2-.46,4-1,6-1.36,1.65-.34,3.32-.6,5-.89.37-.07.75-.07,1.11-.17a59.44,59.44,0,0,1,5.87-1.72c4.51-.8,8.92-2.09,13.58-2.19,3-.06,5.9-1,8.85-1.46.74-.12,1.5-.11,2.25-.17l6.44-.57c1.77-.16,3.54-.35,5.31-.52,4-.4,8-1,12-1.14,4.67-.19,9.36,0,14.31,0A35.56,35.56,0,0,1,339,85.58a2.22,2.22,0,0,0,2.41,1.5A63.47,63.47,0,0,0,352.93,86c5-1.11,10.18-1.8,15.2-3a34.26,34.26,0,0,1,8-1.07,23.85,23.85,0,0,0,8.2-1.89,10.49,10.49,0,0,1,2.56-1c2.11-.19,2.7-2.24,4.1-3.26.64-.47.32-2.23.4-3a19.21,19.21,0,0,0-2.88-2.41,15.49,15.49,0,0,0-4.1-1.48,10.61,10.61,0,0,0-3.1.22c-.36,0-.91.35-1.06.21-1.86-1.74-4-.32-5.9-.42a19.51,19.51,0,0,0-5.82.75,29.28,29.28,0,0,1-6.37.89,10.47,10.47,0,0,0-6.33,1.87,5.72,5.72,0,0,1-3.46.91c-3.7-.16-7.4-.84-11.08-.77-4.12.08-8-1-12-1.52a3.44,3.44,0,0,0-1.84.09c-1.81.91-3.65.63-5.53.45a30.61,30.61,0,0,0-6.47-.25c-1.69.22-3.41.63-5.07,1-1.81.41-3.31-.26-5-.22-2.37.06-4.75,0-7.12,0-.76,0-1.51.16-2.26.13a8.21,8.21,0,0,0-5.33,1.84c-1,.76-2.08,1.34-3.5.73-2-.86-5.81.54-7.13,2.51-2.75,0-5.55,0-8.35,0a4.64,4.64,0,0,0-2.13.67,5.51,5.51,0,0,1-5.11.72,3.66,3.66,0,0,0-1.94,0c-2.09.46-4.17,1-6.24,1.5a3,3,0,0,0-1.24.54c-1.6,1.46-3.55,1.2-5.47,1.28-3.68.15-7.5-.27-10.63,2.43-.54.46-1.33,1.11-2.24.2-.23-.24-1.07,0-1.54.16-2.2,1-4.76-.18-6.88,1.18-.91-1.26-2.15-.75-3.27-.53a8.09,8.09,0,0,0-1.88.9A7,7,0,0,1,222,87c-1.59.48-3.13.74-4.51,2-.88.83-2.78.58-4.58.87l-2,3.51a22.63,22.63,0,0,0-3-.74c-.71-.08-2,0-2.11.34-1,2.75-4.47,1.28-5.73,3.46-2.19.25-4.38.46-6.55.78a8,8,0,0,0-2.88.86,3.08,3.08,0,0,1-2.55.73c-.84-.19-1.84.25-3.3.49l-2.42-1c-1.59,1-3.19,1.57-4.2,2.68-1.58,1.76-2.75.49-4.34-.43l.19,1.78L171.34,104l-.9-1.54-1.78,2.93c-1.71-.22-3.26.18-4,2.13-1-1.23-1.91-.9-2,.13-.15,1.33-.78,1.51-1.84,2a16.56,16.56,0,0,0-4.86,3.12c-1.38,1.3-3.16,2.35-3.71,4.46a2.47,2.47,0,0,1-1.49,1.55c-1.24.28-2,1.18-3.09,1.66-2.77,1.28-4.86,3.57-7.46,5s-4.57,3.36-7.12,4.62a16.07,16.07,0,0,0-2.47,1.85,3.68,3.68,0,0,1-1.12.77,11.82,11.82,0,0,0-5.91,2.75c-2.5,2-5.08,3.84-7.58,5.81a12.48,12.48,0,0,0-1.46,1.68c-2.12,2.45-4.12,5-6.43,7.26-1,1-2.65,1.32-4,1.91-.42.18-1.18.09-1.31.35-1.06,2.23-3,1.72-4.86,1.78a7,7,0,0,0-5.25,3.13c-1.73,2.47-4.14,4-6.49,5.41-3,1.86-3.19,1.6-4.34,5.84l-1-2.55c-.91,1.48-1.68,2-1.66,3.43,0,1.09-1.07,2.2-1.72,3.38l-1.53-1.25L74,175.47l1.47.41c0,.13,0,.34-.14.39-.63.32-1.8.59-1.81.91,0,1.82-1.57,2.42-2.52,3.5s-2.61,2-2.37,4c0,.24-.46.52-.68.8-1.06,1.36-2.11,2.74-3.36,4.36-1-.21-1.93.59-2.42,1.84a6.85,6.85,0,0,1-3.25,3.65,6,6,0,0,0-3,4.15,20.62,20.62,0,0,1-1.82,3.82L51.87,203c.57,2.18-.85,3.58-1.95,4.65-1.73,1.69-2.46,4.17-4.61,5.46a1.1,1.1,0,0,0-.38,1c.47,1.65-.45,2.61-1.46,3.73-1.56,1.72-2.88,3.66-4.32,5.48-.33.42-.73,1-1.16,1.06a6.32,6.32,0,0,0-3.24,1.44c-.29.25-1.09-.13-2.11-.3a22.16,22.16,0,0,0-1.26,3.66c-.27,1.42-.14,2.92-.73,4.52l-1.53-1.85v8.56l-.52-.05.08-.85c-2-.12-2-.1-3.18-1.92-1-1.55-1.93-3.13-2.78-4.75a3.13,3.13,0,0,1,0-1.64c.11-.83.32-1.65.51-2.64-1.57-.35-2.26-1.41-2.85-2.79-1.06-2.48-2.73-4.73-3.52-7.27a17.87,17.87,0,0,1-.31-6.38,22.6,22.6,0,0,1,1.09-5.25,17.2,17.2,0,0,1,1.88-4,68,68,0,0,1,7.7-10.3A11.12,11.12,0,0,0,29.53,188c.28-.95.49-1.31,1.41-1.66,1.26-.48,2.71-1.05,2.69-2.87,0-.22.3-.46.51-.65,1.67-1.57,3.79-2.75,4.41-5.21,4.65-3.53,8-8.39,12.3-12.27,4.1-3.7,7.44-8.13,11.82-11.61,5.33-4.25,10.13-9.16,15.25-13.67,1.22-1.07,2.65-1.75,3.4-3.43.41-.91,1.88-1.33,2.84-2,2.59-1.84,5.15-3.74,7.76-5.56,2.36-1.64,4.8-3.15,7.13-4.83,1.45-1.05,2.68-2.39,4.12-3.44,2-1.49,4.23-2.73,6.2-4.26,2.82-2.2,5.95-3.92,8.82-6,3.55-2.5,7.42-4.34,11-6.68,6.44-4.18,13.17-7.83,19.89-11.51.58-.32,1.13-.7,1.73-1,6-2.71,12.11-5.37,18.13-8.13,2.63-1.21,5.12-2.74,7.76-3.94,6.56-3,13.35-5.37,20.17-7.67,2.12-.71,4.16-1.64,6.27-2.36,1-.33,2-.27,3-.6,2.46-.83,4.89-1.77,7.33-2.68.17-.07.3-.25.48-.3l8.53-2.62c3.21-1,6.37-2.18,9.63-3,4.63-1.12,9.08-3,13.89-3.33a10.29,10.29,0,0,0,1.87-.63c1.23-.35,2.47-.7,3.73-1,2.37-.54,4.75-1,7.13-1.54a9.79,9.79,0,0,1,1.37-.34c4.51-.23,8.79-1.77,13.24-2.35,4-.52,8-.94,12-1.49,1.85-.26,3.65-.9,5.51-1,5.72-.48,11.45-.82,17.18-1.2,3.17-.21,6.43,0,9.49-.72a23.17,23.17,0,0,1,5.76-.79c2.59.06,5.18.23,7.77.29,2.93.07,5.86.08,8.78.09,4.81,0,9.61-.11,14.41.07,3.82.13,7.63.66,11.45.95.92.07,1.86-.15,2.78-.14,3.27.06,6.54.17,9.82.24a19.79,19.79,0,0,1,6.66.89c2,.71,4.26.59,6.41.76,2.9.24,5.8.43,8.7.62a12.7,12.7,0,0,1,5.48,1.73,11.07,11.07,0,0,1,4.31,4.41c1.24,2,3.45,2.72,5.84,3,3.67.41,7.28-.09,10.92-.31,4.39-.26,8.81,0,13.21.17,3.38.12,6.79.75,10.15.57,3.88-.22,7.82-.76,10.81-2.79,1.45-2.89-.59-4.32-1.66-6-.33-.53-1.51-.69-2.31-.72-2-.07-3.95-.14-5.46-1.76-.24-.26-.82-.21-1.25-.28s-1.1,0-1.35-.24c-1.61-1.7-4-1.84-5.79-3a13.7,13.7,0,0,0-10.18-2c-1.66.26-3.08.56-4.43-.71-.9.84-1.67,1.83-2.88.77a.6.6,0,0,0-.54,0c-2.69,2.19-5.57.58-8.38.44l-4-.2-.08-1.45a14.3,14.3,0,0,1-3.11.44,5.36,5.36,0,0,0-4.67,1.89c-1.34-.91-2.51-1.76-3.73-2.53-.37-.23-1.09-.47-1.29-.3-1.34,1.18-2.58-.66-4.13,0-1.1.5-2.84-.54-4.32-.69a35.92,35.92,0,0,0-4,0c-.61-.67-1.23-1.64-1.44-1.55-2.73,1.08-4.92-.46-7.25-1.33-1.47-.55-1.48-.54-2.36.87-.7,1.11-1.44.89-2.48-.76a5.58,5.58,0,0,1-5.31-.67c1-.11,2.17.18,2.21-1.39-1.7-.87-2,.23-2.14,1.45-.38-.2-.78-.39-1.14-.62-.53-.35-1.19-1.15-1.54-1-2.17.77-4.27-.67-6.55.08-1.45.48-3.35-.39-5.22-.68,0-.63-.09-1.35-.15-2.19a13.49,13.49,0,0,1,2.32-.35c1.29.05,2.93-1.39,3.78.8.38-.15.92-.19,1.11-.46a3.61,3.61,0,0,1,3.63-1.51c.36-1.07.7-2.1,1.13-3.37a12.9,12.9,0,0,0,1.94.84c.57.14,1.41.35,1.76.06,1.53-1.25,3.38-.47,5-1,1.66,1.58,3.74.75,5.62.9,1.33.11,2.9.4,4.3-1.64-.34,1.35-.52,2.06-.74,3l2.24.79c-.11.73-.22,1.44-.4,2.64l2.88-1.49c.6.7,1.12,1.78,1.55,1.74,1.94-.17,4.11.44,5.88-1.2-1.46-1.69-4.11,1-5.18-1.63.53-1.09,1.59-.91,2.44-.81,2.42.3,4.81.78,7.22,1.1a12.4,12.4,0,0,0,2.09-.15c1.24,0,2.68-.43,3.66.07a20,20,0,0,0,8,1.83c2,.12,4,.84,6,1.12,1,.15,2.21-.4,3.08,0s1.29,1.62,2.12,2.15a4,4,0,0,0,2.54.53,35.84,35.84,0,0,1,8,.06,13.46,13.46,0,0,0,1.65-.19,3.66,3.66,0,0,1,1.85.08,4.93,4.93,0,0,0,5-.11c.83-.41,1.7-1,2.64.25.25.33,1.92.09,2.89-.75,2-1.76,4.28-3,7.08-1.45a3.84,3.84,0,0,0,1.64.32,7,7,0,0,0,1.28-.17c.33-.93.41-2.14.93-2.37a3.34,3.34,0,0,1,2.64.28,3.19,3.19,0,0,0,2.64.3,27.87,27.87,0,0,1,3.05-.26c1.82-.24,3.63-.52,4.18-2.31,2.25.26,4.38.39,6.46.78a43,43,0,0,0,10.38.69c.41,0,.79-.42,1.4-.76-2.16-1.62-4.59.85-6.35-1.06,1.78-2.36,4.9-2.58,7.63-.69l5.67-.7a7.32,7.32,0,0,1-5.29,2.85c.36.2.72.57,1.08.58,3.09.05,6.18,0,9.25,0,.29-.55.54-1,.92-1.78,1.35,3.22,3.75,4,6.84,3.27L509.21,32c.79-.31,1.11-.56,1.41-.53,1.62.15,3.14.14,4.25-1.39.2-.27.87-.32,1.3-.29,1.11.08,2.27.54,3.09-.7.06-.09.53.13.82.14a5.46,5.46,0,0,0,1.4,0c.43-.08,1.14-.56,1.21-.47,1.82,2.36,4-.06,6.06.44,1.77.43,3.86-.68,5.76-.55,3.87.28,7.77-.1,11.62.73a7.6,7.6,0,0,0,4.26-.28,3.86,3.86,0,0,1,3.87.39l-.9,1.79a11.15,11.15,0,0,0,1.29.15c1.59,0,1.11-1,1-2.06h3.11a3.06,3.06,0,0,0,1.62,3.52c3.12-.22,6.08-2.73,9.24-.55,2-1.48-.89-2.32-.2-3.77l-2.61.88c.15-.62.13-1.05.33-1.25a1.3,1.3,0,0,1,1-.33c1.29.33,2.71,1.34,3.78,1a5.13,5.13,0,0,1,3.85.06c1,.44,2.49-.16,3.76-.3.44-.05,1.15-.31,1.27-.14,1.36,1.87,2.93.12,4.36.29.22.43.42.84.52,1,1.13,0,2.12,0,3.11,0q4.58.13,9.17.31a6.08,6.08,0,0,1,2.44.26c3,1.52,6.13,1.56,9.31,1.71,1.35.06,2.9-.45,3.8,1.19.09.17.65.06,1,.11,3.42.54,7,.39,10.17,2.06,5.05-.12,9.62,2.18,14.62,3.13.46-1.69.75-3.37,2.8-3.69,1.94,1.7-1,3.08-.07,4.87a18.48,18.48,0,0,1,2.47.29c1.36.31,2.68.77,4,1.12,1,.25,1.94.39,2.9.63,3.47.86,7.22.92,10.12,3.48.28.25.64.63.93.6,2.79-.31,5,1.47,7.44,2.16.45.13,1,.39,1.37.27,1.83-.58,3.28-.4,4.23,1.52.13.27.85.26,1.31.37a7.76,7.76,0,0,1,2.16.51,24.6,24.6,0,0,0,8.49,2.83,1.49,1.49,0,0,1,.79.27c1.66,1.82,4.06,2.14,6.09,3.18s3.95,1.61,5.93,2.41c3,1.2,5.84,2.62,8.74,4,5.11,2.41,10.23,4.8,15.31,7.26,2.35,1.15,4.8,2.17,6.77,4.14-.79.94-1.5,1.8-2.36,2.84a12.81,12.81,0,0,0,1.69,1.29c2.72,1.52,5.48,3,8.21,4.48,1.89,1,3.7,2.21,5.62,3.17,1.32.66,2.79,1,4.16,1.58a5.12,5.12,0,0,1,1.55,1c1.42,1.39,2.7,3,4.95,3a1.07,1.07,0,0,1,.75.34c3.38,4.17,8.52,5.72,12.76,8.6a37.93,37.93,0,0,1,3.92,3.61,5,5,0,0,0,3.19,1.59,3.23,3.23,0,0,1,1.62,1c.78.69,1.46,1.48,2.22,2.19s1.41,1.26,2.14,1.86c1.43,1.17,3.55,1,4.79,2.72a18.57,18.57,0,0,0,3.8,3.71,46.11,46.11,0,0,0,4.06,2.46,9.17,9.17,0,0,1,1.75,1.41c1.61,1.68,3.09,3.5,4.77,5.11a10.62,10.62,0,0,0,3.28,2.14,5.31,5.31,0,0,1,3.14,2.63,4.09,4.09,0,0,0,2.17,2.07c2.47.65,3.87,2.61,5.58,4.13,2,1.8,3.67,4,5.59,5.9,2.58,2.56,5.25,5,7.88,7.51.54.51,1.16.93,1.68,1.45,1,1,2.07,1.86,2.24,3.46a3.8,3.8,0,0,0,2.63,3.08A8.11,8.11,0,0,1,839.1,163a14.13,14.13,0,0,0,4,4.7,41.28,41.28,0,0,1,6.29,6.38c.55.61.59,1.68,1,2.93l1.93,1a11.43,11.43,0,0,0,1.12-.74,2.1,2.1,0,0,1,2.85-.24,3.43,3.43,0,0,1,.57,2.55c-.23,1.88-.63,3.79-3.25,3.69-.26,0-.54.36-.64.43.3.46.84.94.77,1.3s-.67.77-1.13.95-1-.09-1.37.05c-.91.32-1.86,1.32-2.73.5a8.65,8.65,0,0,1-1.34-2.64l-3.95-1.14c.42-1.58-1.55-1-1.88-2.08a6.14,6.14,0,0,0-1.94-2.61c-2.23-2-3.74-4.64-6.19-6.37-.8-.56-1.45-1.47-2.71-1.19a1.58,1.58,0,0,1-1.25-.86c-.78-2.75-3.42-3.31-5.36-4.87a4.71,4.71,0,0,0-.17-1.43c-.75-1.8-1.72-3.53-2.37-5.37a5.11,5.11,0,0,0-3-3.35c-1.77-.58-2-1.81-2.22-3.22,0-.26-.09-.54-.15-.95-.73-.13-1.46-.23-2.18-.4-.44-.1-1.13-.2-1.24-.49-.91-2.28-3.74-3-4.54-5-.71-1.86-2.34-2-3.49-3s-2-2.63-4-2.27a1,1,0,0,1-.71-.42,23.86,23.86,0,0,0-4.25-4.27h2.1c-.7-.24-1.53-1.86-2,.06l-4.66-.28,1.46-1.17c-1.81-2.32-1.81-2.32-3.11-2.27l-1.18-2c-.46.36-1,.56-1.1.9-.51,1.8-1.59,1.37-3,.9l2.14-3.81c-.77-1-1.24-2.33-2.82-2.38a1,1,0,0,1-.69-.45c-1.48-2.73-4.18-3.66-6.87-4.52-1-.31-1-1.15-1.57-1.7-1.21-1.27-2.56-2.41-4-3.73-.37.13-1.19.69-1.49.49-1-.72-2.52-1.58-2.71-2.6-.47-2.43-2.16-2.64-4-3a3.68,3.68,0,0,1-.83-.49c0-.7.08-1.43.14-2.34a5.39,5.39,0,0,0-1.85-.23c-.35.08-.87,1-.77,1.13.77,1,0,1.51-.41,2.14-1.52-.16-1.23-1.37-1.28-2.19-.15-2.64-.65-3.27-3.28-3.68-1.63-.26-3.28-.47-4.89-.82a2,2,0,0,1-1.28-.94c-1.23-3.16-4.24-4.6-6.48-7.13l-1.14,1.43c-1.92-.55-2.19-2.22-2.48-4.16-1.7,1.06-2.66.36-3.74-.89a13.9,13.9,0,0,0-5.14-3.73c-1.55-.66-2.78-2.2-4.58-2.79l.57-1.69c-.3-.14-.47-.3-.62-.28-2.89.45-3.44-.25-3.58-2.88,0-.15-.21-.29-.32-.43l.08.07a9.46,9.46,0,0,0-.57-1c-.09-.12-.32-.14-.67-.28l-1.75,1.85a10.41,10.41,0,0,0-1.47-2,7.47,7.47,0,0,0-2.5-1.34,24,24,0,0,0-3.34-.57c.14-1,.22-1.59.3-2.19l-.5-.17-.86,1.15a1.49,1.49,0,0,1-.55-.12,19.72,19.72,0,0,1-2-1.38c-1.45-1.2-3.57-.9-4.93-2.79-.9-1.23-3.3-1.36-5.16-2-1.42,2.27-3.2-.06-5,0l2.53-1.55-7.16-1.82c0-1.76-1.94-1.12-3-1.68s-2.48-1.57-4,.11c-.28-.8-.44-1.27-.62-1.73a2.35,2.35,0,0,0-2.44-1,1.63,1.63,0,0,1-1.28-.6A3.81,3.81,0,0,0,671,58.58a5,5,0,0,1-2.68,0c-2.56-.93-5.06-2-8-1.6l1-1.57a1.82,1.82,0,0,0-2.05-1.08c-2.15.13-2.29-.18-1.32-2.43a3.72,3.72,0,0,0-1.37-.11c-2.77,1-5.52.4-8.26-.08a3.37,3.37,0,0,1-1.59-.47,5.79,5.79,0,0,0-4.81-1.11c-2.06.3-4-.4-5.91-.76s-3.92.29-5.42-1.33c-1,.83-1.23-.69-1.82-.6-.78.11-1.49.82-2.24.85a3.75,3.75,0,0,1-2.26-.76c-3.27-2.55-7-3.28-11.06-3.32a63.14,63.14,0,0,1-10-1.12c-1.18-.21-2.24-1.17-3.43-1.83a3.37,3.37,0,0,1-4.62.83,3.52,3.52,0,0,0-4.42.57c-.66-1.16-1.2-2.32-2.81-1.6-.44.2-1.07,0-1.62-.11l-3.86-.44a7.87,7.87,0,0,1-2.46-.39c-.56-.28-.87-1.06-1.5-1.91h-3.68c-.38,0-.85-.1-1.12.08-2.79,1.85-5.63.31-8.45.23-1.17,0-2.34.21-3.51.18-1,0-1-.62-.48-1.33l-1.61-.49-5,1.69-3.67-3.44c-1.2,1.11-2.72-.37-4.06-.18-1.81.25-3.19.26-4.48-1.17-1.68,2.11-3.62.62-5.26.07a2.87,2.87,0,0,0-2.78.15,4.17,4.17,0,0,1-2.06.75,102.35,102.35,0,0,1-11.36-.32c-1.34-.15-2.92.32-4.22-.77-.26-.21-1.27.44-1.91.74-.39.18-.88.74-1.07.65-1.32-.66-1.54.7-2.1,1.08-1.15-.46-2.26-1.33-3.17-1.16a10.92,10.92,0,0,0-4.71,2c-1.87,1.51-2,1.67-3.37-.5a.61.61,0,0,0-.2-.2,14.84,14.84,0,0,0-2.36.65c-.42.2-1.48.15-.95,1.25,0,.07-.92.91-1.37.87a32.87,32.87,0,0,0-7.22-.22,2.52,2.52,0,0,1-1.39-.63c-.66-.46-1.25-1-2.12-1.71l-.5,2.53c-3.18.78-3.18.78-5.06-2L477,41.34c-1.9.75-3.45-.78-5.19-1.77-1.67.58-3.17,2.09-5.17.61a2.5,2.5,0,0,0-2.28.76c-.76,1.67-2.07,1.31-3.24,1.31-.54,1.2-1.05,2.32-1.59,3.53.87-.05,1.86,1,2.52-.51a7.87,7.87,0,0,1,2.17.58c1.19.49,2.34,1.09,3.52,1.62.34.15.79.39,1.07.28,1.85-.69,3.95.31,5.46-.2,2.82-1,5.64-.64,8.28-.5,2.39.14,4.79.06,7.18.15,3.3.13,6.61-.06,9.9,0,3.86.11,7.54-1.11,11.33-1.4,1.28-.09,2.59.24,3.89.25,9.43,0,18.85.06,28.28,0,2.59,0,5.19-.45,7.78-.41,2.24,0,4.47.47,6.71.69,3.09.3,6.19.52,9.27.85,5.4.59,10.83.51,16.21,1.56,4.5.88,9.17.95,13.76,1.4a15.76,15.76,0,0,1,1.89.37c1.72.39,3.43.86,5.16,1.19,2.49.46,5,.74,7.49,1.24,4.5.89,9,1.89,13.49,2.85,2.65.56,5.31,1.1,8,1.72a12.94,12.94,0,0,1,2,.93,13.19,13.19,0,0,0,2.83,1.16c2,.39,4.08.37,6,.87s3.84,1.47,5.78,2.17c3.41,1.25,6.79,2.67,10.29,3.64A59.5,59.5,0,0,1,669,69.66c2,.93,4.3,1.23,6.38,2,2.51,1,4.88,2.32,7.4,3.25,6.14,2.28,12.25,4.58,18,7.89,2.49,1.45,5.33,2.3,8,3.51,4,1.83,7.8,4.1,11.92,5.5,3,1,4.88,3.4,7.7,4.48a29.92,29.92,0,0,1,7.15,3.64c2.74,2.05,6,2.86,8.92,4.3a4.9,4.9,0,0,1,1.45,1.2,4.5,4.5,0,0,0,5.31,1.56,2.93,2.93,0,0,0,.83,2.76c2.64,2.92,6.42,4,9.33,6.52,2.74,2.35,5.87,4.24,8.82,6.34,1.87,1.34,3.55,3,6.07,3.51,1.78,3.15,4.74,5.08,8.12,6.61a11.92,11.92,0,0,1,2.85,2.54c.33.32.48.89.85,1.09,3.32,1.77,5.63,4.73,8.44,7.1,2.46,2.09,4.44,4.79,7,6.69s4.17,5,7.09,6.76c2.16,1.33,3.57,3.86,5.41,5.77.69.73,1.7,1.15,2.42,1.86,3.28,3.29,6.37,6.78,9.8,9.89a18.77,18.77,0,0,1,4.29,5.65,2.71,2.71,0,0,0,.87,1.09c2.15,1.29,3,3.64,4.51,5.42s3.1,3.31,4.57,5a25.15,25.15,0,0,1,2.55,3.51c.56.93.44,1,2.37.9-.08,2.66,2.68,4.28,2.56,7a.69.69,0,0,0,.29.47c3.18,2.53,4.61,6.37,7,9.48,2.72,3.51,5.46,7.28,6.13,11.94a39.19,39.19,0,0,1,0,12.23,2,2,0,0,1-.62,1.21,3.1,3.1,0,0,0-1.21,2.68,5,5,0,0,1-2.82,3.89c-1.33.78-2.52,1.54-2.18,3.41a1.62,1.62,0,0,1-.75,1.32c-1.42.67-1.39,2-1.24,3.08a3.44,3.44,0,0,1-1.49,3.63,15.61,15.61,0,0,0-2.44,2.56,1.74,1.74,0,0,0-.38,1c0,2.43,0,4.85,0,7L852,268.2c.36,1.81.66,3.41,1,5a11.56,11.56,0,0,0,.77,2.69c1.93,3.83,4,7.57,5.87,11.43,1.26,2.62,2.22,5.38,3.32,8.07,1.17,2.87,2.32,5.74,3.54,8.59a9.79,9.79,0,0,1,.8,5,18.68,18.68,0,0,0,.1,4.16c.24,2,1.52,4.06-1.05,5.49-.18.1-.24.5-.27.77-.21,2.23,0,4.61-.7,6.65-1,2.91-1.11,6.33-4.32,8.37-1.43.9-1.94,3-2,4.95a58,58,0,0,1-.85,6,.39.39,0,0,1-.11.25c-3.12,2.26-2.06,5.81-2.72,8.82-.12.55,0,1.28-.37,1.62-1.77,1.87-.92,4.14-1.09,6.25-.12,1.35-.16,2.71-.26,4.34l1.63.47c0,.18.13.46.05.53-2.14,1.9-2.07,4.39-1.72,6.86.24,1.68.87,3.31,1.25,5,.35,1.5.64,3,.87,4.54a5,5,0,0,1-.24,1.6c-.07.32-.34.64-.31.93.29,2.39.11,5.05,1.13,7.1.81,1.62.46,3.13.52,4.5.24,5.75,2.54,11.3,1.66,17.13,1.39,2.65.79,5.55,1.06,8.34,0,.28.31.6.23.8-1.46,3.57,2,6.94.37,10.61-.46,1.06.27,2.59.23,3.9a4.27,4.27,0,0,1-5,4.06c-5-.88-10.06-1.07-14.86-2.94-1.07-.42-2.53.19-3.63-.21a12.63,12.63,0,0,0-5.89-.63c-1.53-2.54-4.74-2.57-5.85-5.14l-2.09,1.16c.24,1.07.48,2.12.72,3.17a15.77,15.77,0,0,0-1.19,2c-1.37,3.08-2.54,3.72-5.68,2.87-1.87-.5-3.82,0-5.72-.91-1.66-.77-3.63-.83-5.45-1.27-2.72-.66-5.4-1.48-8.14-2-1.12-.22-2.34.11-3.59-.29l2.67-.61c-1.66-.05-2.37-1.07-2.6-2.87l1.74-2.13c-.93-.67-1.87-1.38-2.85-2-.7-.45-2-.13-1.92-1.54H789.4c.42-.48,1.15-.93,1.18-1.42a8.76,8.76,0,0,0-.39-3.42,10.39,10.39,0,0,1-.61-5.26,33.39,33.39,0,0,0,.29-5,2.34,2.34,0,0,0-.81-1.74c-1.54-.89-.82-3-2.2-3.9-.2-.13-.19-1.06,0-1.29,2.43-2.31,1.64-5.22,1.52-8-.07-1.82-.7-3.73-.32-5.42.46-2.06-.18-3.89-.45-5.76-.16-1.12-1.38-2.07-2.07-3.13a2.05,2.05,0,0,1-.39-1.21,39.27,39.27,0,0,0-.42-8.39c0-.09-.08-.19-.07-.27.15-1.15-2-.82-1.44-2.33a6.63,6.63,0,0,0,.26-2.7c-.09-1.28.46-2.95-1.63-3,.5-4.36-.14-8-4-10.39.33-1.31.67-2.62,1-4.09l-3.16-5.33c.22-.28.7-.89,1.26-1.62-1.77-1.32-2.82-2.89-2.49-5.07-2.41-1.32-4.29-3-4.23-6,0-.43-.49-.87-.74-1.31s-.81-1.07-.85-1.63A3.27,3.27,0,0,0,767.1,329c-.55-.33-.41-.77-.52-1.3-.43-2.19-1.22-4.3-1.8-6.46-.34-1.23-.53-2.5-.79-3.79-.77-.07-1.69.1-2.09-.27a3,3,0,0,1-.62-2.06,41.12,41.12,0,0,1,.42-4.12l-2-.87c.73-2.73-2.1-3.78-2.95-5.9a16.61,16.61,0,0,0-2.87-4.24c-.92-1.07-.9-3.16-3.05-3-1.56-2.94-5-4.2-6.36-7.35-.33-.77-.69-1.84-1.33-2.12-3-1.33-3.5-4.65-5.71-6.66-1.6-1.44-2.22-4-3.23-6-.34-.7-.14-1.73-1.44-1.72-.3,0-.72-.78-.86-1.26a8.27,8.27,0,0,0-3.56-4.76,5.79,5.79,0,0,1-1.53-1.91c-1.27-2.07-2.53-4.06-4.69-5.42-1.1-.69-1.83-1.95-3.1-3.37a33.24,33.24,0,0,0-3.76-1.51c-.92-.27-2.3-.53-2.89-.06a3.16,3.16,0,0,0-.82,3.56c1,2.72,1.75,5.3,4.11,7.51,3,2.84,5.15,6.61,7.64,10,1.81,2.46,3.51,5,5.37,7.43s3.9,4.49,5.11,7.33c.56,1.3,2,2.17,2.89,3.39,3.16,4.61,6.16,9.34,9.36,13.93,1.77,2.54,3.65,5,4.75,7.91a15,15,0,0,0,2.27,3.2,8.14,8.14,0,0,1,.81,1.14c2.14,4.45,4.53,8.81,6.28,13.41.92,2.42,2.89,4.45,2.86,7.24,2.07,1.4,1.68,4.18,3.29,5.87a3.35,3.35,0,0,1,1,1.95c.09,2.53,1.36,4.57,2.38,6.76a46.25,46.25,0,0,1,1.74,5.34c.59,1.78,1.15,3.58,1.81,5.34,1,2.5,2,5,3,7.47a24.64,24.64,0,0,1,.75,2.71,22.65,22.65,0,0,0,.9,3.54,9.4,9.4,0,0,1,1,4.62,4.74,4.74,0,0,0,.24,1.66c.72,2.72,1.56,5.4,2.18,8.14.69,3,1.2,6.07,1.74,9.11.19,1,.25,2.06.39,3.09s.29,2.19.46,3.28c.14.92.34,1.83.46,2.76.27,2.05.46,4.12.77,6.16.2,1.26.58,2.5.9,3.82l1.42-.25c0,.24.14.44.08.57a13.74,13.74,0,0,0-1.3,3.39,19,19,0,0,0,.22,6.12c.6,2.33.68,4.33-.87,6.25a1.42,1.42,0,0,0-.36.76c-.12,1.56-.29,2.94-2.24,3.45-1.42.38-2.58,1.13-4.29.66-4.49-1.23-9.18-1.6-13.61-3.23-2-.72-4.22-.63-6.34-.92-.55-.08-1.09-.23-1.64-.34h0c.19-.24.4-.7.57-.69,1.67.13,3.33.34,5.14.54-.72-2.11-2.62-.74-3.78-1.76V435.4l-5,.22c.38.62.72,1.17,1.05,1.69-1.92.78-1.92.78-3.43-2.33,1.18-.13,2.29-.3,3.42-.38s1.76-.9,1.42-1.67c-.75-1.68.31-3.09.28-4.87l-1.66-.23c-.56-2.54-3.35-3.13-5.12-5,.24-1.37.64-2.78-.61-4.13a2.78,2.78,0,0,1-.3-2.59c.92-1.62.31-3.13,0-4.6a37,37,0,0,1-.7-11.64c.33-2.93-.22-6-.32-8.95-.05-1.45-.08-2.81-1.22-4-.35-.35-.18-1.23-.2-1.87,0-2.15-.18-4.31-.1-6.46a39.09,39.09,0,0,1,.69-4.34c-1.8-.57-1.75-1.94-1.52-3.68.34-2.45.38-5-1.1-7.22a9.09,9.09,0,0,1-.66-1.86,82.81,82.81,0,0,0-3-8.07c-1-2.05-2.14-4-2.09-6.34a2.07,2.07,0,0,0-.72-1.49c-2.45-1.73-2.2-4.15-1.86-6.62,0-.18,0-.37-.41-.41a17.61,17.61,0,0,1-1.55-2.94,31.3,31.3,0,0,1-.68-3.89c-.2-1.13.1-2.61-1.81-2.6-.18,0-.41-.36-.53-.6s0-.6-.19-.8c-2.17-2.76-2.06-6.27-3-9.48-2.59-.05-3.78-1.92-4.94-3.73-1.48-2.35-2.39-5.06-4.56-7-1.16-1-2.06-2.42-3.34-3.24a3.29,3.29,0,0,1-1.36-2.25c-.34-1.16-.87-2.26-1.31-3.39a2,2,0,0,0-1.93-1.39c-.45,0-1.23-.06-1.29-.25-.6-2.09-3-2.45-3.73-4.32-1.89.64-2.76,1.9-2.34,3.74.29,1.31.71,2.48.1,3.84-.23.49.08,1.31.32,1.91,1.73,4.25,3.35,8.56,5.31,12.7,1.85,3.89,4.16,7.56,6.13,11.4,1.83,3.57,3.54,7.2,5.19,10.86,2.15,4.78,4.35,9.54,6.23,14.43q3.09,8,5.63,16.24c1.57,5.12,2.87,10.34,4.11,15.55.57,2.37.54,4.88,1,7.26.8,3.74.63,7.62,2,11.28a20.32,20.32,0,0,1,.61,4.45l1.38,11.18c.1.83.25,1.67.3,2.51.2,3.27.36,6.55.55,9.82.1,1.78.26,3.55.34,5.33.05,1.11-.15,2.25,0,3.34.36,2.5-1.29,4-2.62,5.7a2,2,0,0,1-3,.43,14.62,14.62,0,0,0-7-2.37,26.84,26.84,0,0,1-5-1c-1.2-.32-2.1-.77-2.11-2.49,0-1-.9-2,0-3.28l-2.56-.55,1.46-1.19c-1.84-.67-1-3.55-3.67-3.77.21-1,.55-1.9-.81-2.73-1.2-.73-1.83-2.41-2.68-3.7a1,1,0,0,1-.13-.81c1-2.07-.24-4-.27-6,0-2.17-.16-4.33-.15-6.5,0-1.18-.42-2.47.64-3.49a.77.77,0,0,0,.08-.76c-1.42-1.72,0-3.64-.42-5.4-.32-1.33-.7-2.65-1.11-4s-1.33-2.76-.71-4.42c.19-.53-.14-1.24-.19-1.87-.07-.9-.12-1.8-.17-2.7,0-.44.15-1.06-.08-1.3-1.28-1.34-1-2.92-1-4.53a8,8,0,0,0-.92-3.41c-.63-1.29-2-2.32-1-4a.69.69,0,0,0-.05-.54,47.57,47.57,0,0,1-2.65-4.71,29.31,29.31,0,0,1-1.47-5.08c-.17-.75,0-1.5-1.2-1.41a5.24,5.24,0,0,1-.53-1.71c-.67-3.34-1.32-6.68-3.29-9.57a1.08,1.08,0,0,1-.25-.5c0-3.24-1.53-5.94-3-8.67a16.71,16.71,0,0,0-.86-1.75,31.81,31.81,0,0,1-3.92-7.07c-.7-1.9-2.71-3.27-3.94-5-1.47-2.11-2.73-4.36-4.07-6.55-.23-.38-.3-1-.62-1.17-1.65-.72-2.27-2.16-2.85-3.68a3.13,3.13,0,0,0-.86-1.43c-2.19-1.58-3.59-3.85-5.07-6l-2.92,1.27a1.55,1.55,0,0,0-.45.32c-.89.86-1.79,5.6-1.31,6.79,2,5,3.91,9.94,5.94,14.89.92,2.23,2.06,4.38,3.07,6.58,3.33,7.17,7,14.17,9.6,21.69,2,6,4.62,11.73,6.73,17.67,1.06,3,1.64,6.17,2.4,9.27.43,1.73.64,3.53,1.21,5.21,1.13,3.35,1.38,6.8,1.79,10.27.48,4.1,1.74,8.09,2.35,12.18.48,3.25.52,6.56.68,9.85.2,4.23.33,8.47.48,12.7.09,2.86-2,4.54-3.59,6.48A1.66,1.66,0,0,1,699,445a69.35,69.35,0,0,0-13.93-4.24c-.25-.06-.44-.35-1-.81l2.25-1.73L684.62,436l2-1.67c-1.15-1.65-1.63-3.86-4.31-3.84-.5,0-1.23-.69-1.46-1.23-.68-1.65-1.59-3.23-1.67-5.1a2.93,2.93,0,0,0-.67-1.44,3.69,3.69,0,0,1-.35-4.41c.67-1.13,1-2.2-.3-3.22a2,2,0,0,1-.58-1.5c.22-2.64-1.18-4.84-1.85-7.23a7.1,7.1,0,0,1-.63-2.67c.52-3.14-.31-6.17-.52-9.24,0-.63.13-1.27.08-1.9a3.23,3.23,0,0,0-.44-1.83,6.34,6.34,0,0,1-1.47-4.56c0-1.82-.25-3.52-1.74-4.81a1.25,1.25,0,0,1-.35-.91c.28-3.73-1.71-6.77-2.94-10a41.17,41.17,0,0,1-2.24-6.61,10.23,10.23,0,0,0-2.58-5.18c-1.2-1.32-2.34-2.65-2.25-4.68,0-.63-.64-1.3-1-1.94-.67-1.12-1.34-2.24-2.06-3.33a13.54,13.54,0,0,0-1.39-1.64c-.19-.21-.6-.27-.68-.49-1.44-3.92-5.35-6-7.13-9.71-.29-.6-1.09-1-1.68-1.41s-1.27-.55-1.34-.94c-.37-1.85-2.11-1.94-3.22-2.83-1.64-1.32-3.09-.83-4.37.19s-2.24,2.24-1.53,4.13c.46,1.22.65,2.54,1,3.8.11.43.21,1,.51,1.22,1.8,1.08,2.22,3,3,4.69,2.16,5,4.33,9.92,6.41,14.92,1.33,3.18,2.45,6.46,3.75,9.65,1.16,2.87,2.57,5.65,3.66,8.55,2.21,5.88,4.54,11.74,6.33,17.76,1.89,6.36,3.44,12.86,3.51,19.59a6.17,6.17,0,0,0,.42,2.77c1.56,2.84.93,5.88,1.09,8.86.11,2.16.6,4.35.37,6.47-.33,3,.46,6.49-2.81,8.61-.42.28-.62.9-1,1.48a4.58,4.58,0,0,0-1.49-.4c-.34,0-.65.47-1,.73l-6.57-2.61,1-.93c-1.55-.67-1.55-.67-1.78,1L647,440.74c.88-1.14-.12-1.79-.74-2.53s-1.46-1.63-2.19-2.44c-.17-.19-.5-.48-.46-.57,1.13-2.16-1-3-1.9-4.08-1.31-1.61-2.6-3-2.19-5.26a5.25,5.25,0,0,0-.53-2.1,12.52,12.52,0,0,1-.39-5.94,18,18,0,0,0-.47-5.77,18.3,18.3,0,0,0-1.1-3c-.11-.34-.21-.89,0-1.07,1.09-1.12.26-2.3.16-3.44-.19-2.33-.48-4.66-.74-7A22.72,22.72,0,0,0,636,394a5.94,5.94,0,0,1-.15-3.86,1.7,1.7,0,0,0-.42-1.53,4,4,0,0,1-1.46-4c.29-2.28-1-3.81-2-5.36-1.21-1.89-2.63-3.57-2.78-5.95,0-.47-.5-.94-.84-1.34-.68-.79-1.37-1.45-1.19-2.71.08-.57-.56-1.74-1-1.82-2.63-.47-2.8-3-4.09-4.53a32.12,32.12,0,0,0-4.32-4.62c-.65-.53-1.26-.78-1.51-1.71a2.16,2.16,0,0,0-2.74-1.7l.5-1.68c-.66-.18-1.2-.32-1.72-.48-4.18-1.27-5.47-.1-7.2,4a6.24,6.24,0,0,0,.28,5.15c2.44,5.3,4.86,10.6,7.22,15.93,1.06,2.39,1.91,4.87,2.92,7.29,1.84,4.4,3.77,8.76,5.58,13.17,2,4.86,4.07,9.73,5.09,14.9a71.73,71.73,0,0,1,1.73,17.3c0,.81.22,1.65.19,2.47a16.69,16.69,0,0,1-.4,3c-.18.84-1.19,1.62,0,2.5.14.1.05.76-.13,1a32.28,32.28,0,0,1-2.75,3.19c-1.65,1.62-3.5,1.8-5.69.91a44.71,44.71,0,0,0-5.44-1.4,8.26,8.26,0,0,1-1.43-.72l2-.94-6.36-2.94,1.41-.65c-.36-2.08-3,0-3.47-2l1.33-.85a6.47,6.47,0,0,0-2.86-2.9,4,4,0,0,1-2-2.58c-.57-2.11-1.3-4.14-1-6.37,0-.28.21-.65.09-.82-1.61-2.35-.4-5.33-1.83-7.76a9.94,9.94,0,0,1-.7-3.29,16,16,0,0,0-.38-2.43,22.47,22.47,0,0,1-1.1-6.23,4.36,4.36,0,0,0-.62-1.87,11.17,11.17,0,0,1-1.78-8.18c0-.21-.22-.49-.38-.84l-1.49.35c-3.07-8.65-3.25-9.55-9.44-14.08.14-.48.28-1,.49-1.67a42.9,42.9,0,0,0-4.86-1.59c-1.68-.34-5.76,2.47-6.13,4.17-.67,3.14-1.23,6.08,1.16,9.12,1.71,2.18,2.22,5.28,3.38,7.92.79,1.8,1.82,3.49,2.64,5.28a142.24,142.24,0,0,1,6.59,16c2.2,2.15,1.4,5.32,2.63,7.84.61,1.23.23,2.94.3,4.5l-2,.92a13.24,13.24,0,0,0,1.15,1.66c1.6,1.65,1.61,2.56.06,4.15A10.44,10.44,0,0,0,588,437l2-.57-4.22,4.86.78.43-2.69,2.72-11.69-3.64,1.68-.62c-.07-1.74-1.74-2.62-2.18-4.27-.63-2.4-.85-2.34-.47-4.36-.8-.17-2.08-.09-2.32-.55-.92-1.78-3.11-2.89-3-5.21.11-1.81-.69-3.15-1.6-4.64a35.25,35.25,0,0,1-2.32-5.7,39.19,39.19,0,0,0-5-8.45,3.17,3.17,0,0,0-1.19-1.17c-1.12-.39-2-.85-1.46-2.37a3.67,3.67,0,0,1-3.43-1.78c-1.35-2-2.53-2-4.49-.8a19,19,0,0,0-4.17,3.58c-2.68,3-2.88,6.17-.54,9.29,1.24,1.65,2,3.59,3.93,4.77a4.78,4.78,0,0,1,1.6,3c.2,1.09.42,1.82,1.53,2.2.27.1.37.79.46,1.22.31,1.47.51,3,.87,4.41s.89,2.85,1.34,4.29a41,41,0,0,1-1.78,4,9.67,9.67,0,0,1-9.09,5,3.87,3.87,0,0,0-2.72,1,5.32,5.32,0,0,1-5.54.65c-1.36-.57-2.72-1.18-4.06-1.81a2.79,2.79,0,0,1-.84-.66c1.29-2.14-1.56-2.12-1.93-3.59-.29-1.11-.67-2,0-2.9-1.22-1.26-2.3-2.28-1.46-4.22.27-.64-.58-1.76-1.07-3a6,6,0,0,0,.64-2.2c-.13-3.72,1.49-7.06,2.1-10.62.21-1.21,1.15-2.3,1.88-3.69A15,15,0,0,0,522,406a5.59,5.59,0,0,1-1.34-1c-2.45-2.59-5.4-1.7-8.07.9s-4.35,6-5.73,9.66c.22.48.51,1.15.88,2a4,4,0,0,0-2.09,3.71c-.16,2.32-.19,4.68-1.62,6.7.49,3.44-2.4,6.06-2.28,9.42a3.2,3.2,0,0,1-.41,1.57,3.12,3.12,0,0,0-.22,3.22l-1.32-1c-.64.74-.05,2.92-2.21,1.91a.67.67,0,0,0-.54.12c-2.58,2.18-4.88,1-7.22-.51a26.3,26.3,0,0,0-3.14-1.45c1.79-.33,1.82-1.79,1.05-2.77-1-1.27-.92-2.59-1.08-4-.19-1.66-.25-3.32-1.5-4.72a5,5,0,0,1-.71-2.58c-.31-2.49,0-5-.5-7.53-.26-1.53.92-3.32,1.42-4.89a37.82,37.82,0,0,1-.19-4.63c.3-3.92.77-7.83,1.15-11.74a3.44,3.44,0,0,0-1.36-2.93c-1.12-1.09-2.09-2.34-3.38-3.8-1.27.22-3.34-2.09-4.52.54l-3.24-.55c-1.37,1.24-2.56,2.29-3.73,3.37a1.43,1.43,0,0,0-.47.68,44.48,44.48,0,0,0-1,5.34q-.71,7.69-1.15,15.43c-.23,3.92-.26,7.86-.38,12-2.68,1.39-1.93,4-1.52,6.45-1.72,1.57-1.89,3-.59,5.34l-3.17,1.75c.12-.57.25-1.13.32-1.7,0,0-.65-.25-.71-.17a3.15,3.15,0,0,0-.72,1.39C460.67,441.91,461.16,442.27,461.41,442.62ZM412.33,34.74l-2-.62-.21.73,1.74.51c1.29,1.07,3.78,1.56,3.94.8l-1-1.78ZM818.85,270.6c.81-2,.12-3.77-1-5.38-.75-1.15-2-2.05-2.49-3.28a6.57,6.57,0,0,0-3.68-3.65,4.51,4.51,0,0,1-2.67-2.58,9.52,9.52,0,0,0-3.15-4.73c-1.3-.93-2-2.9-3.37-3.51a4.24,4.24,0,0,1-2.46-3.57c-.25-2.06-1.24-3.78-1.74-5.7a2.92,2.92,0,0,1-.12-.83c.1-2.13-1.47-3.29-3-3.88-.9-.36-1.05-.63-1.22-1.36a4.86,4.86,0,0,0-4-4.06c-.41-.08-.76-.49-1.14-.75-1.16-.79-1.53-2.19-2.36-3.17s-2.28-1.47-3.45-2.19c-.14-.1-.2-.32-.34-.45-.83-.8-1.67-1.59-2.72-2.57a7,7,0,0,0-2.32-4.87c-1.79-1.78-1.3-4.45-2.77-6.33-.16-.21,0-.71.08-1.07.28-1.85-.17-2.63-1.89-3.33-.86-.36-1.71-.76-2.62-1.16.31-.47.58-.85.56-.83l-1.43-4.1a3.74,3.74,0,0,1-1.29-.31c-3.42-2.19-6.55-4.86-10.51-6.16-.42-.14-.73-.83-.94-1.33a2.85,2.85,0,0,0-3-2c-1.68,0-3.67.18-4.84-1.32-1.8-2.33-4.58-3-6.85-4.5-.86-.56-1.62-1.27-2.46-1.87-1.05-.74-2.16-1.42-3.22-2.17-1.8-1.25-3.57-2.54-5.51-3.92.73-2.06-1.33-2.75-2.24-4.08a13.84,13.84,0,0,0-5.29-4.22c-1.07-.56-2-1.39-3.07-1.93a13.82,13.82,0,0,1-4.33-3.58c-.53-.62-1.18-2-2.72-1.32-.35.16-1.15-.53-1.67-.92-1.58-1.21-2.76-2.94-4.76-3.63a1.9,1.9,0,0,1-1-1c-1-2.45-2.78-2.38-4.83-1.64-.52.19-1.07.3-1.57.44-1.77-1.58-3.62-2.86-6-2.95-2.92-.12-5.35-1.61-8-2.59-.26-.1-.7-.28-.7-.42-.07-2.47-2.44-2.28-3.76-3.27s-2.69-1.44-3.6-2.52c-1.42-1.69-3.17-1.94-5.12-2a13.32,13.32,0,0,1-2-.58,6.45,6.45,0,0,1-3.59-2.75c-.27-.34-.69-.77-1.06-.79a10,10,0,0,1-6.72-3,1.18,1.18,0,0,0-.85-.31c-3.28.46-6.56,1-9.36-1.5,0-.05-.2,0-.28,0a13.42,13.42,0,0,0-6-1.17,1.69,1.69,0,0,1-1.21-.54c-.79-1.15-1.86-1-3-1a6.79,6.79,0,0,1-6.51-4.07,16.74,16.74,0,0,1-2.74,0c-2-.33-4-.8-6-1.23-.55-.12-1.07-.38-1.61-.51-3.53-.87-7.07-1.71-10.6-2.59a2,2,0,0,1-1.2-.63,1.58,1.58,0,0,0-2.44-.44,4.73,4.73,0,0,1-4.51.19,4.24,4.24,0,0,0-5,1.47,21.36,21.36,0,0,0,2.49,2c1.78,1,3.6,2.49,5.5,2.63A14,14,0,0,1,613,126c2.15,1.5,5,2.07,7.48,3,1.31.5,2.64,1,4,1.43q3.55,1.24,7.12,2.46a5.78,5.78,0,0,0,2.09.61,8.34,8.34,0,0,1,4.48,1.24,32.33,32.33,0,0,0,5,1.66c.62.2,1.26.37,1.86.63,1.64.7,3.26,1.43,4.88,2.18,3.24,1.49,6.44,3,9.69,4.49,1.87.83,3.89,1.34,5.71,2.26,3.81,1.91,7.8,3.39,11.58,5.44,3.12,1.7,6.58,2.75,9.57,4.87a92.19,92.19,0,0,0,8.27,4.74c1.62.91,3.28,1.76,4.86,2.73s3.27,2.16,4.87,3.3a21,21,0,0,1,1.91,1.62c.4.37.69.9,1.15,1.16,3.07,1.75,6.31,3.24,9.24,5.19a109,109,0,0,1,15.89,12.23,70.49,70.49,0,0,0,6.47,5.14,102.76,102.76,0,0,1,8.38,7.05c1.76,1.67,3.69,3.17,5.51,4.78,1.62,1.43,3.24,2.86,4.77,4.37,2.93,2.88,5.86,5.77,8.7,8.74,4,4.15,7.88,8.36,11.77,12.58,2.11,2.29,3.87,5,6.26,6.9,2.56,2.07,3.82,5.06,6.09,7.28.71.68.81,2,1.56,2.62a15.21,15.21,0,0,1,3.52,4.42c2.06,3.34,4.36,6.55,6.68,9.71,1.49,2,2.78,4.17,4.31,6.18,2.88,3.79,5,8.13,7.49,12.24.19.32.36.66.56,1,2,3.06,4.1,6,5.83,9.21,2.38,4.35,4.45,8.86,6.64,13.31a23.59,23.59,0,0,1,1.67,3.57c1.43,4.87,4.49,9,6,13.88.9,2.9,3.12,5.3,3.75,8.4a1.88,1.88,0,0,0,.79,1.12c1.95,1.21,1.9,3.3,2,5.11.16,2.18.79,3.78,2.83,4.46a8,8,0,0,0-.5,1.64c1.78,1,1.32,3.14,2.43,4.44l1.35-.58,1.61,2.62c.8-1.53.51-3.43,2.94-3.53-2.95-2.15-1.2-4.51-1.1-6.91l-1.45.27c-1.22-1.7-2.45-3.42-3.65-5.11l-2.33,1c-.1-1.27-.18-2.23-.26-3.18l-1.86-.35c-.11-1.34-.47-2.42.52-3.41.15-.15-.48-1.08-.95-2.08l-.76,2.93c-.56-.5-1.17-.84-1.13-1,.4-1.86-.14-4.2,2.22-4.77a30,30,0,0,1-.72-3.17,6.25,6.25,0,0,0-1.34-3.13c-.65-.89-2.7-.32-2.38-2.25l2.6-2.07-2-1.64.68-1.22c-1.68-1.49-2-3.67-2.65-5.64-.42-1.3-.75-2.54-2-3.26a3.45,3.45,0,0,1-1.56-2.5c-.51-2.35-1.1-4.68-1.73-7a2,2,0,0,0-.86-1.17,8,8,0,0,1-3.81-5.38c-.18-1.19-.22-2.9-1-3.39-1.79-1.19-1.63-2.81-1.72-3.89ZM686.76,103.7a50.62,50.62,0,0,0-6.08-.31,7.78,7.78,0,0,1-4.58-1.06,17.21,17.21,0,0,0-2.5-1.26,13.81,13.81,0,0,1-5.87-3.64c-.39-.37-1.21-.91-1.42-.76-1.4,1-2.51-.43-3.68-.34-3.12.24-5.23-1.48-7.39-3.25-.72-.58-1.46-1.14-2.25-1.76-1.41,1.11-2.74,1.45-4.22.43-.42-.29-1.1-.19-1.65-.33a10.12,10.12,0,0,1-3.13-1,7.73,7.73,0,0,0-6.15-1.26,2.1,2.1,0,0,1-.8-.15l-.41-1.81c-1.89-.66-3.61-.74-5.29.62a4.41,4.41,0,0,0-4.66-3.37,12.26,12.26,0,0,1-2.18-.18c-1.83-.34-4,.28-5-1.59-1.19.31-2.72,1-3,.73-1.57-1.89-4-.61-5.69-1.76-.28-.19-1.06-.16-1.19,0-.76,1.21-1.52.24-2.19,0s-1-.93-1.58-1c-1.65-.29-3.33-.41-5-.55-3-.26-6.07-.29-8.87-1.71a8.28,8.28,0,0,0-2.58-1c-2.87-.32-5.77-.47-8.66-.7-2.35-.18-4.69-.31-7-.58a11.05,11.05,0,0,1-2.41-.76,16.87,16.87,0,0,1-2.32-.84c-2-1-4.25-.37-6.37-.71s-4.18,0-6.28,0c-1.09,0-2.26-.46-3.26-.2a14.11,14.11,0,0,1-8.24.08,4.22,4.22,0,0,0-1.36-.23,39.59,39.59,0,0,0-9.59,1.42c2.33,2.76,2.33,2.75,5.4,3a2.55,2.55,0,0,1,1.35.33c1.76,1.47,4.37.09,6,1.83.07.08.39,0,.53-.08,1-.61,2-.09,3,0,1.53.14,3,.82,4.67.26a3.14,3.14,0,0,1,2.32.67,8.4,8.4,0,0,0,4.67,1.37c4.57.25,9.12.75,13.67,1.23,2.89.3,5.76.78,8.64,1.13,3.74.45,7.5.69,11.21,1.29,3.94.65,7.85,1.54,11.73,2.48,6.16,1.48,12.31,3,18.43,4.66q8.94,2.41,17.81,5.1c3.87,1.18,7.63,2.66,11.48,3.88s7.29,3.21,11,4.64c4.25,1.63,8.23,4,12.46,5.65,5.23,2.11,10.27,4.59,15.3,7.09,2.64,1.32,5.47,2.24,8.16,3.45,2.13,1,4.22,2,6.25,3.19,1.46.82,2.72,2,4.2,2.77,2,1,3.84,2.19,5.73,3.27,5.86,3.34,11.45,7.17,17.12,10.84,2.41,1.56,4.77,3.21,7.17,4.78s5.23,2.46,6.72,4.51c2.31,3.15,6.14,4.18,8.41,7.18a15.26,15.26,0,0,0,2.65,2.41c3.77,3,7.57,6.06,11.34,9.11.93.75,1.77,1.63,2.66,2.44,2.57,2.31,4.81,5,7.68,7a3.89,3.89,0,0,1,.54.65c1.6,1.71,3,3.71,4.87,5.06,4.54,3.29,7.8,7.82,11.74,11.68,4.4,4.3,8.13,9.3,12.08,14,3.67,4.41,7.26,8.89,10.87,13.35.41.51.68,1.14,1.06,1.67.66.9,1.35,1.78,2,2.66l2.25,2.83c.8,1,1.62,2,2.39,3.06.9,1.2,1.82,2.38,2.63,3.64.66,1,1.11,2.14,1.75,3.15a41.28,41.28,0,0,0,3,4.39c1.57,1.91,2.2,4.65,4.95,5.57.4.13.56,1,.81,1.57.39.83.59,2.19,1.18,2.4,1.59.55,1.82,1.66,2.28,3,.75,2.16,1.53,2.27,3.48,1-.09-.92-1.14-1.89.18-2.85a3.33,3.33,0,0,0,.61.35,5.46,5.46,0,0,0,.92.16c-.39-3.42-.39-3.42-1.83-3.55v1.06a5.42,5.42,0,0,1-1.39-3.28c.13-3.24.24-3.23-2.53-3.88.13-1.06.27-2.11.46-3.54l-3.51.59-3.6-3c.87-2.48.75-2.68-1.09-4-.94-.7-2.71-.89-2.18-2.82,0-.11-.46-.38-.73-.55l-2.66-1.64.66-1.7a13.79,13.79,0,0,1-2.07-3,4.52,4.52,0,0,0-2.8-3.17c1.07-1.39.11-2.32-.51-3.09a11,11,0,0,1-2.53-8.49c.08-.72.09-1.54-1-1.69a1.08,1.08,0,0,1-.72-.75c-.05-2-1.63-2.8-3-3.8-.86-.63-1.75-1.18-1.5-2.71a3,3,0,0,0-1.77-2.89c-1.08-.62-2.51-1.53-2.76-2.56-.61-2.46-2.69-2.53-4.31-3.39-.28-.14-.78-.24-.8-.41a2.46,2.46,0,0,0-2.2-1.91c-1.93-.41-1.66-1.67-1.46-2.7a12.07,12.07,0,0,1-2.31-1.42c-2.15-2.11-3.84-4.75-6.87-5.83-.2-.07-.29-.42-.44-.63a31.37,31.37,0,0,0-5.22-5.86c-1-.86-1.7-2.36-3.38-2.25l-7.88-8.29c-.37-.39-.82-1.1-1.16-1.06-2.73.33-3.88-2.14-5.82-3.18-.55-.3-1.25-.76-1.41-1.3-.7-2.33-2.49-3.26-4.53-4.08a4.28,4.28,0,0,1-2.48-2.46c-.64-1.55-1.54-3.18-3.44-3.81a3.27,3.27,0,0,1-1.78-1.27c-1.42-2.67-4.22-3.55-6.59-4.34s-3.37-3-5.17-4.25c-.91-.66-1.31-2.12-2.74-2.48-.44-.1-.69-.8-1.12-1.08-1.38-.9-2.12-3.38-4.54-1.86a1.4,1.4,0,0,1-1.19-.5c-.34-2.11-2.44-1.72-3.6-2.64-.55-.43-1.2-.74-1.79-1.12-2.71-1.75-5.16-3.92-8.27-5a2.75,2.75,0,0,1-.79-.64c-1.67-1.48-2.87-3.51-5.16-4.29a6.11,6.11,0,0,1-2.14-1.33c-1.2-1.13-2.42-2.32-2.13-4.2l1.65-.59c-1-2-2.82-1.75-4.4-2-.19-.76-.35-1.42-.51-2.12-.65.44-1.1,1-1.56,1a9.56,9.56,0,0,1-5.14-1.56c-2.16-1.32-4.19-2.72-6.8-2.89a3.77,3.77,0,0,1-1.4-.16,13.54,13.54,0,0,0-8-1c-.16,0-.34-.13-.58-.23Zm-31.87,68.94-.35.63c1,1.6,1.83,3.36,3.63,4.43a2.78,2.78,0,0,1,1.28,1.63,4.89,4.89,0,0,0,3.91,4c2.67.61,4.08,2.32,5.69,4.15a12.16,12.16,0,0,0,3.78,2.85,16.88,16.88,0,0,1,6.2,4.53,5.39,5.39,0,0,0,1.52,1.18c2,1.22,4.1,2.3,6.05,3.61s3.91,3,5.95,4.38,4.38,2.57,6.51,3.95a31.93,31.93,0,0,1,2.77,2.33c1.86,1.52,3.29,3.45,5.65,4.54,2.18,1,3.9,3,5.85,4.57a26.39,26.39,0,0,0,2.35,1.54c.7.44,1.43.84,2.1,1.31,3.6,2.55,6.32,6.2,10.42,8.11a2.29,2.29,0,0,1,.76.81c1.3,1.92,3.91,2.6,4.71,5,3,1.65,4.87,4.53,7.21,6.87,3.6,3.62,7.15,7.33,10.4,11.27,1.65,2,3.78,3.51,5.1,5.86a46.41,46.41,0,0,0,4.55,6.07c2.13,2.69,4.43,5.26,6.46,8,1.86,2.54,3.45,5.29,5.18,7.93,3,4.62,6,9.23,9,13.87.54.84.87,1.83,1.42,2.68,1.33,2,2.74,4,4.08,6.08a32.37,32.37,0,0,1,2.3,3.83q3,6.38,5.88,12.81c2.06,4.62,4.06,9.27,6.06,13.91.3.69.4,1.47.72,2.14,1.77,3.81,3.88,7.48,4.73,11.66a1.83,1.83,0,0,0,.5,1c2.49,1.93,1.5,5.51,3.66,7.64.42.41.24,1.45.32,2.2a12.51,12.51,0,0,0,.22,1.95,61.64,61.64,0,0,1,2.34,8.8c.28,2.17,1.3,4.16,1.77,6.33A113.45,113.45,0,0,1,818,391.85a9.27,9.27,0,0,0,.81,3.56c1.18,2.25,1.29,4.68,1.67,7.08.43,2.66.84,5.33,1.28,8,0,.08.34.12,0,0l3.38-2.2c-1.08-1.7-1-1.68-.45-3.16a6.68,6.68,0,0,0,.28-1.85c.23-3.27-.6-6.56.22-9.82a2.63,2.63,0,0,0-.14-1.38c-.85-2.56.23-5.43-1.29-7.89-.1-.16.15-.51.15-.76,0-1-.1-2-.17-3-.12-2-1.34-3.69-1.64-5.74-.44-3-.79-2.94-2.7-4.5-.15-2.47,1-5.36-2.51-6.36.2-.58.38-1.08.58-1.67-1-.29-2.18-.13-2-1.62a1.87,1.87,0,0,0-.61-1.52c-1.37-.89-.72-1.75-.3-2.84.5-1.27.23-3.1,1.05-3.92,1.54-1.53.3-2.78.15-4.09-.1-.86-.88-1.62-1.25-2.47-.47-1.08-1.24-2.12-.23-3.39.26-.32,0-1.07,0-1.61a25.06,25.06,0,0,0-1.81-6.35c-1.07-2.55-3.8-4.58-3-7.85,0-.12-.17-.37-.31-.44-1.93-.86-1.77-2.88-2.5-4.41-.92-2-2-3.85-3-5.76-.46-.89-.76-2.12-1.51-2.55a6.9,6.9,0,0,1-3.82-4.83c-.08-.41-.57-.73-.8-1.14-.68-1.15-1.32-2.33-2.22-3.92-1.4-.05-2.13-1.18-2-3.12a9.74,9.74,0,0,0-.36-3.08c-.58-2.12-.86-4.5-3.85-4.82-.53-.06-1.46-1.08-1.37-1.47.47-2.11-1.06-3.5-1.61-5.22-.68-2.12-1.4-4.24-2.12-6.39-2.38-.54-3.47-1-4.14-2.42-1.34-2.87-3.72-4.35-6.35-5.35-1.47-1.92,1.27-4.48-1.14-6.24l-.95,1.35c-.06-1.06.17-2.09-.2-2.82-.75-1.48-1.2-2.88-.42-4.42-3.31-1.27-3.31-1.27-4.61-7-1.16-1-2.08-1.69-2.93-2.48-.69-.62-1.19-1.67-2-1.93-2.17-.71-2.93-3-4.81-4a3.7,3.7,0,0,1-1.29-1.47c-1.29-2.4-4.46-3-5.39-5.76,0-.08-.34-.05-.52-.08a9.43,9.43,0,0,1-5.46-3.55,32.13,32.13,0,0,0-6.63-6.5,1.5,1.5,0,0,1-.39-1,4.38,4.38,0,0,0-1.85-3.28c-1.24-1.15-3-2-3-4.1,0-.35-.53-.8-.92-1a2,2,0,0,1-1.1-2.56,4.15,4.15,0,0,0-.19-1.57l-.5-.28-1.21,1.84c-.7-2-1.21-3.91-3.64-4.2-.31,0-.57-.45-.86-.69a33.73,33.73,0,0,0-4.82-4c-2-1.15-3.72-3-6.31-3-1.55-.05-3.21-.16-4-2-.18-.42-.86-.68-1.36-.92a15.39,15.39,0,0,1-4.82-3.45,3.13,3.13,0,0,0-1.75-.59c-2.12-.28-4.19-.56-5.31-2.81a4.29,4.29,0,0,0-1.42-1.35,30.84,30.84,0,0,1-5.41-5.12c-1-1.19-2.31-2.44-4.21-2.37a1.51,1.51,0,0,1-1.66-1.16c-.16-.45-1-.66-1.5-1s-1.29-.72-1.92-1.11-1.51-1-2.29-1.44c-2.88-1.59-6.33-2-9-4a7.44,7.44,0,0,0-4.83-1.56,24.55,24.55,0,0,1-3.89-.52C657.58,173.15,656.24,172.88,654.89,172.64Zm-417,46.79c1-.35,1.9-1,2.34-.76a2.13,2.13,0,0,0,2.34-.14c1.49-.85,3-1.73,4.47-2.52,2.31-1.21,4.73-2.2,7-3.54,5.32-3.18,10.54-6.52,15.81-9.79,2.38-1.47,4.79-2.88,7.13-4.41,2.19-1.43,4.21-3.16,6.48-4.45,2.43-1.38,4.63-2.74,6.2-5.27a4.42,4.42,0,0,0,.81-3.88c-.89-2.76-3.67-3.74-5.6-5.54-.16-.15-.55-.1-.83-.09-2.83.1-5.65.22-8,2.11a3,3,0,0,1-1.47.74c-1.82.13-3.85-.33-4.67,2.08,0,.13-.51.17-.78.19-3.16.15-5.23,3.13-8.42,3.23-.3,0-.59.43-.86.7-1.67,1.68-4.37,2.15-5.36,4.61-2.78.67-4.1,3.76-7,4.22a2,2,0,0,0-1.21,1.13c-.62,1.66-2.08,1.94-3.61,2.23A2.82,2.82,0,0,1,241,203a15.08,15.08,0,0,0-5.23,5c-1.54,2.51-2.2,4.63-.84,7.15A42.79,42.79,0,0,0,237.92,219.43Zm394,.34c1-.49,2.11-1,3.17-1.56,2.61-1.43,5.1-3,5.38-6.39,1.22-.86.13-1.62-.31-2a43.51,43.51,0,0,0-4.48-3.74c-1.24-.92-3.27-1.37-3.8-2.54-1-2.31-3.14-2.64-4.86-3.72a19.83,19.83,0,0,1-3.07-2,17.12,17.12,0,0,0-4.55-2.58,65.92,65.92,0,0,1-6.72-4.18c-.45-.29-.69-.91-1.15-1.17-2.91-1.61-5.87-3.14-8.78-4.76-1.85-1-3.68-2.1-5.45-3.26s-3.26-3-5.72-3c-.29,0-.6-.38-.88-.61-2.21-1.81-4.22-1.79-6.11.1-1.41,1.42-2.79,2.87-4.35,4.48a6.59,6.59,0,0,1,.48,1,15.46,15.46,0,0,0,6.36,8.3c3.58,2.33,7,4.89,10.55,7.27,4.12,2.76,8.27,5.46,12.44,8.14,2.73,1.76,5.51,3.47,8.29,5.15,2.53,1.53,5.06,3.07,7.67,4.47C627.88,218.1,629.86,218.85,631.92,219.77Zm26.13-15.31a35.06,35.06,0,0,1-3.24,4.28,2.5,2.5,0,0,0-.81,2.71c.68,1.68.56,3.73,2.31,5,.62.44.85,1.43,1.27,2.15a7.59,7.59,0,0,0,1,1.64c1.78,1.78,3.66,3.48,5.45,5.25,5,5,10.06,9.87,15,14.93,3.7,3.82,7.23,7.82,10.8,11.77a78.53,78.53,0,0,1,5.68,6.58,12.69,12.69,0,0,0,5.24,3.93,4.25,4.25,0,0,0,3.46,0,4.82,4.82,0,0,0,2.27-3.08c.25-2.32.79-4.91-1.31-6.86a13,13,0,0,1-3.07-4.54,3.07,3.07,0,0,0-.74-.84c-1.24-1.19-2.54-2.32-3.7-3.58A4.92,4.92,0,0,1,697,242a5,5,0,0,0-.35-1.27c-1.21-1.88-2.09-4.36-3.82-5.41-1.93-1.18-1.4-4.58-4.43-4.36-.11,0-.29-.45-.37-.7a8.64,8.64,0,0,0-2.83-3.56c-2.11-1.89-4.4-3.55-6.43-5.6-1.24-1.25-1.9-3-3.4-3.87a3.85,3.85,0,0,1-2.16-3.3c-2.36-2.1-4.43-4.08-6.65-5.89-2-1.63-4-3.39-6.93-3.14A4.7,4.7,0,0,1,658.05,204.46Zm13,65.65c.36-2.14.33-2.23-1.17-3.64-.4-.37-1.07-.78-1.08-1.18,0-1.55-1.07-2.26-2.09-3.12a11.22,11.22,0,0,1-1.46-2,15.67,15.67,0,0,1-1.46-1.86c-.65-1.23-2.37-1.3-2.85-2.28-1.38-2.81-3.75-4.56-6.06-6.37A16.84,16.84,0,0,1,652,247a10.19,10.19,0,0,0-4.06-3.27c-2.27-.79-3.9-2.4-5.87-3.54-1-.55-2.27-1-2.63-1.86-.63-1.48-2-1.14-3-1.81-1.16-.84-2.41-.54-3.46.58-.27.29-1,.12-1.72.17.1,3.26-.43,6.34,1.48,9.31a61.89,61.89,0,0,0,8.13,9.67c4.06,4.18,8.44,8,12.51,12.22,4.65,4.75,9.09,9.71,13.67,14.54,2.82,3,5.74,5.87,8.21,8.39a22,22,0,0,1,3.93-.12c2.55.42,4.1-.46,4.94-3,.23-.7.55-1.36.91-2.25a9.84,9.84,0,0,1-2.62-1.28c-.65-.61-.82-1.69-1.4-2.4a21.08,21.08,0,0,0-2.13-1.85c-.62-.57-1.44-1.12-1.71-1.84a16.33,16.33,0,0,0-6.06-8.29A.79.79,0,0,1,671,270.11ZM333.87,172.82a2.79,2.79,0,0,1-2.87,2.86,1.86,1.86,0,0,0-1.39.69c-.51,1.18-1.45.83-2.34,1-2.62.55-5.19,1.3-7.77,2-.14,0-.26.26-.35.42a3.16,3.16,0,0,1-2.92,1.38c-1.59,0-2.9.43-3.69,2a1.57,1.57,0,0,1-2.36.7c-.56-.38-.79-1.46-1.7-1a9.66,9.66,0,0,0-2,1.53c-.35.28-.69.58-1.06.9-.72-1.07-2-1.35-2-.12,0,1.8-1,2-2.21,2.6-1.95,1-2.94,4.26-2,6q1.75,3.27,3.45,6.58c.73,1.42,2.66,2.24,3.74,1.21,1.81-1.73,4.17-1.55,6.2-1.88,3.44-.54,6.53-2.27,10-2.56.4,0,.73-.57,1.14-.78,1.17-.6,2.42-1.73,3.52-1.6,3,.35,5.12-1.15,7.33-2.69a6.4,6.4,0,0,1,1.88-.47c2-.56,3.91-1.35,5.85-2s3-2.06,4.52-3a26.25,26.25,0,0,0,4.22-3.49,1.4,1.4,0,0,0,.28-1,33.72,33.72,0,0,0-.8-6.07,7.37,7.37,0,0,1-.22-3.87c-1.56-1.36-2.86-3.07-5.12-1.57-.17.11-.55-.08-.83-.13-1.5-.24-3.07.66-4.57-.31-.23-.15-.92.2-1.27.48-1.26,1-2.47,2.07-3.71,3.13ZM231.07,310.15c1-1.46,1.73-3.2,3-4.13,4.08-2.94,7.31-6.73,10.84-10.21q4.23-4.17,8.42-8.37c2.91-2.92,6-5.72,8.62-8.84a32.77,32.77,0,0,1,5.09-5.44c.45-.34.95-1.22.8-1.64-.47-1.34-.47-3-2.07-3.74s-2.59-2.11-3.37-4c-1,.24-2.09.45-3.12.76-.71.21-1.55,1-2.05.77-2-.79-2.89.46-4,1.61a19.91,19.91,0,0,1-2.69,2c-.26.19-.8.39-.78.52.27,2-1.56,1.37-2.31,2-.38,1-.73,2.37-1.51,2.7-1.8.74-2.71,2.2-3.84,3.53-2.31,2.7-4.6,5.43-7,8.08-1.07,1.2-2.29,2.26-3.42,3.4s-2.45,2.55-3.67,3.83a10.81,10.81,0,0,1-1.75,1.82c-2.86,1.84-4.25,5.17-7.14,6.95-.33,1.91-1.76,2.91-3.54,3.87l3,4.23c0,.15-.07.43-.13.7-.35,1.84-.25,1.91,1.39,2.18a12,12,0,0,0,4.95,0,3.74,3.74,0,0,1,1.37.05c2,.29,2.25.07,2.71-2a6.34,6.34,0,0,1,.31-.83ZM195.66,288.6c3.77.28,5.51-2.07,7.37-3.72,3.41-3,6.28-6.64,9.38-10,4-4.32,8-8.66,12-12.95,3.27-3.48,6.6-6.9,9.88-10.36,1.27-1.34,2.5-2.72,3.71-4.11,3-3.43,2.91-6.29-.22-9.63a22.54,22.54,0,0,1-1.46-1.91c-1.46.08-2.84.14-4.22.23-1.68.11-2.17,1.55-2.94,2.68a.48.48,0,0,1-.22.18,18.39,18.39,0,0,0-5.76,3.57c-2.74,2.33-5.81,4.26-8,7.26a1.8,1.8,0,0,1-.87.68c-1.63.44-2.26,1.86-3.15,3s-1.72,2.11-2.62,3.12c-2.34,2.64-4.71,5.26-7.06,7.89-.17.19-.38.48-.35.69.35,2.77-1.74,4.36-3.35,5.78a8.94,8.94,0,0,0-2.43,3.56,9.21,9.21,0,0,0-.28,2.71c-.1,1.4-.92,1.6-1.87,1.15-.25,2.1.94,4.27-1.52,5.89ZM295.3,164.43c1.68-.34,3.28-.62,4.86-1,4.79-1.17,8.89-4.11,13.8-5.17,4-.86,7.72-2.85,11.59-4.29a34.22,34.22,0,0,1,6.4-2.1c2.55-.39,4.31-2.09,6.46-3.13a9.36,9.36,0,0,0,2.57-2.39c1.59-1.79.47-3.72.19-5.69l-4.9-2.3.35-1.13c-.91.11-1.95.52-2.26.21-1.34-1.34-2.69-.8-4.19-.54a23.35,23.35,0,0,1-3.61-.23c-.79,0-1.91,0-2.3.42a4.56,4.56,0,0,1-4.08,1.49c-3.54-.33-6.38,1.57-9.49,2.52-3.28,1-6.22,3-9.71,3.6a2.83,2.83,0,0,0-1.86,1.18c-1.17,2.32-4.52,2.09-5.34,4.72-2-.16-2,1.7-2.65,2.78l-.36.13c-2,.58-4.54.6-4.47,3.77,0,.23-.75.48-.75.48.52,1.44.82,2.45,1.26,3.39a5.88,5.88,0,0,0,1.16,1.49c.46.46,1.19.73,1.46,1.26a2.53,2.53,0,0,0,2.73,1.51,29.09,29.09,0,0,1,3.35.2c.06,0,.13-.13.2-.19Zm307.1-10.67c1,1.23,2.08,2.49,3.14,3.75a7.1,7.1,0,0,0,1.11,1.26c4.4,3.17,8.8,6.33,13.24,9.43,1.89,1.32,3.9,2.49,5.85,3.72,3.64,2.28,7.32,4.5,10.91,6.87s6.57,5.61,11.18,6c.31,0,.6.41.89.63.74.56,1.52,1.08,2.22,1.69s1.52,1.4,2.47.84a16.77,16.77,0,0,0,2.51-2.21c-.94-1.86,1.08-2,1.91-3.09a18.87,18.87,0,0,1-2.62-4.78c-.08-.26-.6-.47-1-.54-1.64-.32-2.27-2.68-4.33-2.15-.09,0-.37-.27-.35-.39.18-1.59-1.55-1.7-2.09-2.73s-.67-2.26-2.25-1.89c-1-1.67-1.92-3.39-3.86-4.18-1.24-3.18-4.16-4.73-6.59-6.74a13.18,13.18,0,0,0-2.41-1.28c-1.74-.85-4.1-1.26-5.07-2.65-1.31-1.86-3.79-1.61-4.79-3.51-1.89.37-2.76-1.12-4-2.07s-2.83-1.77-4.25-2.67c-2.34-1.47-4.93-1.09-7.43-.85A3.29,3.29,0,0,0,604,149C603.59,150.55,603,152.07,602.4,153.76Zm-34.58,46.75a11.18,11.18,0,0,1,1.77-1.83c2.26-1.42,2.52-4,3.58-6.07a1.16,1.16,0,0,0-.1-1.07c-1.07-1.28-2.2-2.51-3.34-3.73-.29-.3-.92-.38-1.05-.71-.86-2.18-2.48-2.74-4.64-2.46a4.84,4.84,0,0,1-3.71-.9,25.82,25.82,0,0,0-4.73-2.37c-.72-.33-1.54-.47-2.28-.78-1.59-.66-3.19-2-4.74-1.91a3.46,3.46,0,0,1-3.36-1.25,1.22,1.22,0,0,0-1.71-.43,1.09,1.09,0,0,1-1-.08c-2.54-2.41-6.29-1.63-9.06-3.45-.29-.18-.88.14-1.34.19s-1,.19-1.32,0c-1.4-.92-2.7-.71-4.24-.25-1.18.36-2.37.29-3,1.66-.47,1.1-1.38,2.09-1.55,3.21a10,10,0,0,0,5.25,9.72c1.86.91,3.73,1.79,5.63,2.59,1.53.65,3.43.81,4.61,1.83,1.76,1.53,3.78,1.83,5.83,2.39a12.39,12.39,0,0,1,3.29,1.32c3.14,2,6.72,2.84,10.21,3.75a14.57,14.57,0,0,0,6.57,0C565.11,199.55,566.48,199.29,567.82,200.51ZM449.35,135.27v-.1a4.9,4.9,0,0,1,1.37-.06c2,.48,3.64-.38,5.1-1.64a10.28,10.28,0,0,1,2.94-2c3.08-1.25,3.41-5.36.81-7.56-.72-.61-1.5-1.14-2.23-1.73a28.88,28.88,0,0,0-2.6-2.11c-.82-.51-2-1.29-2.68-1-1.48.61-1.77-1.17-2.91-1a7.8,7.8,0,0,1-2.81,0c-3.93-1-7.85-.34-11.78-.12a14.41,14.41,0,0,1-1.61,0,14.51,14.51,0,0,0-3.64-.18c-2.33.47-4.77-.07-7,1.41a8,8,0,0,1-5,1.22,16.39,16.39,0,0,0-5.55.13c-2,.39-4.48,3-4.48,5,0,1.09,0,2.45.6,3.22,2.18,2.84,5.76,3.61,8.67,5.38.15.09.37,0,.56.06a92.29,92.29,0,0,0,9.17,1.06C433.94,135.38,441.64,135.28,449.35,135.27Zm-98.77,20c-.61,2.1.88,3.76,1.91,5s2.48,2,3.66,3.15a.29.29,0,0,0,.27,0c1.08-.67,2.28-.29,3.38-.45,4.61-.66,9-2.22,13.73-2.68,3.16-.32,6.25-1.51,9.4-1.67a27.26,27.26,0,0,0,7.89-1.83,7.46,7.46,0,0,1,2.15-.54c4.48-.19,7.33-2.87,9.7-6.27a3.09,3.09,0,0,0,.53-1.84,10.47,10.47,0,0,0-3.46-7.25c-.82-.75-2.46-1.46-3.34-1.14-2.69,1-5.39.24-8,.58a5.1,5.1,0,0,0-2.4.6c-1.81,1.44-3.87,1.6-6,1.71A24.15,24.15,0,0,0,373,144c-2.72.95-5.65,1.35-8.34,2.37a13.77,13.77,0,0,1-7.85.94,1.84,1.84,0,0,0-1.62.69,3.06,3.06,0,0,1-2.52,2,3,3,0,0,0-1.32.87C352,152.48,350.05,153.66,350.58,155.29Zm229.45,13c.81-.75,1.34-1.68,1.9-1.7,1.79-.07,2.51-1.31,3-2.58A27.29,27.29,0,0,0,586,158.8a4.4,4.4,0,0,0-.82-2.83c-.95-1.74-2.62-2.28-4-3.37a33.47,33.47,0,0,0-8.07-5c-2.29-1-4.21-2.95-7-2.73a1.13,1.13,0,0,1-.87-.56,2.69,2.69,0,0,0-3.13-1.49c-1.86.59-2.69-.69-3.95-1.28a38.23,38.23,0,0,0-4.34-1.48c-.07,0-.1-.19-.17-.22a5.12,5.12,0,0,0-1.52-.6c-2.33-.15-4.66-.2-7-.33-.84,0-1.67-.27-2.5-.38-1.92-.25-3.83-.53-5.75-.68a2.07,2.07,0,0,0-1.51.66c-1.64,2-3.63,3.88-2.1,6.87a1.23,1.23,0,0,1,.11.8c1.26,1,2.12,1.77,3,2.45a10.33,10.33,0,0,0,1.86,1.23c1.68.76,3.39,1.44,5.08,2.15,5.26,2.21,10.53,4.4,15.78,6.63,1.53.65,3,1.67,4.55,2a24.26,24.26,0,0,1,7,2.77c1.28.76,2.59,2,3.91,2C577,165.58,578.53,166.81,580,168.26ZM423.19,157.19c-1.59-.2-3.35-.22-4.31,1.05a6.13,6.13,0,0,1-2,1.73,7.22,7.22,0,0,0-1.94,1.88c-.68.89-1.15,2-1.85,2.81a2.94,2.94,0,0,0-.22,3.87,15.61,15.61,0,0,0,3.88,3.69,8.48,8.48,0,0,0,5.19,1.68c1.83-.08,3.75.29,5.64-.18.44-.11,1-.33,1.33-.18,2.86,1.29,5.88.77,8.81.79,3.43,0,6.86-.49,10.29.1.23,0,.51-.17.78-.26a37.13,37.13,0,0,0,6.45-2.3,7.64,7.64,0,0,0,4.25-5.24c1.27-5-1.53-8.37-5.6-9.26-.8-.17-2,.34-2.45-.07-1.85-1.57-4-.64-5.92-1-.72-.13-1.41-.43-2.11-.63-.52-.16-1.19-.56-1.55-.38-2.15,1.09-4.37.54-6.59.61-3.48.13-7.06-.43-10.43,1A6.69,6.69,0,0,1,423.19,157.19Zm-14.6,34.93a15.79,15.79,0,0,0-.76-8.85,5.81,5.81,0,0,0-7.06-4.11,7.11,7.11,0,0,1-2.43.37c-3-.37-5.93.25-8.89.26a1.81,1.81,0,0,0-1.25.57c-1.15,1.42-2.74,1.38-4.33,1.55-2.44.26-5.08-.17-7.12,1.78-.19.18-.56.37-.75.3-1.63-.6-2.65.79-3.65,1.43-1.22.77-2.08,1.77-3.7,1.2a1.35,1.35,0,0,0-1.2.57c-.71,1.89-2.7,2.43-3.84,3.84a3.22,3.22,0,0,0-.68,1.13,22.24,22.24,0,0,0-1,4.36c-.06,1,.16,2.68.82,3,1.73.95,3.54,2.2,5.69,1.94,3.62-.43,7.27-.78,10.82-1.53,4.93-1,10-1.3,14.86-2.69,2.18-.63,4.5-.8,6.74-1.22a27.08,27.08,0,0,0,3.78-.93,7.72,7.72,0,0,0,2.07-1.34C407.4,193.29,408,192.69,408.59,192.12ZM614.3,265.3c-1.3,1.51-2.88,1.21-4.45.77a2.59,2.59,0,0,0-3.1,1.34,12.65,12.65,0,0,0-1.11,2.28c-.81,2.11-.31,3.4,1.58,4.79a7.15,7.15,0,0,1,1.56,1.88c.29.45.3,1.13.65,1.52,1.69,1.86,3.43,3.68,5.2,5.47,4.1,4.14,8.23,8.26,12.34,12.4s8,8.1,12,12.13a20.27,20.27,0,0,0,2.8,2.35c2.31,1.59,5.11.67,6.4-2a25.28,25.28,0,0,1,1.7-2.67c-1.2-2.23-2.49-4.44-3.61-6.74s-3.31-3.91-5.21-5.44a5.87,5.87,0,0,0-.32-2.18,68.8,68.8,0,0,0-4.26-6.16,76.47,76.47,0,0,0-5.55-6.25,81.32,81.32,0,0,0-6.88-6.38C621,270,617.75,267.81,614.3,265.3ZM457.48,202.17c-1-.38-2.25-.56-2.36-1-.41-1.85-2.22-2.52-3-4a2,2,0,0,0-2-1.12c-3.21-.19-6.42-.38-9.63-.62a10.9,10.9,0,0,0-2.45-.38c-4.38.79-9-.08-13.18,2a2.11,2.11,0,0,1-1.1.22A8.94,8.94,0,0,0,418,199c-1.79,1.1-2.89,2.16-2.82,4.4.11,3.55.16,4,2.15,7a12.43,12.43,0,0,1,.73,1.46c1.37-.59,2.28.07,3.2.75a5.87,5.87,0,0,0,1.62,1,40.57,40.57,0,0,0,4.64,1.08,28.47,28.47,0,0,0,5,.55c3,0,6-.73,9-.36,2.27.28,4.47.16,6.7.25,2.89.12,5.16-1.41,7.53-2.64a3.33,3.33,0,0,0,1.54-1.95C457.89,207.84,459.08,205,457.48,202.17ZM292.91,214.86c-1,1.64-2.06,2.58-3.94,2.44-.69-.05-1.45.64-2.17,1-.56.3-1.1,1-1.64.95-2.55-.06-4,1.72-5.65,3.16a15.2,15.2,0,0,1-4.95,3,30.82,30.82,0,0,0-5.11,2.82c-.25.15-.37.56-.49.87a9.54,9.54,0,0,1-4.26,4.45,8.35,8.35,0,0,0-2.81,3,21.23,21.23,0,0,0-1.57,2.63,4,4,0,0,0-.56,2.28c.48,1.89,1.24,3.71,1.95,5.71a19.71,19.71,0,0,0,3.61,0c3.48-.69,6.95-1.46,10-3.38a4.35,4.35,0,0,1,1.53-.71c2.37-.41,4.14-1.91,6-3.19,1.54-1,3-2.26,4.61-3.15,2.84-1.56,5.93-2.64,8.43-4.83,1.36-1.2,3.09-2,4.42-3.22,2.73-2.54,3.48-6,4.25-9.53-2.1-1.27-2.54-4-5.07-5C297.67,216.55,295.34,215.38,292.91,214.86Zm289.73,79.2-1.57,2.83c-1.72,3.13-1.45,5,1,7.49.46.46.84,1,1.27,1.49,2.29,2.57,4.51,5.21,6.9,7.69,2.86,3,5.85,5.83,8.79,8.73,2.47,2.42,4.92,4.87,7.45,7.24,1.21,1.13,2.58,2.1,3.86,3.15,2.73,2.23,5.13,4.8,9.39,2.81a6.65,6.65,0,0,0,3.76-6.56c-.31-2.33-2-3.35-3.7-4.5-.58-.4-1.45-.92-1.51-1.46-.15-1.49-.76-2.18-2.25-2.27-.31,0-.61-.54-.87-.86-.39-.48-.7-1-1.1-1.46-.79-.89-2-1.44-2-2.93,0-.34-.49-.77-.85-1-3.7-2.55-6-6.51-9.44-9.33-2.37-1.94-4.36-4.34-6.57-6.47a7.07,7.07,0,0,0-1.7-.91c-1.19-.62-2.82-1-3.49-1.94-1.2-1.76-3-2.07-4.68-3.06l-1.85,2ZM511,191.8a22.81,22.81,0,0,1-2.05-1.81c-2.28-2.64-4.94-4.48-8.61-4.47a3.46,3.46,0,0,1-2.1-.67c-2.72-2.37-6.07-2.58-9.38-3a5.89,5.89,0,0,1-2.66-.56c-1.89-1.42-4.12-1.71-6.27-2.2a7.88,7.88,0,0,0-3.8,0,6.38,6.38,0,0,1-4.09.23,3.1,3.1,0,0,0-2.42,0,27.22,27.22,0,0,0-4,4.18c-1.69,2.19-.41,8.79,1.39,10.35a5.16,5.16,0,0,0,1.85,1.15c4.13,1.15,8.24,2.38,12.43,3.23,3.38.69,6.86.88,10.29,1.31.65.08,1.27.35,1.92.39,3,.18,5.76,1.91,8.93,1.31a8,8,0,0,0,5.31-3.43c.2-.28-.18-1-.32-1.61l2.14-.1ZM283.91,293.64a3.48,3.48,0,0,1-3.07,3.2A7,7,0,0,0,278,298a51.66,51.66,0,0,0-5.89,5,13,13,0,0,1-3.49,3.09,1.62,1.62,0,0,0-.77.8c-.58,1.62-2,2.45-3.13,3.53a42.92,42.92,0,0,0-3.79,4.18c-1.07,1.29-2.7,2.2-3,4.07-3.68,1.6-5.84,4.93-8.56,7.6-1.67,1.65-1.79,2.91-.63,4.49l1.59-1.37c-.91,4.71-.45,4.91,3.39,5.69a6.7,6.7,0,0,0,6.22-1.38c2.56-2.28,5.26-4.41,7.92-6.59a28.07,28.07,0,0,0,2.56-2c1.77-1.84,3.36-3.86,5.17-5.67,3.41-3.41,7.17-6.46,10.24-10.24a77.85,77.85,0,0,1,6-6.16c.92-.9,1.33-2,.63-3a17.07,17.07,0,0,1-2.56-4.49c-.12-.39-1-.59-1.59-.79-.41-.14-.89-.1-1.31-.22C286.05,294.32,285.07,294,283.91,293.64Zm75.45-85.18c-2.88.11-5.7-.69-8.16.74-1.49.87-3.56.36-4.62,2.1-.08.14-.54.07-.82.06-3.16-.1-5.38,2.29-8.19,3.17-2,.61-3.54,2.36-5.44,3.29a34.29,34.29,0,0,0-9.22,6.73c-3.22,3.22-3.17,3.27-3,7.68,0,.36.07.72,0,.45l3.52,3c1.5-.91,3.46-.35,5.32-.67,3.39-.58,6.32-2.25,9.58-3s6.57-2,9.85-3.08a1,1,0,0,1,.55,0c2,.36,3.47-.88,4.93-1.7,3.13-1.74,6-4,9.1-6,.41-2.45,1.13-5.1.16-7.91l-1.62.2Zm37.26-91.39c1-1.35,2.07-2.64,3-4,1.25-1.92.94-2.84-1-4a13.07,13.07,0,0,1-1.95-1.54,7.81,7.81,0,0,0-5.25-2c-3.27-.14-6.54-.44-9.82-.55-1.5-.06-3.4-.37-4.43.38-2.13,1.56-4.57,1.25-6.64,1.23-3.79,0-6.86,2.36-10.51,2.32-.09,0-.17.08-.25.14-2.69,2-6.22,2.41-8.72,4.85-.76.74-1.83,1.1-1.82,2.39l-2.05-.76c-.07,1.59-.16,2.89-.16,4.19,0,.45.16,1.2.41,1.29,2,.65,3.21,3,5.6,2.87,1.57-.08,3.15-.28,4.72-.44,2.24-.23,4.49-.34,6.7-.73,4.69-.82,9.36-1.82,14-2.66,2.77-.51,5.75-.4,8.31-1.39C389.92,117.37,393.14,117.59,396.62,117.07Zm86.26,24.51c-.76,1.12-1.53,1-2.57.29a5.07,5.07,0,0,0-5.5.1,23,23,0,0,0-3.85,3.61,1.74,1.74,0,0,0-.51,1c-.12,1.45-.13,2.91-.26,4.36a2.48,2.48,0,0,0,1.53,2.72,36.22,36.22,0,0,0,7.73,3.14c5.52,1.32,10.93,3.07,16.68,3.12a7.6,7.6,0,0,1,1.36.36c1.09.22,2.18.43,3.29.58a31.26,31.26,0,0,1,3.37.33c3.22.74,6.39,1.25,9.39-.73.11-.07.33-.13.4-.08,1.82,1.39,3-.41,4.69-.71,0-1.33,0-2.55,0-3.77-.06-2.59-.29-2.84-2.7-3.53a3.85,3.85,0,0,1-1.84-.91,4.46,4.46,0,0,0-3.4-1.93c-.62,0-1.63-.1-1.78-.45-.6-1.39-1.86-1.24-2.92-1.62a6.11,6.11,0,0,1-2.14-1.17,4.77,4.77,0,0,0-3.58-1.36c-1.65,0-3.52.46-4.58-1.48-.07-.12-.34-.15-.52-.17-2.53-.18-5.12-.76-7.58-.41A5.63,5.63,0,0,1,482.88,141.58ZM408.53,90.24c.87,1,2,1.74,2.41,2.78a3.07,3.07,0,0,0,3.2,2.16,4.14,4.14,0,0,1,1.32.42,15.72,15.72,0,0,0,6.34,1.07c4.12-.23,8.25-.48,12.37-.46a159.21,159.21,0,0,1,17.49.62c3.25.37,5.92-.53,8.69-1.62.58-.22,1-1.29,1.17-2a21.67,21.67,0,0,0,.16-3.33,3.29,3.29,0,0,0-3.47-3.35,6.34,6.34,0,0,1-4.77-2,5.85,5.85,0,0,0-2-1.33,15.53,15.53,0,0,0-3.88-.66q-9.74-.42-19.47-.66a6.34,6.34,0,0,0-3.52.69c-1.64,1.1-3.38,1-5.14,1.09s-3.4-.36-4.68,1.18c-2.1-.71-3.06,1.31-4.6,2-.4.17-.93,1.11-.83,1.24C410.37,89.32,408.48,89.51,408.53,90.24Zm188.15,38.49a22.77,22.77,0,0,1,.32-3.62,2.9,2.9,0,0,0-1.85-3.82,8.84,8.84,0,0,1-2.22-2.07,16.57,16.57,0,0,0-1.82-2,32.69,32.69,0,0,0-12-5.83c-.43-.1-1.14-.24-1.2-.49-.48-1.88-2.13-1.57-3.41-2a57.64,57.64,0,0,1-5.5-1.75c-2-.83-3.79-2-6-2.12a11.88,11.88,0,0,1-5.53-1.5,5,5,0,0,0-2.69-.26c-2.91.15-5.8.43-8.71.59-1.29.06-1.5.17-1,1,.38.63.88,1.2,1.43,1.93l-1,.87.74,3c1.16.77,2.14,1.48,3.17,2.1a68.89,68.89,0,0,0,6.27,3.63,22.22,22.22,0,0,0,5.57,1.73c1.91.33,3.19,1.78,5.16,2.19,3.14.66,6,2.39,9.09,3.55,4.37,1.66,8.81,3.14,13.16,4.85C591.32,129.76,593.91,130.14,596.68,128.73Zm8,119.05a9.79,9.79,0,0,1,2.76-1.84c2.83-.75,4-1.72,4.49-4.16a2,2,0,0,0-.75-2.16c-1.31-1.18-2.36-2.64-3.65-3.84-1.52-1.41-2.62-3.45-5.12-3.44v-2.11c-1.4,0-2.54-.2-3.12-1.62-.22-.52-1-.85-1.56-1.18-2.13-1.23-4.3-2.41-6.44-3.65-1.19-.7-2.28-1.58-3.5-2.21s-2.61-.71-3.54-1.5c-3.78-3.2-8.37-4.26-13-5.2-.4-.08-1,.67-1.47,1,.85.82.16,1.16-.4,1.74-1.85,1.92-2.57,4.81-1.19,6.24.88.91,1,1.4.53,2.38-.07.15.19.48.32.78l1.78-.51-.47.7c1.21.9,2.41,1.82,3.63,2.7,1,.71,2,1.4,3,2.06,2.5,1.65,5,3.34,7.53,4.9,2.86,1.73,5.9,3.16,8.65,5.05a30.17,30.17,0,0,0,7.91,4.14A32.88,32.88,0,0,1,604.7,247.78ZM553,228.27c-.38-.91-.55-2.34-1.35-3.06a44,44,0,0,0-5.89-4.2c-2.33-1.46-4.9-2.58-7.09-4.22a19.66,19.66,0,0,0-4.56-2.65c-2.24-.89-4.58-1.33-6.81-2.46a23.84,23.84,0,0,0-9.58-2.38,5.58,5.58,0,0,0-5.39,2.76,11.63,11.63,0,0,0-1.53,8.21c1.13,1.17,1.79,1.86,2.47,2.53s1.42,1.91,2.33,2.19a32.17,32.17,0,0,1,6,2.6,65.47,65.47,0,0,0,16.57,5.93c2,.46,4,.57,6,1,1.71.41,3.76.24,4.5-1.24C549.7,231.28,551.85,230.42,553,228.27Zm33.47,51.13c.55-1.23,1.13-2.41,1.61-3.62.36-.93,1-2,.78-2.86a20.2,20.2,0,0,0-2.13-4.78c-.47-.83-1.75-1.37-1.91-2.19-.28-1.43-1.57-1.15-2.24-1.83a32.4,32.4,0,0,0-6.49-5.28,2.82,2.82,0,0,1-1.25-1.42A1.82,1.82,0,0,0,573,256a5.13,5.13,0,0,1-2-.89c-1.77-1.19-3.48-2.48-5.25-3.68a9,9,0,0,0-2.91-1.66,43.69,43.69,0,0,0-6.37-.68c-.79,0-2.1,0-2.32.43-.81,1.6-2.72,1.41-3.68,2.61l-.16,2.17a14.56,14.56,0,0,0-2.08,1.61,1.65,1.65,0,0,0,.17,2.59c4.56,3.52,9,7.26,13.81,10.35,4.28,2.74,8.8,5.14,13.14,7.81C578.8,278.75,582.23,280.11,586.45,279.4ZM494.64,68.27a27,27,0,0,0-11.46,1.46c-2.7,1-3.87,2-4.15,4.81a2.44,2.44,0,0,0,1.37,2.67,26,26,0,0,0,8,3.32c3.86.73,7.66,1.75,11.52,2.48,6.06,1.14,12.13,2.25,18.23,3.14a84.05,84.05,0,0,0,10.64.76,5.34,5.34,0,0,0,3.28-1.26c1.07-.94.64-5.07-.58-5.92-1.52-1.07-2.7-2.94-5.07-2.47-.54.11-1.21-.43-1.82-.65a30.48,30.48,0,0,1-3.17-1.12c-2.29-1.09-4.4-2.7-7.16-2.34-.07,0-.16-.1-.22-.17-2.14-2.2-4.88-2.53-7.74-2.48a4.57,4.57,0,0,1-3.84-1.27,3.68,3.68,0,0,0-2.27-.92C498.41,68.18,496.62,68.27,494.64,68.27Zm29.69,52c-.38-.88-.74-1.81-1.17-2.7-.89-1.86-1.21-4.28-4.16-4.19-.39,0-.82-.64-1.2-1s-.71-1-1.19-1.19c-1.92-.71-3.88-1.36-5.85-1.91-2.43-.68-4.88-1.25-7.33-1.83A20.62,20.62,0,0,0,501,107c-2.86-.29-5.94,0-8.53-1s-4.86-.81-7.29-.84c-1.76,0-3.53.42-5.3.51s-3.37.29-3.88,2.46c-.13.55-.83,1-1.29,1.42-1.5,1.44-1.31,4.47.54,5.31,3.89,1.78,7.68,3.95,12.17,3.94a11.43,11.43,0,0,1,2.46.54c2.25.52,4.47,1.13,6.74,1.53,5.54,1,11.1,1.83,16.65,2.77,2.37.4,4.72.52,6.88-.66C521.56,122.23,522.88,121.2,524.33,120.24ZM289.2,278.54c1.69-.53,3-.88,4.32-1.36a38.67,38.67,0,0,0,3.86-1.66c3-1.52,6.6-2,9.13-4.57a4.12,4.12,0,0,1,1-.51c2.2-1.21,4.42-2.41,6.6-3.67a9.55,9.55,0,0,0,3-2,15.6,15.6,0,0,1,3.83-3.25,3.45,3.45,0,0,0,1.58-2.18c0-2.24.59-4.4-.41-6.77s-2.6-3.59-4.24-5c-.38-.33-1.47-.12-2.1.15-3.31,1.44-6.53,3.12-9.9,4.44-2.5,1-5.09,1.67-6.87,3.88-.24.28-.57.7-.86.71-2.08,0-2.53,2-3.8,3.05-.42.33-.61,1.25-1,1.3-2.44.31-3.06,2.63-4.53,4-1,.94-1.75,2.18-2.71,3.19-1.41,1.48-1.69,4.83-.39,6.38C286.84,275.93,288.05,277.25,289.2,278.54Zm42.15,5c-.82,2-2.26,2.69-4.36,3-1.63.24-3.16,1.62-4.55,2.72-.6.47-1,.95-1.84.93a4.57,4.57,0,0,0-4.22,2.36c-.23.38-.67,1-.92.93-2-.35-1.7,1.56-2.45,2.34a10,10,0,0,0-3.66,1.71c-.82.73-.86,2.29-2.53,2.17-.21,0-.82,1.07-.68,1.38.75,1.59-.37,3-.32,4,2,1.83,3.66,3.32,5.25,4.92,1.18,1.19,3.7,2,4.48,1,.92-1.2,2-1.13,3.21-1.33a9,9,0,0,0,2.86-1c3.51-1.94,7-4,10.47-5.94,1.26-.72,2.64-1.26,3.82-2.1.63-.45.81-1.74,1.44-2,2.56-.94,3.06-3.31,4-5.33a5,5,0,0,0-.49-5.56,6.17,6.17,0,0,1-.69-1.23,5.37,5.37,0,0,0-4.64-3C334.2,283.58,332.82,283.54,331.35,283.54Zm136-63.7c-.83-.18-1.93.32-2.53,1.75a2.85,2.85,0,0,1-2,1.71c-1.67.59-3.1,4.62-2.41,6.29a4.93,4.93,0,0,0,1.4,1.53c.29.27.89.35,1,.64,1.11,3.12,4.52,3,6.58,4.73,4.28,0,8.2,1.94,12.43,2.35,3.32.32,6.56,1.39,9.87,1.84a4.09,4.09,0,0,0,3.28-1,3.73,3.73,0,0,1,2-1.27,2.65,2.65,0,0,0,1.52-1.13c.58-1.56,1.55-2.81,1.32-4.91a6.44,6.44,0,0,0-5.16-6c-3-.79-5.71-2.18-8.67-2.89-3.23-.76-6.26-2.1-9.79-2-2.07.06-4.64.4-6.57-1.35C469.35,219.78,468.59,220,467.36,219.84Zm-43.81,18.3a6.57,6.57,0,0,1-3.95,3.52,2.91,2.91,0,0,0-1.91,2.79,11.54,11.54,0,0,0,2,6.74c1,1.45,2.37,1.34,3.57,1.93A6.71,6.71,0,0,1,425,254c1.4,1.36,3,1.24,4.76,1.11a3.29,3.29,0,0,1,2.31.45c.95.91,1.76.75,2.82.41a10.14,10.14,0,0,1,2.22-.19c3.25-.24,6.5-.48,9.74-.75a3,3,0,0,0,1-.44c3.65-1.9,5.58-7.5,3.6-11.4-1.26-2.49-2.38-5.55-6.18-5.25a.69.69,0,0,1-.48-.28c-1.24-1.46-2.66-1.39-4.33-.76a4.78,4.78,0,0,1-2.51-.08c-3.09-.68-6.13.23-9.19.23C427.34,238.46,425.51,238.21,423.55,238.14Zm81.93,11a4.9,4.9,0,0,0-4.8,3.27c-.75,2.41-2,5.24.46,7.72.84.83,3.78,3.7,4.92,4.26,1.74.86,3.57,1.47,5.38,2.16a33,33,0,0,1,4.31,2.53c.53.3,1.12.79,1.64.74,3.64-.3,6.4,2.77,10,2.57.12,0,.23.27.39.37,2.41,1.52,3.11,1.37,5-.81,1.23-1.46,2.62-2.8,3.84-4.27.47-.56,1.11-1.47.94-2-.65-1.94-1.17-4-3.44-5a11.26,11.26,0,0,1-2.55-2c-.26-.21-.44-.69-.71-.73A10.85,10.85,0,0,1,525,254.8c-.25-.26-.74-.6-1-.51-1.34.5-2-.6-3-1.06a5.55,5.55,0,0,0-2.33-.92c-2.55.14-4.66-1.21-7-1.81C509.53,249.94,507.32,249.56,505.48,249.17ZM369.73,253.6c0-1.27-.68-1.8-1.92-2.19s-2-1.32-3.39-1c-5.46,1.13-11.22.94-16.23,4-2.17,1.34-4.64,2.16-6.85,3.45a57.26,57.26,0,0,0-5,3.67c-.4,4.52,1.42,8.19,4.59,11.75,3-.71,6-1.53,9.11-2.13,2.36-.46,4.43-1.72,6.73-2.25,1.49-.35,3.22.08,3.89-1.92.08-.22.64-.31,1-.4.9-.23,1.82-.41,2.72-.63a13.67,13.67,0,0,0,6.12-3.8c1.48-1.42,1.68-3.2,1.6-5.09,0-.92,0-1.84-.1-2.75a2,2,0,0,0-.32-.7ZM374,229.38a13.2,13.2,0,0,0,3.61,9.14,5.25,5.25,0,0,0,4.59,1.63c4.36-.56,8.7-1.24,13.07-1.72a7.69,7.69,0,0,0,3.09-1c.94-.53,2.29-.37,3.47-.41,2.72-.09,4.68-2.07,7.09-2.95.9-.33,2.87-1.53,2.33-3.12-.81-2.39.75-6.23-3.65-6.73-.28,0-.5-.53-.77-.79-3-2.85-3-2.85-7.28-2.11a6.08,6.08,0,0,1-1.38.21c-4.67-.29-9,1.4-13.51,2.25C380.63,224.55,377.52,227.39,374,229.38Zm213.78,120.4c.42-1.52-.44-2.64-1.42-3.67-1.32-1.41-2.71-2.74-4-4.16-1.07-1.16-2-2.47-3.1-3.57-1.57-1.53-3.38-2.82-4.89-4.39-2.36-2.45-4.32-5.3-8-6.14-1.7-.39-3.3-1.19-5-1.67a3,3,0,0,0-1.85.27,7.17,7.17,0,0,0-3.91,7.93,2.89,2.89,0,0,0,.69,1.16c.73.84,1.53,1.62,2.27,2.46,1.19,1.34,2.23,2.83,3.54,4,3.95,3.68,7.94,7.32,11.71,11.2.25.26.63.59.94.58,1.68-.06,2.4,1.06,3.31,2.21a4.2,4.2,0,0,0,5.35,1.15,21.51,21.51,0,0,0,4-2.89,1.36,1.36,0,0,0,.42-1C587.86,352.16,587.78,351,587.73,349.78Zm-271.5-17.14a3.9,3.9,0,0,0-1.67-3.56,13.4,13.4,0,0,1-2.31-2.33c-1.39-1.78-2.56-2.06-4.61-.88-2.21,1.27-4.4,2.59-6.62,3.85-.82.47-1.66.78-1.71,2,0,.45-.61.88-1,1.3-2.44,2.85-4.92,5.69-7.33,8.57-.64.75-1,1.71-1.64,2.48-1.49,1.86-4,3.25-2.57,6.35.19.42-.23,1.24-.53,1.78a2.56,2.56,0,0,0,.56,3.32,34.7,34.7,0,0,0,3.61,2.87,2.25,2.25,0,0,0,1.08.28c2.07.24,3.22-.52,4.19-3.08a4.19,4.19,0,0,1,2.19-2.27,54.74,54.74,0,0,0,7.23-5.05,25.81,25.81,0,0,0,3-3.62,36.8,36.8,0,0,1,4.22-4.74C314.82,337.82,315.35,334.93,316.23,332.64Zm171.34-65.48a19.33,19.33,0,0,1-2.45-1.12c-1.62-1.05-3.05-2.67-4.81-3.18-3-.87-6-1.83-9.26-1.43a6.31,6.31,0,0,1-2.81-.09c-2.36-.85-4.34.05-6.4,1a4.52,4.52,0,0,0-2.7,2.24c-.43.93-1.49,1.57-2.63,2.68.11.33.15,1.56.73,1.93,1.17.74.19,1.65.49,2.48,1.38,3.83,5,4.53,7.93,6.05,2.25,1.18,5,1.28,7.6,1.89,1.36.33,2.9.43,4,1.14,2,1.26,4,.42,5.93.51.43,0,.92-.54,1.33-.9s1-1.06,1.6-1.5c1.86-1.4,3-3.06,2.42-5.53-.08-.34-.11-.9.1-1.09,1-.94.49-1.74,0-2.66A22,22,0,0,1,487.57,267.16Zm-102.74,2.06a25.44,25.44,0,0,1,.41,2.7,28.15,28.15,0,0,0,1.8,6.27c1,2.19,2.88,2.6,4.91,2.52,2.69-.1,5.34-1.1,8.08-.19.44.15,1.08-.23,1.6-.42,1.66-.6,3.34-1.17,5-1.86,2.31-1,4.93-1.52,6.39-3.84a15.42,15.42,0,0,0,2.15-4.34,11.9,11.9,0,0,0-.19-3.76L409.65,262l.6-1.91c-1.24-.13-2.24-.27-3.24-.31a9.25,9.25,0,0,0-2.53.14c-4.52,1.11-9,2.3-13.65,3.49-.22.55-.49,1.22-.81,2l-1.8-.9a27.32,27.32,0,0,0-1.89,2.13C385.75,267.44,385.32,268.36,384.83,269.22Zm180.23,37c1.34-4.46,1-5.27-2.95-7.52a22.18,22.18,0,0,1-5.08-3.42c-1.67-1.74-4.18-2.53-5.27-4.91-.24-.52-1-.84-1.58-1.15q-2.2-1.2-4.47-2.29a9,9,0,0,0-2.85-1.15c-1.7-.16-3.16-.5-4.07-2.89-.79,2.24-2,2.89-3.68,3-.43,0-.93.56-1.22,1-.79,1.15-.62,2.94-2.48,3.42-.31.08-.67,1.31-.47,1.79.61,1.53,1.13,3.4,2.32,4.32,2.68,2.07,4.86,4.89,8.21,6.05.08,0,.13.14.21.19,2.75,2.07,6.07,3.17,8.77,5.39,1,.83,2.8.84,4.26,1a47.3,47.3,0,0,0,4.77,0C560.84,307.18,563.31,305.85,565.06,306.23Zm-204.82,5.24c.94-.07,1.32-.08,1.69-.13,4.65-.64,8.78-3.07,13.41-3.79a2.6,2.6,0,0,0,.77-.33,36.72,36.72,0,0,0,4.64-2.47c1.5-1.07,3.71-1.79,3.76-4a15.26,15.26,0,0,0-2.14-8.33c-.36-.59-6.51-2.84-7.2-2.72-1.94.33-3.9.57-5.82,1s-4.32.31-6,2c-.28.29-.86.26-1.27.44a15.23,15.23,0,0,0-6.15,4.39c-.72.95-1.59,2.25-1.46,3.27a18.75,18.75,0,0,0,3.65,9.39A6,6,0,0,0,360.24,311.47ZM344.14,373a2.45,2.45,0,0,1-1.13-3.44,2.62,2.62,0,0,0-1.06-3.22,19.81,19.81,0,0,1-3.47-3.24c-1.86-2.48-4.35-2.73-7-2.29a12.73,12.73,0,0,0-8,4.67,5.46,5.46,0,0,1-1.24,1c-1.53,1-2.22,3.26-4.54,3.15,0,0,0,.19-.1.25-1.86,1.95-2.79,4.48-4.25,6.68-.06.09.23.41.36.64l.49-.38a14.2,14.2,0,0,0,2.07,3.24A17.93,17.93,0,0,0,321,383.3c1.57.67,3.54-.05,5.15,1.05.29.2,1.07-.19,1.56-.44.67-.34,1.28-.79,1.86-1.16,1.27.82,2.1,1.22,3.28-.37a28.69,28.69,0,0,1,5.1-4.72C339.83,376.11,341.85,374.72,344.14,373Zm8.12-51.31c-2.8,1-6,1.88-9.07,3.19-1.74.74-3.16,2.23-4.84,3.17s-2.37,3.23-4.61,3.48c-.22,0-.46.59-.56.94a16.11,16.11,0,0,0-.75,3.25c-.08,1.79-.23,3.47,1.4,5.09a42.51,42.51,0,0,1,3.33,3.62,3,3,0,0,0,3.38,1.15,37.15,37.15,0,0,0,8.67-3c1-.44,2-.91,3-1.42,1.23-.65,2.36-1.68,3.65-2,2.21-.51,3-2.07,3.65-3.86.19-.52.11-1.25.45-1.59a2.63,2.63,0,0,0,.23-3.4c-1.11-2.08-1.91-4.41-4-5.83-.28-.2-.68-.48-.7-.75C355.28,322,353.81,322.22,352.26,321.71Zm108.68,60.7c.45-.65.71-1.37,1.22-1.69a25.13,25.13,0,0,0,6.35-5.6,4.28,4.28,0,0,0,1.17-2.41c.28-2.66.65-5.3,1-7.95a5.76,5.76,0,0,0-3-6c-1.82-1-3.59-2-5.46-2.88-2.47-1.1-5.13-1.14-7.15.68a14.89,14.89,0,0,0-4.92,7.27c-1.75,6.45-1.28,11.3,3.41,16.94a3,3,0,0,0,2.33,1.39C457.54,382.25,459.15,382.32,460.94,382.41Zm48.28,9.31c1.36-2.56,4.7-3.72,4.45-7.19l2.12-.13a10.78,10.78,0,0,1,.73-3,9,9,0,0,0,1.26-6.4c-.7-.58-1.36-1.08-2-1.63-1.56-1.44-3.38-2.7-4.58-4.4-1.59-2.25-4.13-.78-5.9-2.05a3.87,3.87,0,0,0-4.76.06,10.71,10.71,0,0,0-3.39,4.55c-.39,1.18-.5,2.23-1.66,2.9-.28.17-.64.51-.66.79-.25,4-1.61,8.18,1.78,11.68a11.76,11.76,0,0,1,1.49,2.69,8.41,8.41,0,0,1,1.08.14,2.08,2.08,0,0,1,.75.36c2.05,1.44,4,3.12,6.81,1.7C507.37,391.46,508.25,391.72,509.22,391.72ZM532.47,346c1.18-.42,2.68-.53,3.49-1.33,1.93-1.92,4.21-3.52,5.39-6.24a3.14,3.14,0,0,0-.18-3.35,16.46,16.46,0,0,0-3-3.55c-4-3.23-8-6.42-13.18-7.58a18.92,18.92,0,0,0-5.83-.75c-1,.11-1.91,1.62-2.81,2.53a10.42,10.42,0,0,0-2.67,7.08,4.67,4.67,0,0,0,1.06,3.05,21.6,21.6,0,0,0,6.88,5.52c.93.45,1.75,1.1,2.67,1.54C526.84,344.14,529.27,345.85,532.47,346Zm-160,20.75a33.84,33.84,0,0,0-6.23.72,34.47,34.47,0,0,0-7.21,3.16c-1.14.64-2.57,1.93-2.65,3a7.31,7.31,0,0,1-1.94,4.06c-.12.16,0,.53.06.82l1.43-.26c.47,1.35,1,2.66,1.38,4,1.13,3.84,2.89,7.23,6.51,9.32a3.42,3.42,0,0,0,1.73.68c1.83-.14,3.65-.47,5.51-.74a6.37,6.37,0,0,1,1-1.68c1.25-1.05,2.61-2,3.91-3,.35-.27.82-.52,1-.88a14.32,14.32,0,0,0,.66-6.56,4.67,4.67,0,0,1,0-2c.67-1.82-.35-3.05-1.28-4.33-.61-.84-1.35-1.6-1.88-2.48C373.83,369.46,373.27,368.19,372.52,366.72Zm145.35-65.65c-1.83-2.1-3.51-4.49-6.59-5.14a.87.87,0,0,1-.58-.52c-.23-2.08-2-1.8-3.32-2.24a14.46,14.46,0,0,1-1.8-.68c-2.57-1.23-5.05-2.7-8.05-2.64a8,8,0,0,1-1.95-.15c-2.08-.49-3.29.61-4.42,2.13-.84,1.13-.59,3.19-2.73,3.3-.16,0-.4.64-.41,1a10.28,10.28,0,0,0,5.68,9.56,14.51,14.51,0,0,0,3,1.46c2.69.79,5.4,1.48,8.13,2.11,1.95.44,3.95.71,6.39,1.14a3.61,3.61,0,0,1,1.54-.64c2-.11,2.65-1.34,3.12-3C516.39,304.82,517.17,303,517.87,301.07ZM413,354.88a9.05,9.05,0,0,0-7.15,2.93,18.91,18.91,0,0,0-2.86,3.87c-.6,1-1.43,1.82-.57,3.41a9.6,9.6,0,0,1,1.31,5.79c-.49,2.62,1.72,3.49,2.35,5.29.06.18.05.42.16.54s.61.64.84.59c1.12-.25,1.4.66,1.95,1.25a4.36,4.36,0,0,0,3.71,1.62,3.75,3.75,0,0,1,1.38.09,4.86,4.86,0,0,0,5.84-2,11.28,11.28,0,0,1,2.56-2.6c1.46-1,1.58-2.44,1.64-3.95a6.65,6.65,0,0,0-.12-2.14c-.51-1.67-1.47-3.24-1.1-5.11,0,0-.18-.09-.21-.17a7,7,0,0,1-.93-2.16c-.3-3.27-3.28-4.43-5.13-6.41C415.94,355,414.23,355.14,413,354.88ZM546.82,385.1a7,7,0,0,1,3.38-.45c2.43.22,6.49-3.35,6.59-5.75a18.14,18.14,0,0,0-.87-5.78,3.39,3.39,0,0,0-3-2.26c-.3,0-.58-.44-.82-.72-1.14-1.33-2.34-2.61-3.36-4a8.39,8.39,0,0,0-4.39-3.17,33.49,33.49,0,0,1-3.8-1.64,5.37,5.37,0,0,0-5.18.33c-1.35.89-2.41,2.29-3.77,3.36-1.8,1.41-1.77,6.51-.17,8.12,3.61,3.63,7.09,7.46,11.7,9.93C544.29,383.66,545.42,384.32,546.82,385.1Zm-98.76-91.7c.4-1,.65-1.74,1-2.44a8.7,8.7,0,0,0-.34-8.1c-.2-.38-.59-.86-1-.93a61.38,61.38,0,0,0-10.61-1.69c-.8,0-1.6.1-2.38,0-2.87-.25-5.76-.12-8.05,1.71-2.63,2.1-4.47,4.78-3.49,8.49.1.35,0,.77.06,1.12a2.66,2.66,0,0,0,.55,1.24c1.58,1.46,3.19,2.89,4.84,4.26a3,3,0,0,0,1.55.61,67.55,67.55,0,0,0,8.14.53,11.06,11.06,0,0,0,7.05-2.89A11.91,11.91,0,0,1,448.06,293.4Zm25.7,12.3a51.86,51.86,0,0,1-7.8-.78c-2.09-.51-3.84.49-5.79.49a5.1,5.1,0,0,0-3.2,1.7c-3.37,3.66-3.83,7.29-1.64,11.78.37.75.81,1.77,1.45,2,2.8,1,4.9,3.71,8.25,3.38,2.73-.27,5.44,0,8.11-1.35s3.71-3.93,6-5.41c.23-.16.28-.69.3-1,.07-1.29.1-2.59.1-3.88a3.16,3.16,0,0,0-1.34-2.91A54.74,54.74,0,0,1,473.76,305.7ZM389,334.8c-4.15-.49-5.45-.31-9,1.15a8.37,8.37,0,0,1-1.61.16,10.28,10.28,0,0,0-2.12.53,23.09,23.09,0,0,0-2.69,1.43,4,4,0,0,0-1.28,1c-2.05,2.83-1.65,5.4,0,7.84.3.44.83.83.9,1.3.43,2.85,2.68,4.44,4.41,6.37a2.76,2.76,0,0,0,1.79.56,17.51,17.51,0,0,0,8.76-1.53c2-1,4-1.93,6-3,.44-.25.68-1,.81-1.62s-.18-1.11-.1-1.63c.62-3.89-1.29-6.83-3.52-9.66C390.63,336.8,389.93,336,389,334.8Zm89.5,10.07c0,2.71.2,2.63,2.32,6.33.48.84.84,1.59,1.66,1.89,1.92.72,3.8,1.56,6,1.51,1.05,0,2.1.64,3.18.76,1.35.14,3,.47,4-.09a8.76,8.76,0,0,0,3.15-3.37,48.11,48.11,0,0,0,2-4.92,6.26,6.26,0,0,0-.67-6.59c-.86-1.31-2.19-1.27-3-2.13-3.39-3.57-7.84-3.4-12.17-3.5-.84,0-1.76.89-2.55,1.49-.41.31-.55.95-.93,1.32A10.11,10.11,0,0,0,478.48,344.87ZM393.16,313c.07,2.58.4,5,3.29,6.15a2.09,2.09,0,0,1,1,1.51c.17,1.59,1.21,1.79,2.49,2.15,2.09.6,4.12-.24,6.11,0a9.27,9.27,0,0,0,7.26-1.86,6.37,6.37,0,0,1,2.68-1.3,2,2,0,0,0,1.85-1.78c.2-1.76.9-3.59-.55-5.26a7.74,7.74,0,0,1-.94-2.32c-.48-1.21-.62-2.94-1.51-3.5-2-1.31-4.11-2.88-7-2.11-3.5.94-7.17,1-10.56,2.67C394.44,308.75,393.34,309.81,393.16,313Zm39.06,33.8c1.56,0,3-.11,4.51,0a8.49,8.49,0,0,0,6.9-1.89c2.21-2,3.94-4.23,3.05-7.54a3.41,3.41,0,0,1,.19-1.38,6.13,6.13,0,0,0-1.59-5.4c-2.16-2.43-5.19-3.34-8.19-3.82-1.72-.27-3.61.48-5.66.81-.61,1.13-1.47,2.37-3.12,2a15.92,15.92,0,0,1-1.5,2.17c-1.56,1.55-1.55,3.4-1,5.26a39.47,39.47,0,0,0,2,5.24,7.87,7.87,0,0,0,1.67,2.19C430.29,345.32,431.26,346,432.22,346.79ZM367,29.42c1,2,1.51,2.38,3.1,2.11a7.75,7.75,0,0,1,1.65-.25,40.82,40.82,0,0,0,11.34-.75,1.16,1.16,0,0,0-1.05-.72,34.72,34.72,0,0,1-6.9-.53c-1.57-.22-3.24.29-5.21.52C369.46,28.89,368.39,28.74,367,29.42Zm455.4,382.83.94,6c1.11-2.06-.1-4.7,2.49-6.07C824.56,410.89,823.74,412,822.37,412.25ZM846.73,348l3,2.41C850.51,347.93,850.5,347.92,846.73,348ZM541.62,30.27l-.11.91,2.61.32.09-.55ZM492.2,443.36c-.93-.29-.52-3-2.68-1.89ZM517.34,31.07c1,1.2,1.63.53,2.24-.23Zm209.8,409.86c-.56-.65-.72-1-.9-1a13.59,13.59,0,0,0-1.68.08v.44ZM407.91,33c.2,1.14.2,1.14,1.53.81ZM854.93,353c-1.33,1-.93,1.77-.12,2.56C854.84,354.78,854.88,354,854.93,353Zm-725.51,73.1c.39-.54.67-.78.74-1.06s-.31-.63-.37-.61c-.31.1-.72.25-.83.51S129.17,425.46,129.42,426.06Z" transform="translate(-11.38 -24.49)"/><path d="M141.21,81.59c-.26-.09-.6-.33-.77-.25a9.2,9.2,0,0,0-4.32,3.76c-.13.22.08.64.16,1,.16.6.34,1.19.57,2-1.74,0-2.57-2.16-4.47-1-.42.75,1.08,2.47-.74,2.83-1.6.31-3.38.58-4.25-1.17-.71.83-1.43,1.59-2,2.42a3.49,3.49,0,0,0-.43,1.31c-.39,1.91-1.26,2.7-3.12,2.81l-.28,0c-2.11-.29-3.66.34-4,2.42L115,97.31l-.37,2.51c-.84,1.19-2.79-.42-3,1.65-.46-.28-1.11-.92-1.34-.8a20.16,20.16,0,0,0-2.72,2c-.44.34-.8,1-1.27,1a6.8,6.8,0,0,0-4.18,2.9c-1,1.34-2.35,2.38-3.3,3.84s-2.49,2.32-3.78,3.44l-4.26,3.7-.87-.73c-3.61,4.61-3.61,4.61-5.57,4.92-.24,1.84-.24,1.84,1.1,3.15l-1.3,1.43-1.62-1.49-2.42,4-3.77.38a4.56,4.56,0,0,1-3.59,2.95c-.47.07-1,.83-1.2,1.37-.37,1.33-1.91,2-1.8,3.6a.85.85,0,0,1-.5.64c-2.57.71-3.7,2.94-5.18,4.82A7.25,7.25,0,0,1,62.26,144c-.31.2-.94.21-1,.43-.86,2.79-4.43,3.15-5.24,6a4,4,0,0,1-4.41,3.09,5.13,5.13,0,0,0-1.25.28c-.8,1.93-1.6,4-4.45,4.47l.75,2.6-1.54.28c-.22,1.42,0,3.24-.78,4.2-1.43,1.72-3.49,2.93-5.4,4.45l-.29-1c-1.44.59-3.1.92-4.27,1.85s-1.21,2.92-2.37,4.29c-.9,1.07-.68,3.1-1,4.93-.71-1-.28-3.26-2.41-2-1.19-2.57-2.55-5-1.48-8l-1.21-.86c-2.83-2-3.57-4.47-2.31-7.78.2-.52.8-1.14.66-1.5-1.06-2.63,1-2.8,2.53-3.27a8.3,8.3,0,0,0,3.92-2.41c3.54-3.88,7.34-7.52,11.07-11.21,1.54-1.52,3.28-2.84,4.71-4.45,2.12-2.39,4-5,6.07-7.43.9-1.09,2-2,2.92-3.08a7.83,7.83,0,0,0,1.34-2,3.38,3.38,0,0,1,3.72-2.2c1.64.32,3.28.69,4.89,1,.72-1.41.72-1.41-.63-2.11.08-1.36.82-2.11,1.86-3a20.17,20.17,0,0,0,4-5.34c.58-1,.68-2.08,2.25-1.9,1.86.21,2.78.86,3.32,3l3.63-2.3-3-.57c1.7-.66,1.16-3,3.3-2.79-.69-2.6,2-2.59,3-3.87a.5.5,0,0,1,.23-.17c2.08-.94,4.31-1.65,5.86-3.5a1,1,0,0,1,.78-.3c2.55.22,4.14-1.48,6-3L95.23,97c2.32-1.43,3.65-4.19,6.78-5.17l-.12,2.5,1.74,1.23-1.34,1.71a4.77,4.77,0,0,0,1.07.17c.63-1.6,2.44-1.94,3.42-3.27s2.68-1.81,4.2-2.76l-1-1.56c.41-1.15.75-2.2,1.16-3.22.84-2.1,2.37-2.5,4-1.07l3.73-1.79.75,3.29c1.32-1.41,2-2.7,3.16-3.24s2.78-.45,3.57-2.17l-1.41-.38c.82-1.13,2.68-1.68,1.91-3.71,1.77-1,3.58-2,5.34-3a8.17,8.17,0,0,0,1.35-1.4c1.36-1.42,2.31-1.51,4.23-.34,1.91-.87,3.85-1.69,5.08-3.68.4-.63,1.35-1,2.08-1.36,2.4-1.27,4.79-2.56,7.24-3.73,1.85-.89,3.84-1.52,5.68-2.43,1.5-.74,2.84-1.82,5.38-1.33l-4.91,2.23.05.37h4.24c.44-1.1.82-2.18,1.32-3.19a2.48,2.48,0,0,1,1-.85c1.63-1,3.31-1.81,4.9-2.81a5.75,5.75,0,0,1,4.5-1.12,3.87,3.87,0,0,0,2.55-.76,39,39,0,0,0,3.49-2.81c1.51-1.25,2.29-1.22,3.4.39.62.9,1.18,1.74,2.39,1.67a2.48,2.48,0,0,0,2.56-2.77,13,13,0,0,0-.2-1.73,6.38,6.38,0,0,1,5.18-.72c1.66.46,3.35.64,4.74-.23l1.56-3.65c.83,0,1.52-.3,1.92-.06,1.57.9,2.54.4,3.52-1,.38-.52,1.3-.68,2-.9.89-.28,2.32-.16,2.65-.72,1.73-2.87,4.34-1.35,6.94-1.83l-1.19,1.72c1.39,1.26,2.75,2.47,4.94,2.09-.5-2.52-.5-2.52-2.47-4.07a3.73,3.73,0,0,1,.95-.6c2.16-.56,4.45-.8,6.46-1.69a9.34,9.34,0,0,1,6.27-.92,1,1,0,0,0,.55-.12,21.82,21.82,0,0,1,7.91-1.53c1.55,0,3.08-.37,4.62-.56.43-.47-.67-1.52.8-1.7,1-.13,1.83-.14,2.37.82.41.73.75,1.49,1.16,2.3l2.86-1a13,13,0,0,1,.9-2.64c.64-1,1.79-.71,2.83-.76,3-.13,6.06-.4,9.12-.62.75-3.36,1.2-3.58,3.7-1.58l-1.34,2,.09-.05L260.2,32c2.09,1.2,5.52-.11,5.38,3.93,1.24-.33,2.19-.54,3.11-.85,1.81-.6,3.5-2,5.56-.74l.78.48c1.43.62.43,1.95.76,2.89.06.15-.75.61-1.37,1.09l3.33.14c-1.3.51-2.13.89-3,1.14a1.49,1.49,0,0,1-1.24-.12c-1.38-1.39-3-1-4.91-1l.7,2.75v0c-2.53-.47-4.49,0-7.16.59-1.13.26-2.7,1.15-4-.25-.51-.54-1.62-.56-2.47-.67-1.4-.18-2.59.13-3.16,1.66A2.25,2.25,0,0,1,250,44.59a28,28,0,0,0-5.72,1.09c-.89.2-1.75.49-2.65.74l-.6-.85c-1,.55-1.21,2.39-2.88,1.68l-.33-1.47c-.46.12-1,.09-1.29.35-1.71,1.58-3.67,1.43-5.71,1a3,3,0,0,0-1.57,0c-1.26.52-2.39,1.45-3.91.73-.21-.1-.77.15-1,.4-1.66,2.11-4.29,1.92-6.43,2.21-2.59.36-5.21,0-7.23,2.17-.08.09-.35,0-.53,0a.3.3,0,0,1-.2-.18c0-.07,0-.17.06-.25-.25-.85-.49-1.7-.85-2.91-1.16,1.78.34,2.16.87,2.9-1.34-.94-2.28.82-3.64.59-.07-1.24-.14-2.46-.22-3.79-2.09,1.24-2,1.22-1.28,3.11.21.51-.08,1.23-.15,1.83a35.32,35.32,0,0,0-5.72.76,8.17,8.17,0,0,0-3.41,2.3A3.66,3.66,0,0,1,193,58.31a39.15,39.15,0,0,0-4.5.95,11.39,11.39,0,0,0-2.31.46,10.13,10.13,0,0,0-2.1,1.56c-.48.4-.86,1.17-1.36,1.23-2,.26-3.93.3-5.9.42l-.42-.75-3.45,2,1.16,1.19-3.67.48c-.44,1.43-1.14,2.58-2.89,2.58a1.62,1.62,0,0,0-.76.34c-2.9,1.79-6,1.51-9.14,1-.64-.11-1.29-.17-1.95-.26.08,1.56.15,3,.23,4.56-1.7,0-3,0-4.35,0a1,1,0,0,0-.71.35c-1.75,2.79-4.51,1-6.88,1.73-.89,1.33-.89,1.33-.67,2.53l-2.21,3.05Zm68.63-32.78.31.79c2.47-1.42,5.13,1.2,7.57-.93a8.68,8.68,0,0,0-3.13-.07c-1.23.19-2.2.07-2.6-1.46Zm-28.1,9L184,56.37c-1.77-1-3.42-.6-5.67-.87Zm-4.15,1c-1.05-2-1.05-2-3.36-.36Zm-27.7,13.11-2.69-.58C147.68,73.22,148.55,72.54,149.89,71.89ZM252.51,36.4c-1.16-1.25-1.16-1.25-1.69.3ZM207,46.85l.15.37,1.19-.23-.11-.48Z" transform="translate(-11.38 -24.49)"/><path d="M358.63,28.26l-.25-1.65,3.54-1.19,2.13,1.28c-1.6,1-3.12,2-4.71,2.86a4.34,4.34,0,0,1-2.15.5c-2-.06-4-.56-5.95-.33a37.1,37.1,0,0,1-4.73.4c-2.09,0-4.18.29-6.51.48l.77,1.34-2.34,1.89.15.55c-2.32-.24-4.64-.64-7-.67-1.87,0-3.89-.72-5.57,1a2.23,2.23,0,0,1-2.15.18c-1.47-1-2.81-.26-4,.22a7.52,7.52,0,0,1-5.45-.07c-1.38-.47-2.41-.77-3.49.42-.21.24-.7.23-1.25.38l-.87-2L305,33.55c.13-.9.24-1.59.36-2.44,1.79.06,3.32-.43,5.08.17,1.12.38,2.88,1.07,4-.68.24-.36,1.38-.31,2-.16,1.78.4,3-.44,4.21-1.55s.65-2.61-.73-2.64a36.55,36.55,0,0,0-5.59.58c-.13,0-.23.27-.34.41.92,1.43.92,1.43,3.22,2l-9.9-.39v-.67l5.23-.27.06-.44L309.3,25.7l.15-.65c1.2,0,2.4,0,3.6,0q20.88.4,41.75.86c.11,0,.21.26.3.37-7.87.69-15.8-.74-23.87.74l.33,1.2a11.81,11.81,0,0,1,2.6,0,11,11,0,0,1,2.34,1.22l.31-1.51c1.65.3,3.25,1.53,5,.47,4.22,1.68,8.5-1,12.78.17C355.8,28.93,357.2,28.41,358.63,28.26Zm-28.36.83c-3.54-3-3.54-3-5.33-2.55C325.8,29.38,328.42,28.46,330.27,29.09Zm3.85,4.11a6.74,6.74,0,0,0-6.46-.68c2.28.39,4.18.73,6.08,1C333.84,33.57,334,33.32,334.12,33.2Zm-9.47-2.29-2,.46,0,.51,2.47.93C324.89,32,324.79,31.52,324.65,30.91Z" transform="translate(-11.38 -24.49)"/><path d="M275,34.78l-.78-.48.32-.76c-2-1.38-4.17-.19-6.18-.17l-.93-2.53-.09.05c1.15.78,2.35,1.06,3.15-.32s2.3.22,3.52-.81l-1.74-.88s.07-.17.17-.19c1.74-.3,3.49-.55,5.23-.88.93-.18,1.8-.6,2.28.76.11.31,1,.53,1.45.5,1.66-.1,3.31-.31,5-.51.73-.1,1.45-.34,2.19-.42,2.14-.25,2.2-.2,3.06,1.83.33.76.69,1.5,1,2.24l-2.95-.7-3.16.69,3.27,1c-.05-.74-.08-1.23-.11-1.71.91.47,1.6,1.91,2.9.68.28,0,.64.12.82,0,2.24-1.61,4.76-.57,7.15-.74a2.41,2.41,0,0,1,1.76.55,43.23,43.23,0,0,1,2.85,3.57c-1.77-.32-3.19,1.88-5,.2-.12-.12-.52,0-.79.12a10.22,10.22,0,0,1-4.34.27,3.86,3.86,0,0,0-4.26,2c-1,0-2-1.85-3-.05a2.6,2.6,0,0,1-1.33-.52,28.51,28.51,0,0,0-2.54-2.47,5.27,5.27,0,0,1-1.9,4.32l-4-.26,1.14-1c-2.13-1.12-2-1.88,1-3.79l-2.2-1.9,1.39-2.15a12.93,12.93,0,0,0-2.83.25c-1.25.43-1.27,1.46-.17,3.89Zm8.08-2.09c1.65,1,1.65,1,2.83,0Zm14.12,1.16-.1-.45-2.3.38.13.61Zm-13.1-2.51c-.48-.65-1.06-1.65-1.71-.07Z" transform="translate(-11.38 -24.49)"/><path d="M350.25,33.65l-6.71-1.08c-.5-.08-1-.24-2.09-.52,2.13-1.12,3.75-.46,5.31-.44s3.09,0,4.62,0c.56,1.37-.06,1.84-1.21,2Z" transform="translate(-11.38 -24.49)"/><path d="M301.24,28.17l-5-2.5c1.88-1.36,3.62-.89,5.81-.87-1.76,1.08-1.12,2-.29,3Z" transform="translate(-11.38 -24.49)"/><path d="M502.89,25l1.33,2.37-1.33,2.1c-1.93-.31-.6-2.07-1.31-2.94A10.88,10.88,0,0,1,502.89,25Z" transform="translate(-11.38 -24.49)"/><path d="M521.71,27l-3.81.21c2-1.56,2-1.56,3.82-.81Z" transform="translate(-11.38 -24.49)"/><path d="M506.43,26.56c1.14,0,2.26-1.52,3.53.15l-3.46.58Z" transform="translate(-11.38 -24.49)"/><path d="M549.94,24.49l1.45,2-3,.37Z" transform="translate(-11.38 -24.49)"/><path d="M76.19,438.2l3.65,1-5.29.39,1.72-1.42Z" transform="translate(-11.38 -24.49)"/><path d="M780.72,127.52l1.68-2c.22.95.36,1.56.52,2.3Z" transform="translate(-11.38 -24.49)"/><path d="M469.93,42.31c-1.27,1.68-2,.82-3,0Z" transform="translate(-11.38 -24.49)"/><path d="M512.29,28.3h-3.12C511,27.23,511,27.22,512.29,28.3Z" transform="translate(-11.38 -24.49)"/><path d="M284.39,27.07l3-.14C286.33,28.51,285.33,27.83,284.39,27.07Z" transform="translate(-11.38 -24.49)"/><path class="cls-1" d="M461.41,442.62c-.25-.35-.74-.71-.71-1a3.15,3.15,0,0,1,.72-1.39c.06-.08.72.14.71.17-.07.57-.2,1.13-.32,1.7Z" transform="translate(-11.38 -24.49)"/><path d="M828.66,172.19l2.32.48C829.75,173.67,829.75,173.67,828.66,172.19Z" transform="translate(-11.38 -24.49)"/><path d="M790.18,135.25l-1.93-.33C789,133.69,789,133.69,790.18,135.25Z" transform="translate(-11.38 -24.49)"/><path d="M128.2,439c-1.26.26-2.51,1.34-4-.24l4,.24Z" transform="translate(-11.38 -24.49)"/><path d="M146,76.45c.46,1.16.72,1.8,1,2.45-.17,0-.41.18-.5.11C145.83,78.5,145.09,78,146,76.45Z" transform="translate(-11.38 -24.49)"/><path d="M269.3,41.65c2.05-1.42,2.14-1.43,4.25-.07-1.78,0-3,0-4.24,0C269.3,41.61,269.3,41.65,269.3,41.65Z" transform="translate(-11.38 -24.49)"/><path d="M757.06,439h-5.47l0-.42,5.45.42Z" transform="translate(-11.38 -24.49)"/><path d="M791.83,435.57c-.68.68-1.36,1.25-2.35.12.81-.2,1.48-.38,2.15-.53C791.67,435.15,791.76,435.43,791.83,435.57Z" transform="translate(-11.38 -24.49)"/><path d="M562.52,30.54c-.38.54-.61,1.05-.74,1a4.27,4.27,0,0,1-1.1-.57c.18-.26.31-.68.53-.73A3.82,3.82,0,0,1,562.52,30.54Z" transform="translate(-11.38 -24.49)"/><path d="M532.69,25.9l2.23.51,0,.43-2.27-.11Z" transform="translate(-11.38 -24.49)"/><path d="M778.13,124.71l1.45-.57.24.52-1.44.78Z" transform="translate(-11.38 -24.49)"/><path d="M529.35,27.61h1.47l.07.54-1.5.19Z" transform="translate(-11.38 -24.49)"/><path d="M303.12,27.13c.31.29.64.57.92.88,0,0-.19.28-.3.42l-1-.9Z" transform="translate(-11.38 -24.49)"/><path d="M350.17,33.57l.32,1.28-2.78-1.05,2.55-.15Z" transform="translate(-11.38 -24.49)"/><path d="M450,441.24l.48.73-2.46-.46.18-.69Z" transform="translate(-11.38 -24.49)"/><path d="M53.74,333.88c1.19,0,1.19,0,.76,1.61-.3-.74-.49-1.22-.69-1.69Z" transform="translate(-11.38 -24.49)"/><path d="M656.19,54.91l-.69-.78.23-.19.7.82Z" transform="translate(-11.38 -24.49)"/><path d="M720.22,79.08l-.73,1.5-.79-1.36,1.6-.07Z" transform="translate(-11.38 -24.49)"/><path d="M141.13,81.68c.09,0,.17-.12.26-.11.43,0,.86.08,1.29.13l-.28.7-1.18-.81Z" transform="translate(-11.38 -24.49)"/><path d="M559,39.37c-.25-.28-.51-.55-.74-.85,0,0,.29-.35.3-.34.31.22.6.47.89.71Z" transform="translate(-11.38 -24.49)"/><path d="M550.7,439.67l-1.24,1.18-.32-.32,1.14-1.21Z" transform="translate(-11.38 -24.49)"/><path d="M586.94,42.52c-.34.28-.57.59-.7.55a3.34,3.34,0,0,1-.86-.56c.22-.22.44-.62.64-.61S586.56,42.25,586.94,42.52Z" transform="translate(-11.38 -24.49)"/><path d="M224.84,441.18a5.46,5.46,0,0,1-1,.36,5.84,5.84,0,0,1-1.37-.23l2.22-.46Z" transform="translate(-11.38 -24.49)"/><path d="M329.25,444.49c.42,0,.83,0,1.25,0,0,0,0,.26,0,.4h-1.28Z" transform="translate(-11.38 -24.49)"/></svg>